Bitter Pro-Thin.ufo
<glyph name="numbersign" format="2">
	<advance width="665"/>
	<unicode hex="0023"/>
	<outline>
		<contour>
			<point x="110" y="498" type="line"/>
			<point x="110" y="480" type="line"/>
			<point x="595" y="480" type="line"/>
			<point x="595" y="498" type="line"/>
		</contour>
		<contour>
			<point x="72" y="230" type="line"/>
			<point x="72" y="212" type="line"/>
			<point x="557" y="212" type="line"/>
			<point x="557" y="230" type="line"/>
		</contour>
		<contour>
			<point x="253" y="692" type="line"/>
			<point x="155" y="0" type="line"/>
			<point x="175" y="0" type="line"/>
			<point x="273" y="692" type="line"/>
		</contour>
		<contour>
			<point x="489" y="692" type="line"/>
			<point x="391" y="0" type="line"/>
			<point x="411" y="0" type="line"/>
			<point x="509" y="692" type="line"/>
		</contour>
	</outline>
</glyph>
<glyph name="asterisk" format="2">
	<advance width="505"/>
	<unicode hex="002A"/>
	<outline>
		<contour>
			<point x="338" y="479" type="line"/>
			<point x="358" y="495" type="line"/>
			<point x="269" y="608" type="line"/>
			<point x="257" y="610" type="line"/>
			<point x="254" y="597" type="line"/>
		</contour>
		<contour>
			<point x="171" y="477" type="line"/>
			<point x="254" y="597" type="line"/>
			<point x="252" y="610" type="line"/>
			<point x="240" y="609" type="line"/>
			<point x="151" y="492" type="line"/>
		</contour>
		<contour>
			<point x="240" y="609" type="line"/>
			<point x="250" y="615" type="line"/>
			<point x="246" y="626" type="line"/>
			<point x="111" y="670" type="line"/>
			<point x="104" y="645" type="line"/>
		</contour>
		<contour>
			<point x="255" y="618" type="line"/>
			<point x="264" y="626" type="line"/>
			<point x="265" y="762" type="line"/>
			<point x="240" y="761" type="line"/>
			<point x="246" y="626" type="line"/>
		</contour>
		<contour>
			<point x="269" y="608" type="line"/>
			<point x="400" y="646" type="line"/>
			<point x="392" y="670" type="line"/>
			<point x="264" y="626" type="line"/>
			<point x="259" y="615" type="line"/>
		</contour>
	</outline>
</glyph>
<glyph name="hyphen" format="2">
	<advance width="470"/>
	<unicode hex="002D"/>
	<outline>
		<contour>
			<point x="365" y="303" type="line"/>
			<point x="105" y="303" type="line"/>
			<point x="105" y="284" type="line"/>
			<point x="365" y="284" type="line"/>
		</contour>
	</outline>
</glyph>
<glyph name="period" format="2">
	<advance width="190"/>
	<unicode hex="002E"/>
	<outline>
		<contour>
			<point x="70" y="26" type="curve" smooth="yes"/>
			<point x="70" y="10"/>
			<point x="80" y="0"/>
			<point x="95" y="0" type="curve" smooth="yes"/>
			<point x="108" y="0"/>
			<point x="120" y="10"/>
			<point x="120" y="26" type="curve" smooth="yes"/>
			<point x="120" y="42"/>
			<point x="110" y="52"/>
			<point x="95" y="52" type="curve" smooth="yes"/>
			<point x="82" y="52"/>
			<point x="70" y="42"/>
		</contour>
	</outline>
</glyph>
<glyph name="slash" format="2">
	<advance width="290"/>
	<unicode hex="002F"/>
	<outline>
		<contour>
			<point x="280" y="797" type="line"/>
			<point x="262" y="797" type="line"/>
			<point x="10" y="-74" type="line"/>
			<point x="28" y="-74" type="line"/>
		</contour>
	</outline>
</glyph>
<glyph name="one" format="2">
	<advance width="381"/>
	<unicode hex="0031"/>
	<outline>
		<contour>
			<point x="232" y="23" type="line"/>
			<point x="232" y="695" type="line"/>
			<point x="218" y="695" type="line"/>
			<point x="26" y="576" type="line"/>
			<point x="34" y="561" type="line"/>
			<point x="218" y="669" type="line"/>
			<point x="212" y="673" type="line"/>
			<point x="212" y="23" type="line"/>
			<point x="219" y="31" type="line"/>
			<point x="57" y="17" type="line"/>
			<point x="57" y="0" type="line"/>
			<point x="362" y="0" type="line"/>
			<point x="362" y="17" type="line"/>
			<point x="225" y="31" type="line"/>
		</contour>
	</outline>
</glyph>
<glyph name="seven" format="2">
	<advance width="467"/>
	<unicode hex="0037"/>
	<outline>
		<contour>
			<point x="444" y="674" type="line"/>
			<point x="444" y="692" type="line"/>
			<point x="29" y="692" type="line"/>
			<point x="29" y="559" type="line"/>
			<point x="44" y="559" type="line"/>
			<point x="62" y="679" type="line"/>
			<point x="54" y="672" type="line"/>
			<point x="430" y="672" type="line"/>
			<point x="424" y="678" type="line"/>
			<point x="138" y="0" type="line"/>
			<point x="161" y="0" type="line"/>
		</contour>
	</outline>
</glyph>
<glyph name="greater" format="2">
	<advance width="571"/>
	<unicode hex="003E"/>
	<outline>
		<contour>
			<point x="86" y="541" type="line"/>
			<point x="79" y="523" type="line"/>
			<point x="486" y="356" type="line"/>
			<point x="486" y="364" type="line"/>
			<point x="79" y="185" type="line"/>
			<point x="86" y="168" type="line"/>
			<point x="498" y="350" type="line"/>
			<point x="498" y="371" type="line"/>
		</contour>
	</outline>
</glyph>
<glyph name="question" format="2">
	<advance width="387"/>
	<unicode hex="003F"/>
	<guideline x="56" y="201" angle="0"/>
	<outline>
		<contour>
			<point x="125" y="201" type="curve"/>
			<point x="144" y="203" type="line"/>
			<point x="143" y="222"/>
			<point x="141" y="256"/>
			<point x="141" y="269" type="curve" smooth="yes"/>
			<point x="141" y="392"/>
			<point x="327" y="433"/>
			<point x="327" y="578" type="curve" smooth="yes"/>
			<point x="327" y="662"/>
			<point x="264" y="698"/>
			<point x="183" y="698" type="curve" smooth="yes"/>
			<point x="145" y="698"/>
			<point x="102" y="690"/>
			<point x="60" y="674" type="curve"/>
			<point x="66" y="657" type="line"/>
			<point x="107" y="671"/>
			<point x="147" y="679"/>
			<point x="182" y="679" type="curve" smooth="yes"/>
			<point x="253" y="679"/>
			<point x="306" y="648"/>
			<point x="306" y="577" type="curve" smooth="yes"/>
			<point x="306" y="443"/>
			<point x="120" y="396"/>
			<point x="120" y="272" type="curve" smooth="yes"/>
			<point x="120" y="256"/>
			<point x="123" y="222"/>
		</contour>
		<contour>
			<point x="123" y="26" type="curve" smooth="yes"/>
			<point x="123" y="10"/>
			<point x="133" y="0"/>
			<point x="148" y="0" type="curve" smooth="yes"/>
			<point x="161" y="0"/>
			<point x="173" y="10"/>
			<point x="173" y="26" type="curve" smooth="yes"/>
			<point x="173" y="42"/>
			<point x="163" y="52"/>
			<point x="148" y="52" type="curve" smooth="yes"/>
			<point x="135" y="52"/>
			<point x="123" y="42"/>
		</contour>
	</outline>
</glyph>
<glyph name="at" format="2">
	<advance width="880"/>
	<unicode hex="0040"/>
	<outline>
		<contour>
			<point x="417" y="-105" type="curve" smooth="yes"/>
			<point x="472" y="-105"/>
			<point x="531" y="-93"/>
			<point x="585" y="-70" type="curve"/>
			<point x="578" y="-53" type="line"/>
			<point x="526" y="-74"/>
			<point x="470" y="-85"/>
			<point x="419" y="-85" type="curve" smooth="yes"/>
			<point x="237" y="-85"/>
			<point x="121" y="56"/>
			<point x="121" y="262" type="curve" smooth="yes"/>
			<point x="121" y="479"/>
			<point x="249" y="616"/>
			<point x="450" y="616" type="curve" smooth="yes"/>
			<point x="650" y="616"/>
			<point x="769" y="479"/>
			<point x="769" y="285" type="curve" smooth="yes"/>
			<point x="769" y="169"/>
			<point x="726" y="87"/>
			<point x="641" y="87" type="curve" smooth="yes"/>
			<point x="592" y="87"/>
			<point x="567" y="112"/>
			<point x="567" y="165" type="curve" smooth="yes"/>
			<point x="567" y="358" type="line" smooth="yes"/>
			<point x="567" y="436"/>
			<point x="517" y="472"/>
			<point x="448" y="472" type="curve" smooth="yes"/>
			<point x="407" y="472"/>
			<point x="359" y="459"/>
			<point x="315" y="437" type="curve"/>
			<point x="322" y="422" type="line"/>
			<point x="361" y="442"/>
			<point x="405" y="453"/>
			<point x="443" y="453" type="curve" smooth="yes"/>
			<point x="501" y="453"/>
			<point x="547" y="427"/>
			<point x="547" y="365" type="curve" smooth="yes"/>
			<point x="547" y="282" type="line"/>
			<point x="557" y="288" type="line"/>
			<point x="441" y="288" type="line" smooth="yes"/>
			<point x="334" y="288"/>
			<point x="294" y="248"/>
			<point x="294" y="178" type="curve" smooth="yes"/>
			<point x="294" y="107"/>
			<point x="335" y="68"/>
			<point x="394" y="68" type="curve" smooth="yes"/>
			<point x="455" y="68"/>
			<point x="512" y="110"/>
			<point x="551" y="162" type="curve"/>
			<point x="547" y="164" type="line"/>
			<point x="547" y="98"/>
			<point x="581" y="68"/>
			<point x="639" y="68" type="curve" smooth="yes"/>
			<point x="734" y="68"/>
			<point x="790" y="154"/>
			<point x="790" y="288" type="curve" smooth="yes"/>
			<point x="790" y="491"/>
			<point x="664" y="635"/>
			<point x="452" y="635" type="curve" smooth="yes"/>
			<point x="238" y="635"/>
			<point x="100" y="489"/>
			<point x="100" y="260" type="curve" smooth="yes"/>
			<point x="100" y="45"/>
			<point x="222" y="-105"/>
		</contour>
		<contour>
			<point x="397" y="87" type="curve" smooth="yes"/>
			<point x="348" y="87"/>
			<point x="315" y="120"/>
			<point x="315" y="178" type="curve" smooth="yes"/>
			<point x="315" y="236"/>
			<point x="347" y="269"/>
			<point x="440" y="269" type="curve" smooth="yes"/>
			<point x="557" y="269" type="line"/>
			<point x="547" y="276" type="line"/>
			<point x="547" y="171" type="line"/>
			<point x="553" y="190" type="line"/>
			<point x="514" y="129"/>
			<point x="453" y="87"/>
		</contour>
	</outline>
</glyph>
<glyph name="F" format="2">
	<advance width="566"/>
	<unicode hex="0046"/>
	<anchor x="171" y="0" name="bottom"/>
	<anchor x="329" y="692" name="top"/>
	<outline>
		<contour>
			<point x="61" y="0" type="line"/>
			<point x="305" y="0" type="line"/>
			<point x="305" y="15" type="line"/>
			<point x="174" y="29" type="line"/>
			<point x="181" y="21" type="line"/>
			<point x="181" y="341" type="line"/>
			<point x="174" y="334" type="line"/>
			<point x="454" y="334" type="line"/>
			<point x="454" y="353" type="line"/>
			<point x="174" y="353" type="line"/>
			<point x="181" y="346" type="line"/>
			<point x="181" y="680" type="line"/>
			<point x="174" y="673" type="line"/>
			<point x="504" y="673" type="line"/>
			<point x="496" y="680" type="line"/>
			<point x="511" y="556" type="line"/>
			<point x="526" y="556" type="line"/>
			<point x="526" y="692" type="line"/>
			<point x="182" y="692" type="line"/>
			<point x="61" y="687" type="line"/>
			<point x="61" y="672" type="line"/>
			<point x="168" y="662" type="line"/>
			<point x="161" y="670" type="line"/>
			<point x="161" y="21" type="line"/>
			<point x="168" y="29" type="line"/>
			<point x="61" y="15" type="line"/>
		</contour>
	</outline>
</glyph>
<glyph name="H" format="2">
	<advance width="804"/>
	<unicode hex="0048"/>
	<anchor x="403" y="0" name="bottom"/>
	<anchor x="403" y="350" name="center"/>
	<anchor x="403" y="692" name="top"/>
	<anchor x="38" y="692" name="topleft"/>
	<outline>
		<contour>
			<point x="61" y="0" type="line"/>
			<point x="281" y="0" type="line"/>
			<point x="281" y="15" type="line"/>
			<point x="174" y="29" type="line"/>
			<point x="181" y="21" type="line"/>
			<point x="181" y="349" type="line"/>
			<point x="174" y="342" type="line"/>
			<point x="631" y="342" type="line"/>
			<point x="624" y="349" type="line"/>
			<point x="624" y="21" type="line"/>
			<point x="631" y="29" type="line"/>
			<point x="524" y="15" type="line"/>
			<point x="524" y="0" type="line"/>
			<point x="744" y="0" type="line"/>
			<point x="744" y="15" type="line"/>
			<point x="637" y="29" type="line"/>
			<point x="644" y="21" type="line"/>
			<point x="644" y="671" type="line"/>
			<point x="637" y="663" type="line"/>
			<point x="744" y="677" type="line"/>
			<point x="744" y="692" type="line"/>
			<point x="524" y="687" type="line"/>
			<point x="524" y="672" type="line"/>
			<point x="631" y="664" type="line"/>
			<point x="624" y="671" type="line"/>
			<point x="624" y="354" type="line"/>
			<point x="631" y="361" type="line"/>
			<point x="174" y="361" type="line"/>
			<point x="181" y="354" type="line"/>
			<point x="181" y="671" type="line"/>
			<point x="174" y="663" type="line"/>
			<point x="281" y="677" type="line"/>
			<point x="281" y="692" type="line"/>
			<point x="61" y="687" type="line"/>
			<point x="61" y="672" type="line"/>
			<point x="168" y="663" type="line"/>
			<point x="161" y="671" type="line"/>
			<point x="161" y="21" type="line"/>
			<point x="168" y="29" type="line"/>
			<point x="61" y="15" type="line"/>
		</contour>
	</outline>
</glyph>
<glyph name="J" format="2">
	<advance width="319"/>
	<unicode hex="004A"/>
	<anchor x="161" y="0" name="bottom"/>
	<anchor x="161" y="692" name="top"/>
	<outline>
		<contour>
			<point x="41" y="687" type="line"/>
			<point x="41" y="672" type="line"/>
			<point x="158" y="664" type="line"/>
			<point x="151" y="671" type="line"/>
			<point x="151" y="3" type="line" smooth="yes"/>
			<point x="151" y="-73"/>
			<point x="116" y="-105"/>
			<point x="39" y="-105" type="curve" smooth="yes"/>
			<point x="25" y="-105"/>
			<point x="15" y="-104"/>
			<point x="3" y="-103" type="curve"/>
			<point x="1" y="-122" type="line"/>
			<point x="14" y="-123"/>
			<point x="26" y="-124"/>
			<point x="40" y="-124" type="curve" smooth="yes"/>
			<point x="122" y="-124"/>
			<point x="171" y="-90"/>
			<point x="171" y="3" type="curve" smooth="yes"/>
			<point x="171" y="671" type="line"/>
			<point x="164" y="663" type="line"/>
			<point x="271" y="677" type="line"/>
			<point x="271" y="692" type="line"/>
		</contour>
	</outline>
</glyph>
<glyph name="N" format="2">
	<advance width="812"/>
	<unicode hex="004E"/>
	<anchor x="413" y="0" name="bottom"/>
	<anchor x="420" y="692" name="top"/>
	<outline>
		<contour>
			<point x="544" y="687" type="line"/>
			<point x="544" y="672" type="line"/>
			<point x="651" y="665" type="line"/>
			<point x="644" y="672" type="line"/>
			<point x="644" y="30" type="line"/>
			<point x="648" y="31" type="line"/>
			<point x="186" y="692" type="line"/>
			<point x="61" y="687" type="line"/>
			<point x="61" y="672" type="line"/>
			<point x="168" y="663" type="line"/>
			<point x="161" y="671" type="line"/>
			<point x="161" y="21" type="line"/>
			<point x="168" y="29" type="line"/>
			<point x="61" y="15" type="line"/>
			<point x="61" y="0" type="line"/>
			<point x="281" y="0" type="line"/>
			<point x="281" y="15" type="line"/>
			<point x="174" y="29" type="line"/>
			<point x="181" y="21" type="line"/>
			<point x="181" y="670" type="line"/>
			<point x="177" y="669" type="line"/>
			<point x="644" y="0" type="line"/>
			<point x="664" y="0" type="line"/>
			<point x="664" y="671" type="line"/>
			<point x="657" y="663" type="line"/>
			<point x="764" y="677" type="line"/>
			<point x="764" y="692" type="line"/>
		</contour>
	</outline>
</glyph>
<glyph name="V" format="2">
	<advance width="677"/>
	<unicode hex="0056"/>
	<anchor x="338" y="0" name="bottom"/>
	<anchor x="338" y="692" name="top"/>
	<outline>
		<contour>
			<point x="323" y="-2" type="line"/>
			<point x="343" y="-2" type="line"/>
			<point x="578" y="670" type="line"/>
			<point x="569" y="663" type="line"/>
			<point x="671" y="677" type="line"/>
			<point x="671" y="692" type="line"/>
			<point x="439" y="687" type="line"/>
			<point x="439" y="672" type="line"/>
			<point x="561" y="664" type="line"/>
			<point x="558" y="670" type="line"/>
			<point x="331" y="19" type="line"/>
			<point x="336" y="19" type="line"/>
			<point x="120" y="670" type="line"/>
			<point x="117" y="663" type="line"/>
			<point x="239" y="677" type="line"/>
			<point x="239" y="692" type="line"/>
			<point x="6" y="687" type="line"/>
			<point x="6" y="672" type="line"/>
			<point x="108" y="663" type="line"/>
			<point x="99" y="670" type="line"/>
		</contour>
	</outline>
</glyph>
<glyph name="W" format="2">
	<advance width="1027"/>
	<unicode hex="0057"/>
	<anchor x="513" y="0" name="bottom"/>
	<anchor x="516" y="692" name="top"/>
	<outline>
		<contour>
			<point x="791" y="687" type="line"/>
			<point x="791" y="672" type="line"/>
			<point x="913" y="664" type="line"/>
			<point x="908" y="670" type="line"/>
			<point x="724" y="24" type="line"/>
			<point x="728" y="24" type="line"/>
			<point x="525" y="692" type="line"/>
			<point x="506" y="689" type="line"/>
			<point x="292" y="22" type="line"/>
			<point x="296" y="21" type="line"/>
			<point x="123" y="671" type="line"/>
			<point x="118" y="663" type="line"/>
			<point x="241" y="677" type="line"/>
			<point x="241" y="692" type="line"/>
			<point x="7" y="687" type="line"/>
			<point x="7" y="672" type="line"/>
			<point x="111" y="663" type="line"/>
			<point x="102" y="671" type="line"/>
			<point x="281" y="-2" type="line"/>
			<point x="304" y="-2" type="line"/>
			<point x="517" y="662" type="line"/>
			<point x="513" y="662" type="line"/>
			<point x="715" y="-2" type="line"/>
			<point x="736" y="-2" type="line"/>
			<point x="928" y="670" type="line"/>
			<point x="919" y="663" type="line"/>
			<point x="1020" y="677" type="line"/>
			<point x="1020" y="692" type="line"/>
		</contour>
	</outline>
</glyph>
<glyph name="X" format="2">
	<advance width="684"/>
	<unicode hex="0058"/>
	<outline>
		<contour>
			<point x="570" y="21" type="line"/>
			<point x="347" y="368" type="line"/>
			<point x="347" y="356" type="line"/>
			<point x="553" y="670" type="line"/>
			<point x="542" y="663" type="line"/>
			<point x="644" y="677" type="line"/>
			<point x="644" y="692" type="line"/>
			<point x="423" y="687" type="line"/>
			<point x="423" y="672" type="line"/>
			<point x="536" y="663" type="line"/>
			<point x="533" y="670" type="line"/>
			<point x="337" y="371" type="line"/>
			<point x="345" y="371" type="line"/>
			<point x="153" y="670" type="line"/>
			<point x="150" y="663" type="line"/>
			<point x="262" y="677" type="line"/>
			<point x="262" y="692" type="line"/>
			<point x="41" y="687" type="line"/>
			<point x="41" y="672" type="line"/>
			<point x="142" y="663" type="line"/>
			<point x="131" y="670" type="line"/>
			<point x="336" y="352" type="line"/>
			<point x="336" y="364" type="line"/>
			<point x="116" y="21" type="line"/>
			<point x="127" y="28" type="line"/>
			<point x="26" y="15" type="line"/>
			<point x="26" y="0" type="line"/>
			<point x="252" y="0" type="line"/>
			<point x="252" y="15" type="line"/>
			<point x="133" y="28" type="line"/>
			<point x="136" y="21" type="line"/>
			<point x="346" y="348" type="line"/>
			<point x="338" y="348" type="line"/>
			<point x="548" y="21" type="line"/>
			<point x="551" y="28" type="line"/>
			<point x="433" y="15" type="line"/>
			<point x="433" y="0" type="line"/>
			<point x="659" y="0" type="line"/>
			<point x="659" y="15" type="line"/>
			<point x="559" y="28" type="line"/>
		</contour>
	</outline>
</glyph>
<glyph name="Z" format="2">
	<advance width="610"/>
	<unicode hex="005A"/>
	<anchor x="303" y="0" name="bottom"/>
	<anchor x="307" y="692" name="top"/>
	<outline>
		<contour>
			<point x="54" y="0" type="line"/>
			<point x="545" y="0" type="line"/>
			<point x="549" y="145" type="line"/>
			<point x="534" y="145" type="line"/>
			<point x="515" y="13" type="line"/>
			<point x="527" y="20" type="line"/>
			<point x="76" y="20" type="line"/>
			<point x="79" y="14" type="line"/>
			<point x="542" y="676" type="line"/>
			<point x="542" y="692" type="line"/>
			<point x="77" y="692" type="line"/>
			<point x="77" y="547" type="line"/>
			<point x="92" y="547" type="line"/>
			<point x="108" y="679" type="line"/>
			<point x="99" y="672" type="line"/>
			<point x="522" y="672" type="line"/>
			<point x="519" y="678" type="line"/>
			<point x="54" y="16" type="line"/>
		</contour>
	</outline>
</glyph>
<glyph name="bracketleft" format="2">
	<advance width="341"/>
	<unicode hex="005B"/>
	<guideline x="120" y="838" angle="0"/>
	<guideline x="120" y="-94" angle="0"/>
	<outline>
		<contour>
			<point x="138" y="-94" type="line"/>
			<point x="322" y="-89" type="line"/>
			<point x="322" y="-73" type="line"/>
			<point x="158" y="-71" type="line"/>
			<point x="158" y="815" type="line"/>
			<point x="322" y="817" type="line"/>
			<point x="322" y="833" type="line"/>
			<point x="138" y="838" type="line"/>
		</contour>
	</outline>
</glyph>
<glyph name="backslash" format="2">
	<advance width="288"/>
	<unicode hex="005C"/>
	<outline>
		<contour>
			<point x="9" y="797" type="line"/>
			<point x="261" y="-74" type="line"/>
			<point x="280" y="-74" type="line"/>
			<point x="28" y="797" type="line"/>
		</contour>
	</outline>
</glyph>
<glyph name="e" format="2">
	<advance width="546"/>
	<unicode hex="0065"/>
	<anchor x="276" y="0" name="bottom"/>
	<anchor x="331" y="0" name="ogonek"/>
	<anchor x="286" y="522" name="top"/>
	<outline>
		<contour>
			<point x="276" y="-6" type="curve" smooth="yes"/>
			<point x="338" y="-6"/>
			<point x="408" y="17"/>
			<point x="480" y="67" type="curve"/>
			<point x="469" y="82" type="line"/>
			<point x="402" y="35"/>
			<point x="336" y="13"/>
			<point x="279" y="13" type="curve" smooth="yes"/>
			<point x="166" y="13"/>
			<point x="85" y="100"/>
			<point x="85" y="256" type="curve" smooth="yes"/>
			<point x="85" y="408"/>
			<point x="161" y="509"/>
			<point x="288" y="509" type="curve" smooth="yes"/>
			<point x="415" y="509"/>
			<point x="460" y="408"/>
			<point x="458" y="290" type="curve"/>
			<point x="467" y="296" type="line"/>
			<point x="73" y="296" type="line"/>
			<point x="73" y="277" type="line"/>
			<point x="478" y="277" type="line"/>
			<point x="479" y="291"/>
			<point x="479" y="298"/>
			<point x="479" y="305" type="curve" smooth="yes"/>
			<point x="479" y="436"/>
			<point x="414" y="528"/>
			<point x="288" y="528" type="curve" smooth="yes"/>
			<point x="152" y="528"/>
			<point x="64" y="420"/>
			<point x="64" y="254" type="curve" smooth="yes"/>
			<point x="64" y="87"/>
			<point x="153" y="-6"/>
		</contour>
	</outline>
</glyph>
<glyph name="f" format="2">
	<advance width="322"/>
	<unicode hex="0066"/>
	<outline>
		<contour>
			<point x="46" y="0" type="line"/>
			<point x="266" y="0" type="line"/>
			<point x="266" y="15" type="line"/>
			<point x="149" y="29" type="line"/>
			<point x="156" y="21" type="line"/>
			<point x="156" y="506" type="line"/>
			<point x="149" y="499" type="line"/>
			<point x="309" y="499" type="line"/>
			<point x="311" y="518" type="line"/>
			<point x="149" y="518" type="line"/>
			<point x="156" y="509" type="line"/>
			<point x="156" y="615" type="line" smooth="yes"/>
			<point x="156" y="705"/>
			<point x="201" y="749"/>
			<point x="278" y="749" type="curve" smooth="yes"/>
			<point x="306" y="749"/>
			<point x="336" y="743"/>
			<point x="371" y="733" type="curve"/>
			<point x="377" y="750" type="line"/>
			<point x="341" y="762"/>
			<point x="308" y="768"/>
			<point x="279" y="768" type="curve" smooth="yes"/>
			<point x="193" y="768"/>
			<point x="136" y="719"/>
			<point x="136" y="612" type="curve" smooth="yes"/>
			<point x="136" y="509" type="line"/>
			<point x="143" y="518" type="line"/>
			<point x="46" y="513" type="line"/>
			<point x="46" y="499" type="line"/>
			<point x="143" y="499" type="line"/>
			<point x="136" y="506" type="line"/>
			<point x="136" y="21" type="line"/>
			<point x="143" y="29" type="line"/>
			<point x="46" y="15" type="line"/>
		</contour>
	</outline>
</glyph>
<glyph name="l" format="2">
	<advance width="266"/>
	<unicode hex="006C"/>
	<guideline x="309" y="692" angle="90"/>
	<anchor x="133" y="0" name="bottom"/>
	<anchor x="300" y="385" name="center"/>
	<anchor x="120" y="740" name="top"/>
	<anchor x="251" y="762" name="topright"/>
	<outline>
		<contour>
			<point x="143" y="21" type="line"/>
			<point x="143" y="765" type="line"/>
			<point x="33" y="760" type="line"/>
			<point x="33" y="745" type="line"/>
			<point x="130" y="731" type="line"/>
			<point x="123" y="739" type="line"/>
			<point x="123" y="21" type="line"/>
			<point x="130" y="29" type="line"/>
			<point x="33" y="15" type="line"/>
			<point x="33" y="0" type="line"/>
			<point x="233" y="0" type="line"/>
			<point x="233" y="15" type="line"/>
			<point x="136" y="29" type="line"/>
		</contour>
	</outline>
</glyph>
<glyph name="o" format="2">
	<advance width="574"/>
	<unicode hex="006F"/>
	<guideline x="1097" y="522" angle="90"/>
	<anchor x="287" y="0" name="bottom"/>
	<anchor x="287" y="261" name="center"/>
	<anchor x="332" y="0" name="ogonek"/>
	<anchor x="287" y="522" name="top"/>
	<anchor x="445" y="522" name="topright"/>
	<outline>
		<contour>
			<point x="293" y="528" type="curve" smooth="yes"/>
			<point x="151" y="528"/>
			<point x="64" y="418"/>
			<point x="64" y="249" type="curve" smooth="yes"/>
			<point x="64" y="84"/>
			<point x="146" y="-6"/>
			<point x="277" y="-6" type="curve" smooth="yes"/>
			<point x="424" y="-6"/>
			<point x="511" y="106"/>
			<point x="511" y="270" type="curve" smooth="yes"/>
			<point x="511" y="432"/>
			<point x="426" y="528"/>
		</contour>
		<contour>
			<point x="291" y="509" type="curve" smooth="yes"/>
			<point x="414" y="509"/>
			<point x="490" y="418"/>
			<point x="490" y="267" type="curve" smooth="yes"/>
			<point x="490" y="116"/>
			<point x="413" y="13"/>
			<point x="279" y="13" type="curve" smooth="yes"/>
			<point x="158" y="13"/>
			<point x="85" y="98"/>
			<point x="85" y="251" type="curve" smooth="yes"/>
			<point x="85" y="407"/>
			<point x="161" y="509"/>
		</contour>
	</outline>
</glyph>
<glyph name="v" format="2">
	<advance width="509"/>
	<unicode hex="0076"/>
	<outline>
		<contour>
			<point x="323" y="520" type="line"/>
			<point x="323" y="505" type="line"/>
			<point x="428" y="498" type="line"/>
			<point x="423" y="504" type="line"/>
			<point x="248" y="12" type="line"/>
			<point x="252" y="12" type="line"/>
			<point x="85" y="504" type="line"/>
			<point x="80" y="497" type="line"/>
			<point x="190" y="510" type="line"/>
			<point x="190" y="525" type="line"/>
			<point x="-5" y="520" type="line"/>
			<point x="-5" y="505" type="line"/>
			<point x="72" y="495" type="line"/>
			<point x="63" y="504" type="line"/>
			<point x="237" y="-2" type="line"/>
			<point x="261" y="-2" type="line"/>
			<point x="443" y="504" type="line"/>
			<point x="434" y="495" type="line"/>
			<point x="514" y="510" type="line"/>
			<point x="514" y="525" type="line"/>
		</contour>
	</outline>
</glyph>
<glyph name="w" format="2">
	<advance width="767"/>
	<unicode hex="0077"/>
	<anchor x="383" y="0" name="bottom"/>
	<anchor x="383" y="522" name="top"/>
	<outline>
		<contour>
			<point x="582" y="520" type="line"/>
			<point x="582" y="505" type="line"/>
			<point x="689" y="497" type="line"/>
			<point x="683" y="504" type="line"/>
			<point x="542" y="12" type="line"/>
			<point x="547" y="12" type="line"/>
			<point x="398" y="526" type="line"/>
			<point x="368" y="522" type="line"/>
			<point x="218" y="12" type="line"/>
			<point x="222" y="12" type="line"/>
			<point x="85" y="505" type="line"/>
			<point x="80" y="497" type="line"/>
			<point x="189" y="510" type="line"/>
			<point x="189" y="525" type="line"/>
			<point x="-5" y="520" type="line"/>
			<point x="-5" y="505" type="line"/>
			<point x="72" y="495" type="line"/>
			<point x="63" y="505" type="line"/>
			<point x="207" y="-2" type="line"/>
			<point x="231" y="-2" type="line"/>
			<point x="386" y="512" type="line"/>
			<point x="381" y="512" type="line"/>
			<point x="532" y="-2" type="line"/>
			<point x="556" y="-2" type="line"/>
			<point x="704" y="505" type="line"/>
			<point x="695" y="496" type="line"/>
			<point x="772" y="510" type="line"/>
			<point x="772" y="525" type="line"/>
		</contour>
	</outline>
</glyph>
<glyph name="z" format="2">
	<advance width="458"/>
	<unicode hex="007A"/>
	<anchor x="229" y="0" name="bottom"/>
	<anchor x="229" y="522" name="top"/>
	<outline>
		<contour>
			<point x="405" y="116" type="line"/>
			<point x="390" y="116" type="line"/>
			<point x="376" y="10" type="line"/>
			<point x="386" y="19" type="line"/>
			<point x="64" y="18" type="line"/>
			<point x="68" y="11" type="line"/>
			<point x="400" y="506" type="line"/>
			<point x="400" y="522" type="line"/>
			<point x="57" y="522" type="line"/>
			<point x="58" y="419" type="line"/>
			<point x="73" y="419" type="line"/>
			<point x="86" y="513" type="line"/>
			<point x="76" y="504" type="line"/>
			<point x="384" y="504" type="line"/>
			<point x="380" y="511" type="line"/>
			<point x="46" y="15" type="line"/>
			<point x="46" y="0" type="line"/>
			<point x="406" y="1" type="line"/>
		</contour>
	</outline>
</glyph>
<glyph name="bar" format="2">
	<advance width="348"/>
	<unicode hex="007C"/>
	<guideline x="225" y="-91" angle="0"/>
	<guideline x="225" y="795" angle="0"/>
	<outline>
		<contour>
			<point x="164" y="795" type="line"/>
			<point x="164" y="-91" type="line"/>
			<point x="184" y="-91" type="line"/>
			<point x="184" y="795" type="line"/>
		</contour>
	</outline>
</glyph>
<glyph name="cent" format="2">
	<advance width="609"/>
	<unicode hex="00A2"/>
	<outline>
		<contour>
			<point x="507" y="181" type="curve"/>
			<point x="496" y="197" type="line"/>
			<point x="434" y="151"/>
			<point x="374" y="129"/>
			<point x="317" y="129" type="curve" smooth="yes"/>
			<point x="200" y="129"/>
			<point x="121" y="221"/>
			<point x="121" y="352" type="curve" smooth="yes"/>
			<point x="121" y="487"/>
			<point x="206" y="584"/>
			<point x="331" y="584" type="curve" smooth="yes"/>
			<point x="365" y="584"/>
			<point x="415" y="577"/>
			<point x="459" y="556" type="curve"/>
			<point x="470" y="457" type="line"/>
			<point x="489" y="457" type="line"/>
			<point x="492" y="561" type="line"/>
			<point x="446" y="589"/>
			<point x="387" y="603"/>
			<point x="321" y="603" type="curve"/>
			<point x="330" y="594" type="line"/>
			<point x="330" y="731" type="line"/>
			<point x="312" y="731" type="line"/>
			<point x="312" y="593" type="line"/>
			<point x="318" y="602" type="line"/>
			<point x="193" y="595"/>
			<point x="100" y="496"/>
			<point x="100" y="349" type="curve" smooth="yes"/>
			<point x="100" y="204"/>
			<point x="190" y="108"/>
			<point x="318" y="109" type="curve"/>
			<point x="312" y="118" type="line"/>
			<point x="312" y="-20" type="line"/>
			<point x="330" y="-20" type="line"/>
			<point x="330" y="118" type="line"/>
			<point x="325" y="109" type="line"/>
			<point x="383" y="112"/>
			<point x="444" y="134"/>
		</contour>
	</outline>
</glyph>
<glyph name="currency" format="2">
	<advance width="686"/>
	<unicode hex="00A4"/>
	<guideline x="412" y="499" angle="0"/>
	<outline>
		<contour>
			<point x="544" y="131" type="line"/>
			<point x="457" y="210" type="line"/>
			<point x="461" y="199" type="line"/>
			<point x="484" y="229"/>
			<point x="496" y="268"/>
			<point x="496" y="310" type="curve" smooth="yes"/>
			<point x="496" y="350"/>
			<point x="485" y="386"/>
			<point x="462" y="414" type="curve"/>
			<point x="459" y="403" type="line"/>
			<point x="542" y="479" type="line"/>
			<point x="530" y="493" type="line"/>
			<point x="448" y="416" type="line"/>
			<point x="459" y="418" type="line"/>
			<point x="435" y="444"/>
			<point x="399" y="460"/>
			<point x="351" y="460" type="curve" smooth="yes"/>
			<point x="299" y="460"/>
			<point x="259" y="441"/>
			<point x="232" y="412" type="curve"/>
			<point x="243" y="410" type="line"/>
			<point x="155" y="493" type="line"/>
			<point x="142" y="478" type="line"/>
			<point x="230" y="395" type="line"/>
			<point x="227" y="406" type="line"/>
			<point x="203" y="376"/>
			<point x="191" y="338"/>
			<point x="191" y="298" type="curve" smooth="yes"/>
			<point x="191" y="260"/>
			<point x="202" y="224"/>
			<point x="223" y="197" type="curve"/>
			<point x="227" y="208" type="line"/>
			<point x="142" y="129" type="line"/>
			<point x="154" y="115" type="line"/>
			<point x="239" y="194" type="line"/>
			<point x="228" y="192" type="line"/>
			<point x="252" y="164"/>
			<point x="291" y="146"/>
			<point x="340" y="146" type="curve" smooth="yes"/>
			<point x="390" y="146"/>
			<point x="430" y="165"/>
			<point x="456" y="194" type="curve"/>
			<point x="445" y="196" type="line"/>
			<point x="531" y="116" type="line"/>
		</contour>
		<contour>
			<point x="342" y="166" type="curve" smooth="yes"/>
			<point x="258" y="166"/>
			<point x="213" y="227"/>
			<point x="213" y="300" type="curve" smooth="yes"/>
			<point x="213" y="372"/>
			<point x="258" y="440"/>
			<point x="349" y="440" type="curve" smooth="yes"/>
			<point x="433" y="440"/>
			<point x="477" y="381"/>
			<point x="474" y="303" type="curve" smooth="yes"/>
			<point x="471" y="233"/>
			<point x="430" y="166"/>
		</contour>
	</outline>
</glyph>
<glyph name="ordfeminine" format="2">
	<advance width="437"/>
	<unicode hex="00AA"/>
	<guideline x="164" y="317" angle="0"/>
	<outline>
		<contour>
			<point x="329" y="335" type="line"/>
			<point x="329" y="601" type="line" smooth="yes"/>
			<point x="329" y="670"/>
			<point x="284" y="698"/>
			<point x="211" y="698" type="curve" smooth="yes"/>
			<point x="172" y="698"/>
			<point x="125" y="688"/>
			<point x="78" y="671" type="curve"/>
			<point x="84" y="594" type="line"/>
			<point x="99" y="594" type="line"/>
			<point x="107" y="670" type="line"/>
			<point x="99" y="658" type="line"/>
			<point x="139" y="672"/>
			<point x="177" y="679"/>
			<point x="210" y="679" type="curve" smooth="yes"/>
			<point x="270" y="679"/>
			<point x="309" y="655"/>
			<point x="309" y="599" type="curve" smooth="yes"/>
			<point x="309" y="517" type="line"/>
			<point x="314" y="522" type="line"/>
			<point x="196" y="522" type="line" smooth="yes"/>
			<point x="126" y="522"/>
			<point x="62" y="503"/>
			<point x="62" y="421" type="curve" smooth="yes"/>
			<point x="62" y="354"/>
			<point x="104" y="317"/>
			<point x="162" y="317" type="curve" smooth="yes"/>
			<point x="210" y="317"/>
			<point x="267" y="343"/>
			<point x="313" y="387" type="curve"/>
			<point x="310" y="389" type="line"/>
			<point x="313" y="320" type="line"/>
			<point x="392" y="322" type="line"/>
			<point x="392" y="336" type="line"/>
			<point x="319" y="346" type="line"/>
		</contour>
		<contour>
			<point x="83" y="421" type="curve" smooth="yes"/>
			<point x="83" y="503"/>
			<point x="166" y="503"/>
			<point x="198" y="503" type="curve" smooth="yes"/>
			<point x="314" y="503" type="line"/>
			<point x="309" y="511" type="line"/>
			<point x="309" y="392" type="line"/>
			<point x="313" y="406" type="line"/>
			<point x="263" y="363"/>
			<point x="206" y="337"/>
			<point x="161" y="337" type="curve" smooth="yes"/>
			<point x="115" y="337"/>
			<point x="83" y="370"/>
		</contour>
		<contour>
			<point x="62" y="201" type="line"/>
			<point x="392" y="201" type="line"/>
			<point x="392" y="220" type="line"/>
			<point x="62" y="220" type="line"/>
		</contour>
	</outline>
</glyph>
<glyph name="macron" format="2">
	<advance width="432"/>
	<unicode hex="00AF"/>
	<outline>
		<contour>
			<point x="331" y="702" type="line"/>
			<point x="101" y="702" type="line"/>
			<point x="101" y="681" type="line"/>
			<point x="331" y="681" type="line"/>
		</contour>
	</outline>
</glyph>
<glyph name="paragraph" format="2">
	<advance width="554"/>
	<unicode hex="00B6"/>
	<guideline x="306" y="-170" angle="0"/>
	<outline>
		<contour>
			<point x="130" y="-170" type="line"/>
			<point x="250" y="-170" type="line"/>
			<point x="250" y="681" type="line"/>
			<point x="243" y="672" type="line"/>
			<point x="362" y="673" type="line"/>
			<point x="355" y="681" type="line"/>
			<point x="355" y="-170" type="line"/>
			<point x="375" y="-170" type="line"/>
			<point x="375" y="671" type="line"/>
			<point x="368" y="663" type="line"/>
			<point x="475" y="677" type="line"/>
			<point x="475" y="692" type="line"/>
			<point x="250" y="692" type="line" smooth="yes"/>
			<point x="148" y="692"/>
			<point x="80" y="625"/>
			<point x="80" y="523" type="curve" smooth="yes"/>
			<point x="80" y="420"/>
			<point x="145" y="353"/>
			<point x="248" y="353" type="curve"/>
			<point x="230" y="371" type="line"/>
			<point x="230" y="-149" type="line"/>
			<point x="237" y="-141" type="line"/>
			<point x="130" y="-155" type="line"/>
		</contour>
	</outline>
</glyph>
<glyph name="cedilla" format="2">
	<advance width="322"/>
	<unicode hex="00B8"/>
	<outline>
		<contour>
			<point x="159" y="-212" type="curve" smooth="yes"/>
			<point x="210" y="-212"/>
			<point x="250" y="-188"/>
			<point x="250" y="-138" type="curve" smooth="yes"/>
			<point x="250" y="-102"/>
			<point x="229" y="-74"/>
			<point x="154" y="-68" type="curve"/>
			<point x="154" y="0" type="line"/>
			<point x="135" y="0" type="line"/>
			<point x="131" y="-87" type="line"/>
			<point x="198" y="-88"/>
			<point x="229" y="-106"/>
			<point x="229" y="-141" type="curve" smooth="yes"/>
			<point x="229" y="-175"/>
			<point x="198" y="-192"/>
			<point x="159" y="-192" type="curve" smooth="yes"/>
			<point x="138" y="-192"/>
			<point x="114" y="-187"/>
			<point x="94" y="-179" type="curve"/>
			<point x="86" y="-196" type="line"/>
			<point x="110" y="-207"/>
			<point x="136" y="-212"/>
		</contour>
	</outline>
</glyph>
<glyph name="ordmasculine" format="2">
	<advance width="490"/>
	<unicode hex="00BA"/>
	<guideline x="72" y="457" angle="90"/>
	<guideline x="418" y="457" angle="90"/>
	<guideline x="164" y="317" angle="0"/>
	<outline>
		<contour>
			<point x="236" y="315" type="curve" smooth="yes"/>
			<point x="350" y="315"/>
			<point x="418" y="403"/>
			<point x="418" y="515" type="curve" smooth="yes"/>
			<point x="418" y="623"/>
			<point x="354" y="698"/>
			<point x="250" y="698" type="curve" smooth="yes"/>
			<point x="139" y="698"/>
			<point x="72" y="613"/>
			<point x="72" y="497" type="curve" smooth="yes"/>
			<point x="72" y="386"/>
			<point x="134" y="315"/>
		</contour>
		<contour>
			<point x="82" y="201" type="line"/>
			<point x="408" y="201" type="line"/>
			<point x="408" y="220" type="line"/>
			<point x="82" y="220" type="line"/>
		</contour>
		<contour>
			<point x="239" y="334" type="curve" smooth="yes"/>
			<point x="146" y="334"/>
			<point x="93" y="398"/>
			<point x="93" y="500" type="curve" smooth="yes"/>
			<point x="93" y="602"/>
			<point x="147" y="679"/>
			<point x="248" y="679" type="curve" smooth="yes"/>
			<point x="342" y="679"/>
			<point x="397" y="612"/>
			<point x="397" y="512" type="curve" smooth="yes"/>
			<point x="397" y="412"/>
			<point x="341" y="334"/>
		</contour>
	</outline>
</glyph>
<glyph name="germandbls" format="2">
	<advance width="605"/>
	<unicode hex="00DF"/>
	<outline>
		<contour>
			<point x="326" y="416" type="curve" smooth="yes"/>
			<point x="326" y="531"/>
			<point x="509" y="498"/>
			<point x="509" y="630" type="curve" smooth="yes"/>
			<point x="509" y="721"/>
			<point x="427" y="768"/>
			<point x="334" y="768" type="curve" smooth="yes"/>
			<point x="219" y="768"/>
			<point x="136" y="712"/>
			<point x="136" y="589" type="curve" smooth="yes"/>
			<point x="136" y="510" type="line"/>
			<point x="143" y="518" type="line"/>
			<point x="46" y="513" type="line"/>
			<point x="46" y="499" type="line"/>
			<point x="143" y="499" type="line"/>
			<point x="136" y="506" type="line"/>
			<point x="136" y="21" type="line"/>
			<point x="143" y="29" type="line"/>
			<point x="46" y="15" type="line"/>
			<point x="46" y="0" type="line"/>
			<point x="156" y="0" type="line"/>
			<point x="156" y="590" type="line" smooth="yes"/>
			<point x="156" y="701"/>
			<point x="228" y="749"/>
			<point x="333" y="749" type="curve" smooth="yes"/>
			<point x="417" y="749"/>
			<point x="488" y="709"/>
			<point x="488" y="630" type="curve" smooth="yes"/>
			<point x="488" y="507"/>
			<point x="305" y="544"/>
			<point x="305" y="415" type="curve" smooth="yes"/>
			<point x="305" y="263"/>
			<point x="557" y="294"/>
			<point x="557" y="135" type="curve" smooth="yes"/>
			<point x="557" y="54"/>
			<point x="489" y="13"/>
			<point x="409" y="13" type="curve" smooth="yes"/>
			<point x="380" y="13"/>
			<point x="348" y="19"/>
			<point x="318" y="30" type="curve"/>
			<point x="323" y="20" type="line"/>
			<point x="314" y="126" type="line"/>
			<point x="298" y="127" type="line"/>
			<point x="291" y="14" type="line"/>
			<point x="329" y="1"/>
			<point x="368" y="-6"/>
			<point x="404" y="-6" type="curve" smooth="yes"/>
			<point x="500" y="-6"/>
			<point x="578" y="41"/>
			<point x="578" y="138" type="curve" smooth="yes"/>
			<point x="578" y="313"/>
			<point x="326" y="281"/>
		</contour>
	</outline>
</glyph>
<glyph name="dcroat" format="2">
	<advance width="583"/>
	<unicode hex="0111"/>
	<guideline x="551" y="316" angle="90"/>
	<outline>
		<contour>
			<point x="241" y="641" type="line"/>
			<point x="241" y="622" type="line"/>
			<point x="551" y="622" type="line"/>
			<point x="551" y="641" type="line"/>
		</contour>
		<contour>
			<point x="261" y="-6" type="curve" smooth="yes"/>
			<point x="319" y="-6"/>
			<point x="383" y="21"/>
			<point x="444" y="79" type="curve"/>
			<point x="440" y="82" type="line"/>
			<point x="445" y="-3" type="line"/>
			<point x="550" y="1" type="line"/>
			<point x="550" y="16" type="line"/>
			<point x="453" y="26" type="line"/>
			<point x="460" y="18" type="line"/>
			<point x="460" y="764" type="line"/>
			<point x="345" y="759" type="line"/>
			<point x="345" y="745" type="line"/>
			<point x="447" y="730" type="line"/>
			<point x="440" y="738" type="line"/>
			<point x="440" y="501" type="line"/>
			<point x="447" y="505" type="line"/>
			<point x="397" y="519"/>
			<point x="351" y="527"/>
			<point x="308" y="527" type="curve" smooth="yes"/>
			<point x="159" y="527"/>
			<point x="64" y="430"/>
			<point x="64" y="255" type="curve" smooth="yes"/>
			<point x="64" y="88"/>
			<point x="152" y="-6"/>
		</contour>
		<contour>
			<point x="263" y="13" type="curve" smooth="yes"/>
			<point x="164" y="13"/>
			<point x="85" y="101"/>
			<point x="85" y="256" type="curve" smooth="yes"/>
			<point x="85" y="416"/>
			<point x="168" y="508"/>
			<point x="308" y="508" type="curve" smooth="yes"/>
			<point x="349" y="508"/>
			<point x="395" y="500"/>
			<point x="445" y="483" type="curve"/>
			<point x="440" y="490" type="line"/>
			<point x="440" y="91" type="line"/>
			<point x="444" y="103" type="line"/>
			<point x="384" y="41"/>
			<point x="320" y="13"/>
		</contour>
	</outline>
</glyph>
<glyph name="idotless" format="2">
	<advance width="278"/>
	<unicode hex="0131"/>
	<guideline x="146" y="621" angle="90"/>
	<guideline x="634" y="621" angle="90"/>
	<anchor x="146" y="0" name="bottom"/>
	<anchor x="216" y="0" name="ogonek"/>
	<anchor x="139" y="522" name="top"/>
	<outline>
		<contour>
			<point x="156" y="21" type="line"/>
			<point x="156" y="525" type="line"/>
			<point x="46" y="520" type="line"/>
			<point x="46" y="505" type="line"/>
			<point x="143" y="491" type="line"/>
			<point x="136" y="499" type="line"/>
			<point x="136" y="21" type="line"/>
			<point x="143" y="29" type="line"/>
			<point x="46" y="15" type="line"/>
			<point x="46" y="0" type="line"/>
			<point x="246" y="0" type="line"/>
			<point x="246" y="15" type="line"/>
			<point x="149" y="29" type="line"/>
		</contour>
	</outline>
</glyph>
<glyph name="Lslash" format="2">
	<advance width="558"/>
	<unicode hex="0141"/>
	<guideline x="79" y="484" angle="90"/>
	<guideline x="69" y="484" angle="90"/>
	<outline>
		<contour>
			<point x="69" y="262" type="line"/>
			<point x="78" y="245" type="line"/>
			<point x="395" y="448" type="line"/>
			<point x="386" y="465" type="line"/>
		</contour>
		<contour>
			<point x="510" y="145" type="line"/>
			<point x="495" y="12" type="line"/>
			<point x="503" y="19" type="line"/>
			<point x="185" y="19" type="line"/>
			<point x="192" y="12" type="line"/>
			<point x="192" y="670" type="line"/>
			<point x="185" y="662" type="line"/>
			<point x="307" y="677" type="line"/>
			<point x="307" y="692" type="line"/>
			<point x="72" y="687" type="line"/>
			<point x="72" y="672" type="line"/>
			<point x="179" y="662" type="line"/>
			<point x="172" y="670" type="line"/>
			<point x="172" y="21" type="line"/>
			<point x="179" y="29" type="line"/>
			<point x="72" y="15" type="line"/>
			<point x="72" y="0" type="line"/>
			<point x="525" y="0" type="line"/>
			<point x="525" y="145" type="line"/>
		</contour>
	</outline>
</glyph>
<glyph name="oe" format="2">
	<advance width="972"/>
	<unicode hex="0153"/>
	<anchor x="486" y="0" name="bottom"/>
	<anchor x="486" y="522" name="top"/>
	<outline>
		<contour>
			<point x="279" y="-6" type="curve" smooth="yes"/>
			<point x="400" y="-6"/>
			<point x="473" y="69"/>
			<point x="500" y="179" type="curve"/>
			<point x="498" y="179" type="line"/>
			<point x="521" y="61"/>
			<point x="600" y="-6"/>
			<point x="703" y="-6" type="curve" smooth="yes"/>
			<point x="765" y="-6"/>
			<point x="835" y="18"/>
			<point x="906" y="67" type="curve"/>
			<point x="895" y="83" type="line"/>
			<point x="829" y="36"/>
			<point x="764" y="14"/>
			<point x="707" y="14" type="curve" smooth="yes"/>
			<point x="593" y="14"/>
			<point x="511" y="102"/>
			<point x="511" y="258" type="curve" smooth="yes"/>
			<point x="511" y="266"/>
			<point x="511" y="274"/>
			<point x="511" y="282" type="curve"/>
			<point x="504" y="277" type="line"/>
			<point x="904" y="277" type="line"/>
			<point x="905" y="293"/>
			<point x="905" y="296"/>
			<point x="905" y="304" type="curve" smooth="yes"/>
			<point x="905" y="435"/>
			<point x="840" y="528"/>
			<point x="714" y="528" type="curve" smooth="yes"/>
			<point x="605" y="528"/>
			<point x="528" y="458"/>
			<point x="501" y="346" type="curve"/>
			<point x="503" y="346" type="line"/>
			<point x="482" y="463"/>
			<point x="406" y="527"/>
			<point x="297" y="527" type="curve" smooth="yes"/>
			<point x="155" y="527"/>
			<point x="68" y="420"/>
			<point x="64" y="256" type="curve" smooth="yes"/>
			<point x="60" y="95"/>
			<point x="139" y="-6"/>
		</contour>
		<contour>
			<point x="280" y="13" type="curve" smooth="yes"/>
			<point x="153" y="13"/>
			<point x="85" y="106"/>
			<point x="85" y="251" type="curve" smooth="yes"/>
			<point x="85" y="408"/>
			<point x="165" y="509"/>
			<point x="297" y="508" type="curve" smooth="yes"/>
			<point x="425" y="507"/>
			<point x="490" y="409"/>
			<point x="490" y="268" type="curve" smooth="yes"/>
			<point x="490" y="113"/>
			<point x="412" y="13"/>
		</contour>
		<contour>
			<point x="513" y="289" type="line"/>
			<point x="522" y="421"/>
			<point x="595" y="509"/>
			<point x="712" y="509" type="curve" smooth="yes"/>
			<point x="843" y="509"/>
			<point x="884" y="399"/>
			<point x="883" y="289" type="curve"/>
			<point x="890" y="296" type="line"/>
			<point x="506" y="296" type="line"/>
		</contour>
	</outline>
</glyph>
<glyph name="jdotless" format="2">
	<advance width="251"/>
	<unicode hex="0237"/>
	<anchor x="125" y="522" name="top"/>
	<outline>
		<contour>
			<point x="10" y="-236" type="curve" smooth="yes"/>
			<point x="127" y="-236"/>
			<point x="142" y="-163"/>
			<point x="142" y="-68" type="curve" smooth="yes"/>
			<point x="142" y="525" type="line"/>
			<point x="32" y="520" type="line"/>
			<point x="32" y="505" type="line"/>
			<point x="129" y="491" type="line"/>
			<point x="122" y="499" type="line"/>
			<point x="122" y="-77" type="line" smooth="yes"/>
			<point x="122" y="-179"/>
			<point x="92" y="-217"/>
			<point x="12" y="-217" type="curve" smooth="yes"/>
			<point x="2" y="-217"/>
			<point x="-8" y="-216"/>
			<point x="-20" y="-215" type="curve"/>
			<point x="-22" y="-234" type="line"/>
			<point x="-10" y="-235"/>
			<point x="2" y="-236"/>
		</contour>
	</outline>
</glyph>
<glyph name="schwa" format="2">
	<advance width="546"/>
	<unicode hex="0259"/>
	<guideline x="241" y="277" angle="0"/>
	<outline>
		<contour>
			<point x="270" y="528" type="curve" smooth="yes"/>
			<point x="208" y="528"/>
			<point x="138" y="505"/>
			<point x="66" y="455" type="curve"/>
			<point x="77" y="440" type="line"/>
			<point x="144" y="487"/>
			<point x="210" y="509"/>
			<point x="267" y="509" type="curve" smooth="yes"/>
			<point x="380" y="509"/>
			<point x="461" y="422"/>
			<point x="461" y="266" type="curve" smooth="yes"/>
			<point x="461" y="114"/>
			<point x="385" y="13"/>
			<point x="258" y="13" type="curve" smooth="yes"/>
			<point x="131" y="13"/>
			<point x="86" y="118"/>
			<point x="88" y="240" type="curve"/>
			<point x="79" y="234" type="line"/>
			<point x="473" y="234" type="line"/>
			<point x="473" y="253" type="line"/>
			<point x="68" y="253" type="line"/>
			<point x="67" y="235"/>
			<point x="67" y="226"/>
			<point x="67" y="217" type="curve" smooth="yes"/>
			<point x="67" y="86"/>
			<point x="132" y="-6"/>
			<point x="258" y="-6" type="curve" smooth="yes"/>
			<point x="394" y="-6"/>
			<point x="482" y="102"/>
			<point x="482" y="268" type="curve" smooth="yes"/>
			<point x="482" y="435"/>
			<point x="393" y="528"/>
		</contour>
	</outline>
</glyph>
<glyph name="circumflex" format="2">
	<advance width="408"/>
	<unicode hex="02C6"/>
	<outline>
		<contour>
			<point x="81" y="637" type="line"/>
			<point x="208" y="741" type="line"/>
			<point x="199" y="741" type="line"/>
			<point x="330" y="637" type="line"/>
			<point x="342" y="650" type="line"/>
			<point x="211" y="764" type="line"/>
			<point x="196" y="764" type="line"/>
			<point x="69" y="650" type="line"/>
		</contour>
	</outline>
</glyph>
<glyph name="ring" format="2">
	<advance width="347"/>
	<unicode hex="02DA"/>
	<anchor x="172" y="522" name="_top"/>
	<outline>
		<contour>
			<point x="172" y="632" type="curve" smooth="yes"/>
			<point x="213" y="632"/>
			<point x="250" y="658"/>
			<point x="250" y="705" type="curve" smooth="yes"/>
			<point x="250" y="753"/>
			<point x="211" y="775"/>
			<point x="174" y="775" type="curve" smooth="yes"/>
			<point x="133" y="775"/>
			<point x="96" y="749"/>
			<point x="96" y="702" type="curve" smooth="yes"/>
			<point x="96" y="654"/>
			<point x="135" y="632"/>
		</contour>
		<contour>
			<point x="173" y="650" type="curve" smooth="yes"/>
			<point x="138" y="650"/>
			<point x="117" y="672"/>
			<point x="117" y="703" type="curve" smooth="yes"/>
			<point x="117" y="734"/>
			<point x="138" y="757"/>
			<point x="173" y="757" type="curve" smooth="yes"/>
			<point x="208" y="757"/>
			<point x="229" y="735"/>
			<point x="229" y="704" type="curve" smooth="yes"/>
			<point x="229" y="673"/>
			<point x="208" y="650"/>
		</contour>
	</outline>
</glyph>
<glyph name="gravecomb" format="2">
	<advance width="272"/>
	<unicode hex="0300"/>
	<anchor x="140" y="522" name="_top"/>
	<anchor x="150" y="692" name="top"/>
	<outline>
		<contour>
			<point x="71" y="772" type="line"/>
			<point x="52" y="749" type="line"/>
			<point x="210" y="634" type="line"/>
			<point x="220" y="647" type="line"/>
		</contour>
	</outline>
</glyph>
<glyph name="acutecomb" format="2">
	<advance width="289"/>
	<unicode hex="0301"/>
	<anchor x="133" y="522" name="_top"/>
	<anchor x="133" y="692" name="top"/>
	<outline>
		<contour>
			<point x="84" y="634" type="line"/>
			<point x="249" y="746" type="line"/>
			<point x="230" y="772" type="line"/>
			<point x="73" y="648" type="line"/>
		</contour>
	</outline>
</glyph>
<glyph name="dotaccentcomb" format="2">
	<advance width="108"/>
	<unicode hex="0307"/>
	<anchor x="54" y="692" name="_center"/>
	<anchor x="54" y="522" name="_top"/>
	<anchor x="54" y="722" name="top"/>
	<outline>
		<contour>
			<point x="53" y="663" type="curve" smooth="yes"/>
			<point x="68" y="663"/>
			<point x="80" y="673"/>
			<point x="80" y="692" type="curve" smooth="yes"/>
			<point x="80" y="710"/>
			<point x="70" y="722"/>
			<point x="54" y="722" type="curve" smooth="yes"/>
			<point x="39" y="722"/>
			<point x="28" y="711"/>
			<point x="28" y="692" type="curve" smooth="yes"/>
			<point x="28" y="674"/>
			<point x="38" y="663"/>
		</contour>
	</outline>
</glyph>
<glyph name="Lje-cy" format="2">
	<advance width="931"/>
	<unicode hex="0409"/>
	<outline>
		<contour>
			<point x="46" y="-6" type="curve" smooth="yes"/>
			<point x="255" y="-6"/>
			<point x="222" y="425"/>
			<point x="234" y="680" type="curve"/>
			<point x="227" y="672" type="line"/>
			<point x="505" y="673" type="line"/>
			<point x="498" y="681" type="line"/>
			<point x="498" y="21" type="line"/>
			<point x="505" y="29" type="line"/>
			<point x="398" y="15" type="line"/>
			<point x="398" y="0" type="line"/>
			<point x="631" y="0" type="line" smooth="yes"/>
			<point x="790" y="0"/>
			<point x="883" y="76"/>
			<point x="883" y="209" type="curve" smooth="yes"/>
			<point x="883" y="327"/>
			<point x="809" y="395"/>
			<point x="668" y="395" type="curve" smooth="yes"/>
			<point x="511" y="395" type="line"/>
			<point x="518" y="388" type="line"/>
			<point x="518" y="671" type="line"/>
			<point x="511" y="663" type="line"/>
			<point x="618" y="677" type="line"/>
			<point x="618" y="692" type="line"/>
			<point x="235" y="692" type="line"/>
			<point x="115" y="687" type="line"/>
			<point x="115" y="672" type="line"/>
			<point x="222" y="663" type="line"/>
			<point x="215" y="671" type="line"/>
			<point x="205" y="449"/>
			<point x="231" y="18"/>
			<point x="50" y="18" type="curve" smooth="yes"/>
			<point x="39" y="18"/>
			<point x="27" y="20"/>
			<point x="14" y="23" type="curve"/>
			<point x="10" y="-2" type="line"/>
			<point x="23" y="-5"/>
			<point x="36" y="-6"/>
		</contour>
		<contour>
			<point x="518" y="12" type="line"/>
			<point x="518" y="383" type="line"/>
			<point x="511" y="376" type="line"/>
			<point x="666" y="376" type="line" smooth="yes"/>
			<point x="794" y="376"/>
			<point x="861" y="315"/>
			<point x="861" y="208" type="curve" smooth="yes"/>
			<point x="861" y="88"/>
			<point x="777" y="19"/>
			<point x="632" y="19" type="curve" smooth="yes"/>
			<point x="511" y="19" type="line"/>
		</contour>
	</outline>
</glyph>
<glyph name="Tshe-cy" format="2">
	<advance width="777"/>
	<unicode hex="040B"/>
	<outline>
		<contour>
			<point x="164" y="0" type="line"/>
			<point x="394" y="0" type="line"/>
			<point x="394" y="15" type="line"/>
			<point x="282" y="29" type="line"/>
			<point x="289" y="21" type="line"/>
			<point x="289" y="357" type="line"/>
			<point x="281" y="348" type="line"/>
			<point x="361" y="373"/>
			<point x="430" y="387"/>
			<point x="484" y="387" type="curve" smooth="yes"/>
			<point x="583" y="387"/>
			<point x="637" y="340"/>
			<point x="637" y="221" type="curve" smooth="yes"/>
			<point x="637" y="21" type="line"/>
			<point x="644" y="29" type="line"/>
			<point x="537" y="15" type="line"/>
			<point x="537" y="0" type="line"/>
			<point x="757" y="0" type="line"/>
			<point x="757" y="15" type="line"/>
			<point x="650" y="29" type="line"/>
			<point x="657" y="21" type="line"/>
			<point x="657" y="225" type="line" smooth="yes"/>
			<point x="657" y="354"/>
			<point x="596" y="407"/>
			<point x="488" y="407" type="curve" smooth="yes"/>
			<point x="431" y="407"/>
			<point x="361" y="392"/>
			<point x="280" y="366" type="curve"/>
			<point x="289" y="363" type="line"/>
			<point x="289" y="680" type="line"/>
			<point x="282" y="673" type="line"/>
			<point x="513" y="673" type="line"/>
			<point x="505" y="680" type="line"/>
			<point x="520" y="552" type="line"/>
			<point x="535" y="552" type="line"/>
			<point x="535" y="692" type="line"/>
			<point x="33" y="692" type="line"/>
			<point x="33" y="552" type="line"/>
			<point x="48" y="552" type="line"/>
			<point x="63" y="680" type="line"/>
			<point x="55" y="673" type="line"/>
			<point x="276" y="673" type="line"/>
			<point x="269" y="680" type="line"/>
			<point x="269" y="21" type="line"/>
			<point x="276" y="29" type="line"/>
			<point x="164" y="15" type="line"/>
		</contour>
	</outline>
</glyph>
<glyph name="Be-cy" format="2">
	<advance width="621"/>
	<unicode hex="0411"/>
	<guideline x="342" y="391" angle="0"/>
	<outline>
		<contour>
			<point x="61" y="0" type="line"/>
			<point x="294" y="0" type="line" smooth="yes"/>
			<point x="453" y="0"/>
			<point x="546" y="75"/>
			<point x="546" y="208" type="curve" smooth="yes"/>
			<point x="546" y="326"/>
			<point x="472" y="393"/>
			<point x="331" y="393" type="curve" smooth="yes"/>
			<point x="174" y="393" type="line"/>
			<point x="181" y="386" type="line"/>
			<point x="181" y="680" type="line"/>
			<point x="174" y="673" type="line"/>
			<point x="469" y="673" type="line"/>
			<point x="461" y="680" type="line"/>
			<point x="476" y="547" type="line"/>
			<point x="491" y="547" type="line"/>
			<point x="491" y="692" type="line"/>
			<point x="182" y="692" type="line"/>
			<point x="61" y="687" type="line"/>
			<point x="61" y="672" type="line"/>
			<point x="168" y="663" type="line"/>
			<point x="161" y="670" type="line"/>
			<point x="161" y="21" type="line"/>
			<point x="168" y="29" type="line"/>
			<point x="61" y="15" type="line"/>
		</contour>
		<contour>
			<point x="181" y="12" type="line"/>
			<point x="181" y="381" type="line"/>
			<point x="174" y="374" type="line"/>
			<point x="329" y="374" type="line" smooth="yes"/>
			<point x="457" y="374"/>
			<point x="524" y="314"/>
			<point x="524" y="207" type="curve" smooth="yes"/>
			<point x="524" y="87"/>
			<point x="440" y="19"/>
			<point x="295" y="19" type="curve" smooth="yes"/>
			<point x="174" y="19" type="line"/>
		</contour>
	</outline>
</glyph>
<glyph name="Ge-cy" format="2">
	<advance width="557"/>
	<unicode hex="0413"/>
	<anchor x="286" y="0" name="bottomright"/>
	<anchor x="345" y="692" name="top"/>
	<outline>
		<contour>
			<point x="61" y="0" type="line"/>
			<point x="301" y="0" type="line"/>
			<point x="301" y="15" type="line"/>
			<point x="174" y="29" type="line"/>
			<point x="181" y="21" type="line"/>
			<point x="181" y="680" type="line"/>
			<point x="174" y="673" type="line"/>
			<point x="503" y="673" type="line"/>
			<point x="495" y="680" type="line"/>
			<point x="510" y="547" type="line"/>
			<point x="525" y="547" type="line"/>
			<point x="525" y="692" type="line"/>
			<point x="182" y="692" type="line"/>
			<point x="61" y="687" type="line"/>
			<point x="61" y="672" type="line"/>
			<point x="168" y="662" type="line"/>
			<point x="161" y="670" type="line"/>
			<point x="161" y="21" type="line"/>
			<point x="168" y="29" type="line"/>
			<point x="61" y="15" type="line"/>
		</contour>
	</outline>
</glyph>
<glyph name="De-cy" format="2">
	<advance width="658"/>
	<unicode hex="0414"/>
	<outline>
		<contour>
			<point x="76" y="12" type="curve"/>
			<point x="71" y="19" type="line"/>
			<point x="483" y="19" type="line"/>
			<point x="476" y="11" type="line"/>
			<point x="476" y="681" type="line"/>
			<point x="483" y="673" type="line"/>
			<point x="203" y="672" type="line"/>
			<point x="210" y="681" type="line"/>
			<point x="210" y="204"/>
			<point x="170" y="80"/>
		</contour>
		<contour>
			<point x="50" y="13" type="line"/>
			<point x="162" y="94"/>
			<point x="186" y="242"/>
			<point x="190" y="671" type="curve"/>
			<point x="197" y="663" type="line"/>
			<point x="90" y="672" type="line"/>
			<point x="90" y="687" type="line"/>
			<point x="210" y="692" type="line"/>
			<point x="596" y="692" type="line"/>
			<point x="596" y="677" type="line"/>
			<point x="489" y="663" type="line"/>
			<point x="496" y="671" type="line"/>
			<point x="496" y="11" type="line"/>
			<point x="489" y="19" type="line"/>
			<point x="605" y="19" type="line"/>
			<point x="604" y="-163" type="line"/>
			<point x="589" y="-163" type="line"/>
			<point x="573" y="3" type="line"/>
			<point x="577" y="0" type="line"/>
			<point x="38" y="0" type="line"/>
			<point x="42" y="3" type="line"/>
			<point x="25" y="-163" type="line"/>
			<point x="10" y="-163" type="line"/>
			<point x="10" y="19" type="line"/>
			<point x="67" y="19" type="line"/>
		</contour>
	</outline>
</glyph>
<glyph name="Pe-cy" format="2">
	<advance width="784"/>
	<unicode hex="041F"/>
	<anchor x="724" y="0" name="bottomright"/>
	<outline>
		<contour>
			<point x="61" y="0" type="line"/>
			<point x="281" y="0" type="line"/>
			<point x="281" y="15" type="line"/>
			<point x="174" y="29" type="line"/>
			<point x="181" y="21" type="line"/>
			<point x="181" y="681" type="line"/>
			<point x="174" y="672" type="line"/>
			<point x="611" y="673" type="line"/>
			<point x="604" y="681" type="line"/>
			<point x="604" y="21" type="line"/>
			<point x="611" y="29" type="line"/>
			<point x="504" y="15" type="line"/>
			<point x="504" y="0" type="line"/>
			<point x="724" y="0" type="line"/>
			<point x="724" y="15" type="line"/>
			<point x="617" y="29" type="line"/>
			<point x="624" y="21" type="line"/>
			<point x="624" y="671" type="line"/>
			<point x="617" y="663" type="line"/>
			<point x="724" y="677" type="line"/>
			<point x="724" y="692" type="line"/>
			<point x="181" y="692" type="line"/>
			<point x="61" y="687" type="line"/>
			<point x="61" y="672" type="line"/>
			<point x="168" y="663" type="line"/>
			<point x="161" y="671" type="line"/>
			<point x="161" y="21" type="line"/>
			<point x="168" y="29" type="line"/>
			<point x="61" y="15" type="line"/>
		</contour>
	</outline>
</glyph>
<glyph name="U-cy" format="2">
	<advance width="665"/>
	<unicode hex="0423"/>
	<anchor x="340" y="692" name="top"/>
	<outline>
		<contour>
			<point x="127" y="9" type="line"/>
			<point x="154" y="-1"/>
			<point x="178" y="-6"/>
			<point x="198" y="-6" type="curve" smooth="yes"/>
			<point x="278" y="-6"/>
			<point x="317" y="65"/>
			<point x="366" y="183" type="curve" smooth="yes"/>
			<point x="568" y="671" type="line"/>
			<point x="558" y="663" type="line"/>
			<point x="660" y="677" type="line"/>
			<point x="660" y="692" type="line"/>
			<point x="428" y="687" type="line"/>
			<point x="428" y="672" type="line"/>
			<point x="550" y="664" type="line"/>
			<point x="548" y="671" type="line"/>
			<point x="341" y="169" type="line"/>
			<point x="343" y="169" type="line"/>
			<point x="122" y="670" type="line"/>
			<point x="119" y="663" type="line"/>
			<point x="241" y="677" type="line"/>
			<point x="241" y="692" type="line"/>
			<point x="8" y="687" type="line"/>
			<point x="8" y="672" type="line"/>
			<point x="109" y="664" type="line"/>
			<point x="101" y="670" type="line"/>
			<point x="334" y="142" type="line"/>
			<point x="333" y="155" type="line"/>
			<point x="300" y="70"/>
			<point x="262" y="13"/>
			<point x="196" y="13" type="curve" smooth="yes"/>
			<point x="177" y="13"/>
			<point x="157" y="18"/>
			<point x="134" y="27" type="curve"/>
		</contour>
	</outline>
</glyph>
<glyph name="Shcha-cy" format="2">
	<advance width="983"/>
	<unicode hex="0429"/>
	<guideline x="814" y="19" angle="0"/>
	<outline>
		<contour>
			<point x="914" y="-163" type="line"/>
			<point x="929" y="-163" type="line"/>
			<point x="929" y="19" type="line"/>
			<point x="812" y="19" type="line"/>
			<point x="821" y="9" type="line"/>
			<point x="821" y="671" type="line"/>
			<point x="814" y="663" type="line"/>
			<point x="921" y="677" type="line"/>
			<point x="921" y="692" type="line"/>
			<point x="701" y="687" type="line"/>
			<point x="701" y="672" type="line"/>
			<point x="808" y="664" type="line"/>
			<point x="801" y="671" type="line"/>
			<point x="801" y="11" type="line"/>
			<point x="808" y="19" type="line"/>
			<point x="494" y="19" type="line"/>
			<point x="501" y="11" type="line"/>
			<point x="501" y="671" type="line"/>
			<point x="494" y="663" type="line"/>
			<point x="601" y="677" type="line"/>
			<point x="601" y="692" type="line"/>
			<point x="381" y="687" type="line"/>
			<point x="381" y="672" type="line"/>
			<point x="488" y="663" type="line"/>
			<point x="481" y="671" type="line"/>
			<point x="481" y="12" type="line"/>
			<point x="487" y="19" type="line"/>
			<point x="174" y="19" type="line"/>
			<point x="181" y="11" type="line"/>
			<point x="181" y="671" type="line"/>
			<point x="174" y="663" type="line"/>
			<point x="281" y="677" type="line"/>
			<point x="281" y="692" type="line"/>
			<point x="61" y="687" type="line"/>
			<point x="61" y="672" type="line"/>
			<point x="168" y="663" type="line"/>
			<point x="161" y="671" type="line"/>
			<point x="161" y="21" type="line"/>
			<point x="168" y="29" type="line"/>
			<point x="61" y="15" type="line"/>
			<point x="61" y="0" type="line"/>
			<point x="902" y="0" type="line"/>
			<point x="898" y="3" type="line"/>
		</contour>
	</outline>
</glyph>
<glyph name="Yeru-cy" format="2">
	<advance width="869"/>
	<unicode hex="042B"/>
	<anchor x="435" y="692" name="top"/>
	<outline>
		<contour>
			<point x="61" y="0" type="line"/>
			<point x="284" y="0" type="line" smooth="yes"/>
			<point x="443" y="0"/>
			<point x="536" y="76"/>
			<point x="536" y="213" type="curve" smooth="yes"/>
			<point x="536" y="335"/>
			<point x="462" y="403"/>
			<point x="321" y="403" type="curve" smooth="yes"/>
			<point x="174" y="403" type="line"/>
			<point x="181" y="396" type="line"/>
			<point x="181" y="670" type="line"/>
			<point x="174" y="663" type="line"/>
			<point x="281" y="677" type="line"/>
			<point x="281" y="692" type="line"/>
			<point x="61" y="687" type="line"/>
			<point x="61" y="672" type="line"/>
			<point x="168" y="663" type="line"/>
			<point x="161" y="670" type="line"/>
			<point x="161" y="21" type="line"/>
			<point x="168" y="29" type="line"/>
			<point x="61" y="15" type="line"/>
		</contour>
		<contour>
			<point x="181" y="12" type="line"/>
			<point x="181" y="391" type="line"/>
			<point x="174" y="384" type="line"/>
			<point x="319" y="384" type="line" smooth="yes"/>
			<point x="447" y="384"/>
			<point x="514" y="323"/>
			<point x="514" y="212" type="curve" smooth="yes"/>
			<point x="514" y="88"/>
			<point x="430" y="19"/>
			<point x="285" y="19" type="curve" smooth="yes"/>
			<point x="174" y="19" type="line"/>
		</contour>
		<contour>
			<point x="809" y="677" type="line"/>
			<point x="809" y="692" type="line"/>
			<point x="589" y="687" type="line"/>
			<point x="589" y="672" type="line"/>
			<point x="696" y="663" type="line"/>
			<point x="689" y="671" type="line"/>
			<point x="689" y="21" type="line"/>
			<point x="696" y="29" type="line"/>
			<point x="589" y="15" type="line"/>
			<point x="589" y="0" type="line"/>
			<point x="809" y="0" type="line"/>
			<point x="809" y="15" type="line"/>
			<point x="702" y="29" type="line"/>
			<point x="709" y="21" type="line"/>
			<point x="709" y="671" type="line"/>
			<point x="702" y="663" type="line"/>
		</contour>
	</outline>
</glyph>
<glyph name="Iu-cy" format="2">
	<advance width="994"/>
	<unicode hex="042E"/>
	<outline>
		<contour>
			<point x="616" y="-6" type="curve" smooth="yes"/>
			<point x="777" y="-6"/>
			<point x="916" y="123"/>
			<point x="916" y="357" type="curve" smooth="yes"/>
			<point x="916" y="591"/>
			<point x="775" y="698"/>
			<point x="628" y="698" type="curve" smooth="yes"/>
			<point x="476" y="698"/>
			<point x="331" y="581"/>
			<point x="331" y="341" type="curve" smooth="yes"/>
			<point x="331" y="107"/>
			<point x="468" y="-6"/>
		</contour>
		<contour>
			<point x="61" y="0" type="line"/>
			<point x="281" y="0" type="line"/>
			<point x="281" y="15" type="line"/>
			<point x="174" y="29" type="line"/>
			<point x="181" y="21" type="line"/>
			<point x="181" y="349" type="line"/>
			<point x="174" y="342" type="line"/>
			<point x="336" y="342" type="line"/>
			<point x="336" y="361" type="line"/>
			<point x="174" y="361" type="line"/>
			<point x="181" y="354" type="line"/>
			<point x="181" y="671" type="line"/>
			<point x="174" y="663" type="line"/>
			<point x="281" y="677" type="line"/>
			<point x="281" y="692" type="line"/>
			<point x="61" y="687" type="line"/>
			<point x="61" y="672" type="line"/>
			<point x="168" y="663" type="line"/>
			<point x="161" y="671" type="line"/>
			<point x="161" y="21" type="line"/>
			<point x="168" y="29" type="line"/>
			<point x="61" y="15" type="line"/>
		</contour>
		<contour>
			<point x="617" y="14" type="curve" smooth="yes"/>
			<point x="480" y="14"/>
			<point x="353" y="121"/>
			<point x="353" y="342" type="curve" smooth="yes"/>
			<point x="353" y="568"/>
			<point x="486" y="678"/>
			<point x="627" y="678" type="curve" smooth="yes"/>
			<point x="768" y="678"/>
			<point x="894" y="570"/>
			<point x="894" y="353" type="curve" smooth="yes"/>
			<point x="894" y="129"/>
			<point x="761" y="14"/>
		</contour>
	</outline>
</glyph>
<glyph name="be-cy" format="2">
	<advance width="581"/>
	<unicode hex="0431"/>
	<outline>
		<contour>
			<point x="302" y="-6" type="curve" smooth="yes"/>
			<point x="431" y="-6"/>
			<point x="521" y="80"/>
			<point x="521" y="242" type="curve" smooth="yes"/>
			<point x="521" y="406"/>
			<point x="428" y="488"/>
			<point x="315" y="488" type="curve" smooth="yes"/>
			<point x="245" y="488"/>
			<point x="166" y="456"/>
			<point x="97" y="392" type="curve"/>
			<point x="96" y="370" type="line"/>
			<point x="166" y="435"/>
			<point x="245" y="468"/>
			<point x="315" y="468" type="curve" smooth="yes"/>
			<point x="418" y="468"/>
			<point x="500" y="395.006"/>
			<point x="500" y="244" type="curve" smooth="yes"/>
			<point x="500" y="102"/>
			<point x="427" y="13"/>
			<point x="304" y="13" type="curve" smooth="yes"/>
			<point x="123" y="13"/>
			<point x="102" y="205"/>
			<point x="102" y="340" type="curve" smooth="yes"/>
			<point x="102" y="684"/>
			<point x="238" y="711"/>
			<point x="493" y="716" type="curve"/>
			<point x="491" y="812" type="line"/>
			<point x="474" y="812" type="line"/>
			<point x="463" y="726" type="line"/>
			<point x="471" y="736" type="line"/>
			<point x="213" y="731"/>
			<point x="81" y="670"/>
			<point x="81" y="345" type="curve" smooth="yes"/>
			<point x="81" y="134"/>
			<point x="137" y="-6"/>
		</contour>
	</outline>
</glyph>
<glyph name="ge-cy" format="2">
	<advance width="443"/>
	<unicode hex="0433"/>
	<anchor x="261" y="0" name="bottomright"/>
	<anchor x="238" y="522" name="top"/>
	<outline>
		<contour>
			<point x="426" y="522" type="line"/>
			<point x="151" y="522" type="line"/>
			<point x="46" y="520" type="line"/>
			<point x="46" y="505" type="line"/>
			<point x="143" y="491" type="line"/>
			<point x="136" y="499" type="line"/>
			<point x="136" y="21" type="line"/>
			<point x="143" y="29" type="line"/>
			<point x="46" y="15" type="line"/>
			<point x="46" y="0" type="line"/>
			<point x="271" y="0" type="line"/>
			<point x="271" y="15" type="line"/>
			<point x="149" y="29" type="line"/>
			<point x="156" y="21" type="line"/>
			<point x="156" y="514" type="line"/>
			<point x="152" y="503" type="line"/>
			<point x="402" y="503" type="line"/>
			<point x="397" y="512" type="line"/>
			<point x="410" y="388" type="line"/>
			<point x="425" y="388" type="line"/>
		</contour>
	</outline>
</glyph>
<glyph name="ii-cy" format="2">
	<advance width="648"/>
	<unicode hex="0438"/>
	<anchor x="603" y="0" name="bottomright"/>
	<anchor x="323" y="522" name="top"/>
	<outline>
		<contour>
			<point x="45" y="0" type="line"/>
			<point x="245" y="0" type="line"/>
			<point x="245" y="15" type="line"/>
			<point x="148" y="29" type="line"/>
			<point x="155" y="21" type="line"/>
			<point x="155" y="61" type="line"/>
			<point x="147" y="46" type="line"/>
			<point x="502" y="456" type="line"/>
			<point x="493" y="452" type="line"/>
			<point x="493" y="21" type="line"/>
			<point x="500" y="29" type="line"/>
			<point x="403" y="15" type="line"/>
			<point x="403" y="0" type="line"/>
			<point x="603" y="0" type="line"/>
			<point x="603" y="15" type="line"/>
			<point x="506" y="29" type="line"/>
			<point x="513" y="21" type="line"/>
			<point x="513" y="502" type="line"/>
			<point x="505" y="495" type="line"/>
			<point x="603" y="511" type="line"/>
			<point x="603" y="525" type="line"/>
			<point x="403" y="520" type="line"/>
			<point x="403" y="506" type="line"/>
			<point x="499" y="495" type="line"/>
			<point x="493" y="502" type="line"/>
			<point x="493" y="465" type="line"/>
			<point x="502" y="482" type="line"/>
			<point x="147" y="72" type="line"/>
			<point x="155" y="74" type="line"/>
			<point x="155" y="502" type="line"/>
			<point x="147" y="495" type="line"/>
			<point x="245" y="511" type="line"/>
			<point x="245" y="525" type="line"/>
			<point x="45" y="520" type="line"/>
			<point x="45" y="506" type="line"/>
			<point x="141" y="495" type="line"/>
			<point x="135" y="502" type="line"/>
			<point x="135" y="21" type="line"/>
			<point x="142" y="29" type="line"/>
			<point x="45" y="15" type="line"/>
		</contour>
	</outline>
</glyph>
<glyph name="ka-cy" format="2">
	<advance width="562"/>
	<unicode hex="043A"/>
	<anchor x="559" y="0" name="bottomright"/>
	<anchor x="232" y="273" name="center"/>
	<anchor x="318" y="522" name="top"/>
	<outline>
		<contour>
			<point x="45" y="0" type="line"/>
			<point x="259" y="0" type="line"/>
			<point x="259" y="15" type="line"/>
			<point x="148" y="29" type="line"/>
			<point x="155" y="21" type="line"/>
			<point x="155" y="270" type="line"/>
			<point x="148" y="263" type="line"/>
			<point x="303" y="263" type="line"/>
			<point x="292" y="269" type="line"/>
			<point x="467" y="0" type="line"/>
			<point x="559" y="0" type="line"/>
			<point x="559" y="14" type="line"/>
			<point x="469" y="28" type="line"/>
			<point x="475" y="24" type="line"/>
			<point x="304" y="284" type="line"/>
			<point x="307" y="272" type="line"/>
			<point x="435" y="502" type="line"/>
			<point x="425" y="495" type="line"/>
			<point x="521" y="511" type="line"/>
			<point x="521" y="525" type="line"/>
			<point x="322" y="520" type="line"/>
			<point x="322" y="506" type="line"/>
			<point x="419" y="495" type="line"/>
			<point x="416" y="502" type="line"/>
			<point x="288" y="276" type="line"/>
			<point x="298" y="282" type="line"/>
			<point x="148" y="282" type="line"/>
			<point x="155" y="275" type="line"/>
			<point x="155" y="502" type="line"/>
			<point x="147" y="495" type="line"/>
			<point x="245" y="511" type="line"/>
			<point x="245" y="525" type="line"/>
			<point x="45" y="520" type="line"/>
			<point x="45" y="506" type="line"/>
			<point x="141" y="495" type="line"/>
			<point x="135" y="502" type="line"/>
			<point x="135" y="21" type="line"/>
			<point x="142" y="29" type="line"/>
			<point x="45" y="15" type="line"/>
		</contour>
	</outline>
</glyph>
<glyph name="em-cy" format="2">
	<advance width="757"/>
	<unicode hex="043C"/>
	<guideline x="697" y="325" angle="90"/>
	<anchor x="712" y="0" name="bottomright"/>
	<outline>
		<contour>
			<point x="146" y="513" type="line"/>
			<point x="368" y="76" type="line"/>
			<point x="385" y="79" type="line"/>
			<point x="607" y="507" type="line"/>
			<point x="602" y="507" type="line"/>
			<point x="602" y="21" type="line"/>
			<point x="609" y="29" type="line"/>
			<point x="512" y="15" type="line"/>
			<point x="512" y="0" type="line"/>
			<point x="712" y="0" type="line"/>
			<point x="712" y="15" type="line"/>
			<point x="615" y="29" type="line"/>
			<point x="622" y="21" type="line"/>
			<point x="622" y="501" type="line"/>
			<point x="616" y="494" type="line"/>
			<point x="712" y="511" type="line"/>
			<point x="712" y="525" type="line"/>
			<point x="594" y="520" type="line"/>
			<point x="373" y="94" type="line"/>
			<point x="380" y="94" type="line"/>
			<point x="161" y="525" type="line"/>
			<point x="45" y="520" type="line"/>
			<point x="45" y="506" type="line"/>
			<point x="142" y="492" type="line"/>
			<point x="135" y="499" type="line"/>
			<point x="135" y="21" type="line"/>
			<point x="142" y="29" type="line"/>
			<point x="45" y="15" type="line"/>
			<point x="45" y="0" type="line"/>
			<point x="244" y="0" type="line"/>
			<point x="244" y="15" type="line"/>
			<point x="148" y="29" type="line"/>
			<point x="154" y="21" type="line"/>
			<point x="154" y="513" type="line"/>
		</contour>
	</outline>
</glyph>
<glyph name="en-cy" format="2">
	<advance width="651"/>
	<unicode hex="043D"/>
	<anchor x="606" y="0" name="bottomright"/>
	<outline>
		<contour>
			<point x="45" y="0" type="line"/>
			<point x="245" y="0" type="line"/>
			<point x="245" y="15" type="line"/>
			<point x="148" y="29" type="line"/>
			<point x="155" y="21" type="line"/>
			<point x="155" y="272" type="line"/>
			<point x="147" y="265" type="line"/>
			<point x="505" y="265" type="line"/>
			<point x="496" y="272" type="line"/>
			<point x="496" y="21" type="line"/>
			<point x="503" y="29" type="line"/>
			<point x="406" y="15" type="line"/>
			<point x="406" y="0" type="line"/>
			<point x="606" y="0" type="line"/>
			<point x="606" y="15" type="line"/>
			<point x="509" y="29" type="line"/>
			<point x="516" y="21" type="line"/>
			<point x="516" y="502" type="line"/>
			<point x="508" y="495" type="line"/>
			<point x="606" y="511" type="line"/>
			<point x="606" y="525" type="line"/>
			<point x="406" y="520" type="line"/>
			<point x="406" y="506" type="line"/>
			<point x="502" y="495" type="line"/>
			<point x="496" y="502" type="line"/>
			<point x="496" y="278" type="line"/>
			<point x="505" y="284" type="line"/>
			<point x="147" y="284" type="line"/>
			<point x="155" y="278" type="line"/>
			<point x="155" y="502" type="line"/>
			<point x="147" y="495" type="line"/>
			<point x="245" y="511" type="line"/>
			<point x="245" y="525" type="line"/>
			<point x="45" y="520" type="line"/>
			<point x="45" y="506" type="line"/>
			<point x="141" y="495" type="line"/>
			<point x="135" y="502" type="line"/>
			<point x="135" y="21" type="line"/>
			<point x="142" y="29" type="line"/>
			<point x="45" y="15" type="line"/>
		</contour>
	</outline>
</glyph>
<glyph name="pe-cy" format="2">
	<advance width="645"/>
	<unicode hex="043F"/>
	<anchor x="600" y="0" name="bottomright"/>
	<outline>
		<contour>
			<point x="45" y="0" type="line"/>
			<point x="245" y="0" type="line"/>
			<point x="245" y="15" type="line"/>
			<point x="148" y="29" type="line"/>
			<point x="155" y="21" type="line"/>
			<point x="155" y="512" type="line"/>
			<point x="147" y="504" type="line"/>
			<point x="499" y="503" type="line"/>
			<point x="490" y="512" type="line"/>
			<point x="490" y="21" type="line"/>
			<point x="497" y="29" type="line"/>
			<point x="400" y="15" type="line"/>
			<point x="400" y="0" type="line"/>
			<point x="600" y="0" type="line"/>
			<point x="600" y="15" type="line"/>
			<point x="503" y="29" type="line"/>
			<point x="510" y="21" type="line"/>
			<point x="510" y="499" type="line"/>
			<point x="502" y="492" type="line"/>
			<point x="600" y="508" type="line"/>
			<point x="600" y="522" type="line"/>
			<point x="147" y="522" type="line"/>
			<point x="45" y="520" type="line"/>
			<point x="45" y="506" type="line"/>
			<point x="141" y="495" type="line"/>
			<point x="135" y="502" type="line"/>
			<point x="135" y="21" type="line"/>
			<point x="142" y="29" type="line"/>
			<point x="45" y="15" type="line"/>
		</contour>
	</outline>
</glyph>
<glyph name="tse-cy" format="2">
	<advance width="637"/>
	<unicode hex="0446"/>
	<guideline x="239" y="-150" angle="0"/>
	<outline>
		<contour>
			<point x="607" y="17" type="line"/>
			<point x="488" y="29" type="line"/>
			<point x="497" y="21" type="line"/>
			<point x="497" y="502" type="line"/>
			<point x="489" y="495" type="line"/>
			<point x="587" y="511" type="line"/>
			<point x="587" y="525" type="line"/>
			<point x="387" y="520" type="line"/>
			<point x="387" y="506" type="line"/>
			<point x="483" y="495" type="line"/>
			<point x="477" y="502" type="line"/>
			<point x="477" y="13" type="line"/>
			<point x="486" y="19" type="line"/>
			<point x="148" y="19" type="line"/>
			<point x="156" y="13" type="line"/>
			<point x="156" y="502" type="line"/>
			<point x="148" y="495" type="line"/>
			<point x="246" y="511" type="line"/>
			<point x="246" y="525" type="line"/>
			<point x="46" y="520" type="line"/>
			<point x="46" y="506" type="line"/>
			<point x="142" y="495" type="line"/>
			<point x="136" y="502" type="line"/>
			<point x="136" y="21" type="line"/>
			<point x="143" y="29" type="line"/>
			<point x="46" y="15" type="line"/>
			<point x="46" y="0" type="line"/>
			<point x="583" y="0" type="line"/>
			<point x="576" y="7" type="line"/>
			<point x="591" y="-145" type="line"/>
			<point x="607" y="-145" type="line"/>
		</contour>
	</outline>
</glyph>
<glyph name="hardsign-cy" format="2">
	<advance width="563"/>
	<unicode hex="044A"/>
	<outline>
		<contour>
			<point x="110" y="0" type="line"/>
			<point x="317" y="0" type="line" smooth="yes"/>
			<point x="468" y="0"/>
			<point x="532" y="65"/>
			<point x="532" y="164" type="curve" smooth="yes"/>
			<point x="532" y="261"/>
			<point x="470" y="319"/>
			<point x="358" y="319" type="curve" smooth="yes"/>
			<point x="218" y="319" type="line"/>
			<point x="224" y="313" type="line"/>
			<point x="224" y="502" type="line"/>
			<point x="216" y="495" type="line"/>
			<point x="324" y="508" type="line"/>
			<point x="324" y="522" type="line"/>
			<point x="19" y="522" type="line"/>
			<point x="19" y="398" type="line"/>
			<point x="34" y="398" type="line"/>
			<point x="48" y="510" type="line"/>
			<point x="40" y="503" type="line"/>
			<point x="212" y="503" type="line"/>
			<point x="204" y="510" type="line"/>
			<point x="204" y="18" type="line"/>
			<point x="212" y="26" type="line"/>
			<point x="110" y="14" type="line"/>
		</contour>
		<contour>
			<point x="224" y="12" type="line"/>
			<point x="224" y="307" type="line"/>
			<point x="218" y="300" type="line"/>
			<point x="355" y="300" type="line" smooth="yes"/>
			<point x="459" y="300"/>
			<point x="511" y="248"/>
			<point x="511" y="162" type="curve" smooth="yes"/>
			<point x="511" y="72"/>
			<point x="453" y="19"/>
			<point x="320" y="19" type="curve" smooth="yes"/>
			<point x="218" y="19" type="line"/>
		</contour>
	</outline>
</glyph>
<glyph name="yeru-cy" format="2">
	<advance width="740"/>
	<unicode hex="044B"/>
	<anchor x="373" y="522" name="top"/>
	<outline>
		<contour>
			<point x="605" y="502" type="line"/>
			<point x="597" y="495" type="line"/>
			<point x="695" y="511" type="line"/>
			<point x="695" y="525" type="line"/>
			<point x="495" y="520" type="line"/>
			<point x="495" y="506" type="line"/>
			<point x="591" y="495" type="line"/>
			<point x="585" y="502" type="line"/>
			<point x="585" y="21" type="line"/>
			<point x="592" y="29" type="line"/>
			<point x="495" y="15" type="line"/>
			<point x="495" y="0" type="line"/>
			<point x="695" y="0" type="line"/>
			<point x="695" y="15" type="line"/>
			<point x="598" y="29" type="line"/>
			<point x="605" y="21" type="line"/>
		</contour>
		<contour>
			<point x="46" y="0" type="line"/>
			<point x="243" y="0" type="line" smooth="yes"/>
			<point x="394" y="0"/>
			<point x="457" y="61"/>
			<point x="457" y="160" type="curve" smooth="yes"/>
			<point x="457" y="257"/>
			<point x="397" y="312"/>
			<point x="285" y="312" type="curve" smooth="yes"/>
			<point x="150" y="312" type="line"/>
			<point x="156" y="306" type="line"/>
			<point x="156" y="502" type="line"/>
			<point x="148" y="495" type="line"/>
			<point x="256" y="511" type="line"/>
			<point x="256" y="525" type="line"/>
			<point x="46" y="520" type="line"/>
			<point x="46" y="506" type="line"/>
			<point x="142" y="495" type="line"/>
			<point x="136" y="502" type="line"/>
			<point x="136" y="21" type="line"/>
			<point x="143" y="29" type="line"/>
			<point x="46" y="15" type="line"/>
		</contour>
		<contour>
			<point x="156" y="12" type="line"/>
			<point x="156" y="300" type="line"/>
			<point x="150" y="293" type="line"/>
			<point x="280" y="293" type="line" smooth="yes"/>
			<point x="384" y="293"/>
			<point x="436" y="244"/>
			<point x="436" y="158" type="curve" smooth="yes"/>
			<point x="436" y="68"/>
			<point x="379" y="19"/>
			<point x="246" y="19" type="curve" smooth="yes"/>
			<point x="150" y="19" type="line"/>
		</contour>
	</outline>
</glyph>
<glyph name="ereversed-cy" format="2">
	<advance width="519"/>
	<unicode hex="044D"/>
	<anchor x="259" y="522" name="top"/>
	<outline>
		<contour>
			<point x="49" y="66" type="line"/>
			<point x="109" y="17"/>
			<point x="172" y="-6"/>
			<point x="230" y="-6" type="curve" smooth="yes"/>
			<point x="355" y="-6"/>
			<point x="456" y="99"/>
			<point x="456" y="269" type="curve" smooth="yes"/>
			<point x="456" y="434"/>
			<point x="369" y="528"/>
			<point x="235" y="528" type="curve" smooth="yes"/>
			<point x="184" y="528"/>
			<point x="126" y="514"/>
			<point x="64" y="486" type="curve"/>
			<point x="67" y="382" type="line"/>
			<point x="86" y="382" type="line"/>
			<point x="98" y="488" type="line"/>
			<point x="93" y="479" type="line"/>
			<point x="143" y="499"/>
			<point x="189" y="509"/>
			<point x="231" y="509" type="curve" smooth="yes"/>
			<point x="355" y="509"/>
			<point x="435" y="421"/>
			<point x="435" y="267" type="curve" smooth="yes"/>
			<point x="435" y="109"/>
			<point x="346" y="13"/>
			<point x="233" y="13" type="curve" smooth="yes"/>
			<point x="179" y="13"/>
			<point x="119" y="36"/>
			<point x="60" y="83" type="curve"/>
		</contour>
		<contour>
			<point x="164" y="263" type="line"/>
			<point x="444" y="263" type="line"/>
			<point x="444" y="282" type="line"/>
			<point x="166" y="282" type="line"/>
		</contour>
	</outline>
</glyph>
<glyph name="iu-cy" format="2">
	<advance width="793"/>
	<unicode hex="044E"/>
	<outline>
		<contour>
			<point x="45" y="0" type="line"/>
			<point x="245" y="0" type="line"/>
			<point x="245" y="15" type="line"/>
			<point x="148" y="29" type="line"/>
			<point x="155" y="21" type="line"/>
			<point x="155" y="272" type="line"/>
			<point x="147" y="265" type="line"/>
			<point x="305" y="265" type="line"/>
			<point x="305" y="284" type="line"/>
			<point x="147" y="284" type="line"/>
			<point x="155" y="278" type="line"/>
			<point x="155" y="502" type="line"/>
			<point x="147" y="495" type="line"/>
			<point x="245" y="511" type="line"/>
			<point x="245" y="525" type="line"/>
			<point x="45" y="520" type="line"/>
			<point x="45" y="506" type="line"/>
			<point x="141" y="495" type="line"/>
			<point x="135" y="502" type="line"/>
			<point x="135" y="21" type="line"/>
			<point x="142" y="29" type="line"/>
			<point x="45" y="15" type="line"/>
		</contour>
		<contour>
			<point x="516" y="528" type="curve" smooth="yes"/>
			<point x="379" y="528"/>
			<point x="292" y="418"/>
			<point x="292" y="249" type="curve" smooth="yes"/>
			<point x="292" y="84"/>
			<point x="374" y="-6"/>
			<point x="500" y="-6" type="curve" smooth="yes"/>
			<point x="642" y="-6"/>
			<point x="729" y="106"/>
			<point x="729" y="270" type="curve" smooth="yes"/>
			<point x="729" y="432"/>
			<point x="644" y="528"/>
		</contour>
		<contour>
			<point x="514" y="509" type="curve" smooth="yes"/>
			<point x="632" y="509"/>
			<point x="708" y="418"/>
			<point x="708" y="267" type="curve" smooth="yes"/>
			<point x="708" y="116"/>
			<point x="631" y="13"/>
			<point x="502" y="13" type="curve" smooth="yes"/>
			<point x="386" y="13"/>
			<point x="313" y="98"/>
			<point x="313" y="251" type="curve" smooth="yes"/>
			<point x="313" y="407"/>
			<point x="389" y="509"/>
		</contour>
	</outline>
</glyph>
<glyph name="e-cy" format="2">
	<advance width="519"/>
	<unicode hex="0454"/>
	<outline>
		<contour>
			<point x="353" y="282" type="line"/>
			<point x="73" y="282" type="line"/>
			<point x="73" y="263" type="line"/>
			<point x="351" y="263" type="line"/>
		</contour>
		<contour>
			<point x="277" y="-6" type="curve" smooth="yes"/>
			<point x="338" y="-6"/>
			<point x="403" y="16"/>
			<point x="469" y="66" type="curve"/>
			<point x="459" y="81" type="line"/>
			<point x="398" y="36"/>
			<point x="335" y="14"/>
			<point x="279" y="14" type="curve" smooth="yes"/>
			<point x="168" y="14"/>
			<point x="83" y="100"/>
			<point x="83" y="255" type="curve" smooth="yes"/>
			<point x="83" y="412"/>
			<point x="168" y="509"/>
			<point x="292" y="509" type="curve" smooth="yes"/>
			<point x="329" y="509"/>
			<point x="380" y="502"/>
			<point x="425" y="479" type="curve"/>
			<point x="420" y="488" type="line"/>
			<point x="432" y="382" type="line"/>
			<point x="451" y="382" type="line"/>
			<point x="454" y="487" type="line"/>
			<point x="404" y="517"/>
			<point x="342" y="528"/>
			<point x="296" y="528" type="curve" smooth="yes"/>
			<point x="165" y="528"/>
			<point x="62" y="431"/>
			<point x="62" y="253" type="curve" smooth="yes"/>
			<point x="62" y="91"/>
			<point x="150" y="-6"/>
		</contour>
	</outline>
</glyph>
<glyph name="lje-cy" format="2">
	<advance width="748"/>
	<unicode hex="0459"/>
	<outline>
		<contour>
			<point x="43" y="-6" type="curve" smooth="yes"/>
			<point x="169" y="-6"/>
			<point x="196" y="181"/>
			<point x="198" y="511" type="curve"/>
			<point x="190" y="503" type="line"/>
			<point x="403" y="503" type="line"/>
			<point x="397" y="510" type="line"/>
			<point x="397" y="21" type="line"/>
			<point x="404" y="29" type="line"/>
			<point x="307" y="15" type="line"/>
			<point x="307" y="0" type="line"/>
			<point x="504" y="0" type="line" smooth="yes"/>
			<point x="655" y="0"/>
			<point x="718" y="61"/>
			<point x="718" y="160" type="curve" smooth="yes"/>
			<point x="718" y="257"/>
			<point x="658" y="312"/>
			<point x="546" y="312" type="curve" smooth="yes"/>
			<point x="411" y="312" type="line"/>
			<point x="417" y="306" type="line"/>
			<point x="417" y="502" type="line"/>
			<point x="409" y="495" type="line"/>
			<point x="522" y="508" type="line"/>
			<point x="522" y="522" type="line"/>
			<point x="80" y="522" type="line"/>
			<point x="80" y="508" type="line"/>
			<point x="186" y="497" type="line"/>
			<point x="180" y="504" type="line"/>
			<point x="176" y="205"/>
			<point x="161" y="17"/>
			<point x="35" y="17" type="curve" smooth="yes"/>
			<point x="26" y="17"/>
			<point x="17" y="18"/>
			<point x="8" y="20" type="curve"/>
			<point x="5" y="-1" type="line"/>
			<point x="19" y="-4"/>
			<point x="31" y="-6"/>
		</contour>
		<contour>
			<point x="417" y="12" type="line"/>
			<point x="417" y="300" type="line"/>
			<point x="411" y="293" type="line"/>
			<point x="541" y="293" type="line" smooth="yes"/>
			<point x="645" y="293"/>
			<point x="697" y="244"/>
			<point x="697" y="158" type="curve" smooth="yes"/>
			<point x="697" y="68"/>
			<point x="640" y="19"/>
			<point x="507" y="19" type="curve" smooth="yes"/>
			<point x="411" y="19" type="line"/>
		</contour>
	</outline>
</glyph>
<glyph name="nje-cy" format="2">
	<advance width="830"/>
	<unicode hex="045A"/>
	<outline>
		<contour>
			<point x="45" y="0" type="line"/>
			<point x="245" y="0" type="line"/>
			<point x="245" y="15" type="line"/>
			<point x="148" y="29" type="line"/>
			<point x="155" y="21" type="line"/>
			<point x="155" y="286" type="line"/>
			<point x="147" y="279" type="line"/>
			<point x="491" y="279" type="line"/>
			<point x="482" y="286" type="line"/>
			<point x="482" y="21" type="line"/>
			<point x="489" y="29" type="line"/>
			<point x="392" y="15" type="line"/>
			<point x="392" y="0" type="line"/>
			<point x="589" y="0" type="line" smooth="yes"/>
			<point x="740" y="0"/>
			<point x="803" y="54"/>
			<point x="803" y="152" type="curve" smooth="yes"/>
			<point x="803" y="241"/>
			<point x="741" y="298"/>
			<point x="631" y="298" type="curve" smooth="yes"/>
			<point x="496" y="298" type="line"/>
			<point x="502" y="292" type="line"/>
			<point x="502" y="502" type="line"/>
			<point x="494" y="495" type="line"/>
			<point x="607" y="511" type="line"/>
			<point x="607" y="525" type="line"/>
			<point x="392" y="520" type="line"/>
			<point x="392" y="506" type="line"/>
			<point x="488" y="495" type="line"/>
			<point x="482" y="502" type="line"/>
			<point x="482" y="292" type="line"/>
			<point x="491" y="298" type="line"/>
			<point x="147" y="298" type="line"/>
			<point x="155" y="292" type="line"/>
			<point x="155" y="502" type="line"/>
			<point x="147" y="495" type="line"/>
			<point x="245" y="511" type="line"/>
			<point x="245" y="525" type="line"/>
			<point x="45" y="520" type="line"/>
			<point x="45" y="506" type="line"/>
			<point x="141" y="495" type="line"/>
			<point x="135" y="502" type="line"/>
			<point x="135" y="21" type="line"/>
			<point x="142" y="29" type="line"/>
			<point x="45" y="15" type="line"/>
		</contour>
		<contour>
			<point x="502" y="12" type="line"/>
			<point x="502" y="286" type="line"/>
			<point x="496" y="279" type="line"/>
			<point x="626" y="279" type="line" smooth="yes"/>
			<point x="728" y="279"/>
			<point x="782" y="228"/>
			<point x="782" y="150" type="curve" smooth="yes"/>
			<point x="782" y="61"/>
			<point x="725" y="19"/>
			<point x="592" y="19" type="curve" smooth="yes"/>
			<point x="496" y="19" type="line"/>
		</contour>
	</outline>
</glyph>
<glyph name="tshe-cy" format="2">
	<advance width="610"/>
	<unicode hex="045B"/>
	<guideline x="33" y="450" angle="90"/>
	<outline>
		<contour>
			<point x="33" y="0" type="line"/>
			<point x="233" y="0" type="line"/>
			<point x="233" y="15" type="line"/>
			<point x="136" y="29" type="line"/>
			<point x="143" y="21" type="line"/>
			<point x="143" y="347" type="line"/>
			<point x="139" y="336" type="line"/>
			<point x="208" y="409"/>
			<point x="284" y="442"/>
			<point x="349" y="442" type="curve" smooth="yes"/>
			<point x="425" y="442"/>
			<point x="476" y="396"/>
			<point x="476" y="296" type="curve" smooth="yes"/>
			<point x="476" y="21" type="line"/>
			<point x="483" y="29" type="line"/>
			<point x="386" y="15" type="line"/>
			<point x="386" y="0" type="line"/>
			<point x="586" y="0" type="line"/>
			<point x="586" y="15" type="line"/>
			<point x="489" y="29" type="line"/>
			<point x="496" y="21" type="line"/>
			<point x="496" y="301" type="line" smooth="yes"/>
			<point x="496" y="410"/>
			<point x="435" y="461"/>
			<point x="349" y="461" type="curve" smooth="yes"/>
			<point x="282" y="461"/>
			<point x="206" y="430"/>
			<point x="139" y="360" type="curve"/>
			<point x="143" y="357" type="line"/>
			<point x="143" y="765" type="line"/>
			<point x="33" y="760" type="line"/>
			<point x="33" y="745" type="line"/>
			<point x="130" y="731" type="line"/>
			<point x="123" y="739" type="line"/>
			<point x="123" y="21" type="line"/>
			<point x="130" y="29" type="line"/>
			<point x="33" y="15" type="line"/>
		</contour>
		<contour>
			<point x="33" y="585" type="line"/>
			<point x="303" y="585" type="line"/>
			<point x="303" y="604" type="line"/>
			<point x="33" y="604" type="line"/>
		</contour>
	</outline>
</glyph>
<glyph name="Yat-cy" format="2">
	<advance width="686"/>
	<unicode hex="0462"/>
	<guideline x="535" y="698" angle="0"/>
	<outline>
		<contour>
			<point x="145" y="0" type="line"/>
			<point x="378" y="0" type="line" smooth="yes"/>
			<point x="537" y="0"/>
			<point x="630" y="76"/>
			<point x="630" y="197" type="curve" smooth="yes"/>
			<point x="630" y="305"/>
			<point x="556" y="373"/>
			<point x="415" y="373" type="curve" smooth="yes"/>
			<point x="258" y="373" type="line"/>
			<point x="265" y="366" type="line"/>
			<point x="264" y="560" type="line"/>
			<point x="257" y="553" type="line"/>
			<point x="503" y="553" type="line"/>
			<point x="495" y="560" type="line"/>
			<point x="510" y="437" type="line"/>
			<point x="525" y="437" type="line"/>
			<point x="525" y="572" type="line"/>
			<point x="257" y="572" type="line"/>
			<point x="264" y="565" type="line"/>
			<point x="265" y="670" type="line"/>
			<point x="258" y="663" type="line"/>
			<point x="369" y="677" type="line"/>
			<point x="369" y="692" type="line"/>
			<point x="144" y="687" type="line"/>
			<point x="144" y="672" type="line"/>
			<point x="252" y="663" type="line"/>
			<point x="245" y="670" type="line"/>
			<point x="244" y="565" type="line"/>
			<point x="251" y="572" type="line"/>
			<point x="33" y="572" type="line"/>
			<point x="33" y="437" type="line"/>
			<point x="48" y="437" type="line"/>
			<point x="63" y="560" type="line"/>
			<point x="55" y="553" type="line"/>
			<point x="251" y="553" type="line"/>
			<point x="244" y="560" type="line"/>
			<point x="245" y="21" type="line"/>
			<point x="252" y="29" type="line"/>
			<point x="145" y="15" type="line"/>
		</contour>
		<contour>
			<point x="265" y="12" type="line"/>
			<point x="265" y="361" type="line"/>
			<point x="258" y="354" type="line"/>
			<point x="413" y="354" type="line" smooth="yes"/>
			<point x="541" y="354"/>
			<point x="608" y="293"/>
			<point x="608" y="197" type="curve" smooth="yes"/>
			<point x="608" y="88"/>
			<point x="524" y="19"/>
			<point x="379" y="19" type="curve" smooth="yes"/>
			<point x="258" y="19" type="line"/>
		</contour>
	</outline>
</glyph>
<glyph name="Yusbig-cy" format="2">
	<advance width="939"/>
	<unicode hex="046A"/>
	<outline>
		<contour>
			<point x="5" y="0" type="line"/>
			<point x="224" y="0" type="line"/>
			<point x="224" y="15" type="line"/>
			<point x="121" y="29" type="line"/>
			<point x="125" y="23" type="line"/>
			<point x="333" y="319" type="line" smooth="yes"/>
			<point x="351" y="345"/>
			<point x="369" y="350"/>
			<point x="391" y="350" type="curve" smooth="yes"/>
			<point x="469" y="350" type="line"/>
			<point x="462" y="359" type="line"/>
			<point x="462" y="21" type="line"/>
			<point x="469" y="29" type="line"/>
			<point x="367" y="15" type="line"/>
			<point x="367" y="0" type="line"/>
			<point x="577" y="0" type="line"/>
			<point x="577" y="15" type="line"/>
			<point x="475" y="29" type="line"/>
			<point x="482" y="21" type="line"/>
			<point x="482" y="357" type="line"/>
			<point x="475" y="350" type="line"/>
			<point x="547" y="350" type="line" smooth="yes"/>
			<point x="575" y="350"/>
			<point x="588" y="344"/>
			<point x="608" y="315" type="curve" smooth="yes"/>
			<point x="814" y="23" type="line"/>
			<point x="818" y="29" type="line"/>
			<point x="715" y="15" type="line"/>
			<point x="715" y="0" type="line"/>
			<point x="934" y="0" type="line"/>
			<point x="934" y="15" type="line"/>
			<point x="827" y="29" type="line"/>
			<point x="838" y="23" type="line"/>
			<point x="624" y="325" type="line" smooth="yes"/>
			<point x="599" y="361"/>
			<point x="587" y="369"/>
			<point x="553" y="369" type="curve" smooth="yes"/>
			<point x="489" y="369" type="line"/>
			<point x="489" y="363" type="line"/>
			<point x="727" y="677" type="line"/>
			<point x="727" y="692" type="line"/>
			<point x="216" y="692" type="line"/>
			<point x="216" y="677" type="line"/>
			<point x="455" y="363" type="line"/>
			<point x="455" y="369" type="line"/>
			<point x="388" y="369" type="line" smooth="yes"/>
			<point x="361" y="369"/>
			<point x="339" y="360"/>
			<point x="317" y="329" type="curve" smooth="yes"/>
			<point x="103" y="23" type="line"/>
			<point x="112" y="29" type="line"/>
			<point x="5" y="15" type="line"/>
		</contour>
		<contour>
			<point x="466" y="362" type="line"/>
			<point x="478" y="362" type="line"/>
			<point x="239" y="680" type="line"/>
			<point x="234" y="673" type="line"/>
			<point x="711" y="673" type="line"/>
			<point x="706" y="680" type="line"/>
		</contour>
	</outline>
</glyph>
<glyph name="izhitsa-cy" format="2">
	<advance width="530"/>
	<unicode hex="0475"/>
	<anchor x="258" y="522" name="top"/>
	<outline>
		<contour>
			<point x="543" y="520" type="line"/>
			<point x="525" y="525"/>
			<point x="510" y="528"/>
			<point x="496" y="528" type="curve" smooth="yes"/>
			<point x="445" y="528"/>
			<point x="419" y="489"/>
			<point x="381" y="381" type="curve" smooth="yes"/>
			<point x="253" y="17" type="line"/>
			<point x="257" y="17" type="line"/>
			<point x="90" y="504" type="line"/>
			<point x="85" y="497" type="line"/>
			<point x="192" y="510" type="line"/>
			<point x="192" y="525" type="line"/>
			<point x="-5" y="520" type="line"/>
			<point x="-5" y="505" type="line"/>
			<point x="77" y="497" type="line"/>
			<point x="68" y="504" type="line"/>
			<point x="244" y="-2" type="line"/>
			<point x="264" y="-2" type="line"/>
			<point x="410" y="398" type="line" smooth="yes"/>
			<point x="439" y="478"/>
			<point x="461" y="499"/>
			<point x="497" y="499" type="curve" smooth="yes"/>
			<point x="509" y="499"/>
			<point x="522" y="497"/>
			<point x="537" y="494" type="curve"/>
		</contour>
	</outline>
</glyph>
<glyph name="Semisoftsign-cy" format="2">
	<advance width="609"/>
	<unicode hex="048C"/>
	<guideline x="75" y="566" angle="90"/>
	<outline>
		<contour>
			<point x="75" y="539" type="line"/>
			<point x="363" y="539" type="line"/>
			<point x="363" y="558" type="line"/>
			<point x="75" y="558" type="line"/>
		</contour>
		<contour>
			<point x="75" y="0" type="line"/>
			<point x="308" y="0" type="line" smooth="yes"/>
			<point x="467" y="0"/>
			<point x="560" y="76"/>
			<point x="560" y="213" type="curve" smooth="yes"/>
			<point x="560" y="335"/>
			<point x="486" y="403"/>
			<point x="345" y="403" type="curve" smooth="yes"/>
			<point x="188" y="403" type="line"/>
			<point x="195" y="396" type="line"/>
			<point x="195" y="670" type="line"/>
			<point x="188" y="663" type="line"/>
			<point x="295" y="677" type="line"/>
			<point x="295" y="692" type="line"/>
			<point x="75" y="687" type="line"/>
			<point x="75" y="672" type="line"/>
			<point x="182" y="663" type="line"/>
			<point x="175" y="670" type="line"/>
			<point x="175" y="21" type="line"/>
			<point x="182" y="29" type="line"/>
			<point x="75" y="15" type="line"/>
		</contour>
		<contour>
			<point x="195" y="12" type="line"/>
			<point x="195" y="391" type="line"/>
			<point x="188" y="384" type="line"/>
			<point x="343" y="384" type="line" smooth="yes"/>
			<point x="471" y="384"/>
			<point x="538" y="323"/>
			<point x="538" y="212" type="curve" smooth="yes"/>
			<point x="538" y="88"/>
			<point x="454" y="19"/>
			<point x="309" y="19" type="curve" smooth="yes"/>
			<point x="188" y="19" type="line"/>
		</contour>
	</outline>
</glyph>
<glyph name="gheupturn-cy" format="2">
	<advance width="448"/>
	<unicode hex="0491"/>
	<outline>
		<contour>
			<point x="421" y="503" type="line"/>
			<point x="420" y="637" type="line"/>
			<point x="405" y="637" type="line"/>
			<point x="392" y="513" type="line"/>
			<point x="400" y="522" type="line"/>
			<point x="151" y="522" type="line"/>
			<point x="46" y="520" type="line"/>
			<point x="46" y="505" type="line"/>
			<point x="143" y="491" type="line"/>
			<point x="136" y="499" type="line"/>
			<point x="136" y="21" type="line"/>
			<point x="143" y="29" type="line"/>
			<point x="46" y="15" type="line"/>
			<point x="46" y="0" type="line"/>
			<point x="271" y="0" type="line"/>
			<point x="271" y="15" type="line"/>
			<point x="149" y="29" type="line"/>
			<point x="156" y="21" type="line"/>
			<point x="156" y="514" type="line"/>
			<point x="152" y="503" type="line"/>
		</contour>
	</outline>
</glyph>
<glyph name="Ghemiddlehook-cy" format="2">
	<advance width="643"/>
	<unicode hex="0494"/>
	<outline>
		<contour>
			<point x="374" y="-57" type="curve" smooth="yes"/>
			<point x="484" y="-57"/>
			<point x="556" y="34"/>
			<point x="556" y="198" type="curve" smooth="yes"/>
			<point x="556" y="337"/>
			<point x="504" y="407"/>
			<point x="375" y="407" type="curve" smooth="yes"/>
			<point x="313" y="407"/>
			<point x="245" y="391"/>
			<point x="177" y="366" type="curve"/>
			<point x="186" y="363" type="line"/>
			<point x="186" y="680" type="line"/>
			<point x="179" y="673" type="line"/>
			<point x="470" y="673" type="line"/>
			<point x="462" y="680" type="line"/>
			<point x="477" y="552" type="line"/>
			<point x="492" y="552" type="line"/>
			<point x="492" y="692" type="line"/>
			<point x="186" y="692" type="line"/>
			<point x="66" y="687" type="line"/>
			<point x="66" y="672" type="line"/>
			<point x="173" y="662" type="line"/>
			<point x="166" y="669" type="line"/>
			<point x="166" y="21" type="line"/>
			<point x="173" y="29" type="line"/>
			<point x="61" y="15" type="line"/>
			<point x="61" y="0" type="line"/>
			<point x="186" y="0" type="line"/>
			<point x="186" y="357" type="line"/>
			<point x="178" y="348" type="line"/>
			<point x="244" y="372"/>
			<point x="314" y="387"/>
			<point x="369" y="387" type="curve" smooth="yes"/>
			<point x="503" y="387"/>
			<point x="534" y="301"/>
			<point x="534" y="192" type="curve" smooth="yes"/>
			<point x="534" y="25"/>
			<point x="461" y="-37"/>
			<point x="373" y="-37" type="curve" smooth="yes"/>
			<point x="345" y="-37" type="line"/>
			<point x="343" y="-56" type="line"/>
			<point x="354" y="-57"/>
			<point x="364" y="-57"/>
		</contour>
	</outline>
</glyph>
<glyph name="Zedescender-cy" format="2">
	<advance width="572"/>
	<unicode hex="0498"/>
	<anchor x="280" y="692" name="top"/>
	<outline>
		<contour>
			<point x="272" y="-163" type="line"/>
			<point x="287" y="-163" type="line"/>
			<point x="295" y="5" type="line"/>
			<point x="264" y="4" type="line"/>
		</contour>
		<contour>
			<point x="69" y="43" type="line"/>
			<point x="132" y="11"/>
			<point x="199" y="-6"/>
			<point x="262" y="-6" type="curve" smooth="yes"/>
			<point x="386" y="-6"/>
			<point x="489" y="59"/>
			<point x="489" y="192" type="curve" smooth="yes"/>
			<point x="489" y="292"/>
			<point x="431" y="361"/>
			<point x="310" y="369" type="curve"/>
			<point x="310" y="367" type="line"/>
			<point x="420" y="375"/>
			<point x="469" y="437"/>
			<point x="469" y="531" type="curve" smooth="yes"/>
			<point x="469" y="649"/>
			<point x="392" y="698"/>
			<point x="280" y="698" type="curve" smooth="yes"/>
			<point x="223" y="698"/>
			<point x="156" y="685"/>
			<point x="87" y="661" type="curve"/>
			<point x="94" y="524" type="line"/>
			<point x="109" y="524" type="line"/>
			<point x="120" y="659" type="line"/>
			<point x="114" y="651" type="line"/>
			<point x="171" y="668"/>
			<point x="227" y="678"/>
			<point x="277" y="678" type="curve" smooth="yes"/>
			<point x="377" y="678"/>
			<point x="447" y="638"/>
			<point x="447" y="530" type="curve" smooth="yes"/>
			<point x="447" y="434"/>
			<point x="392" y="378"/>
			<point x="265" y="378" type="curve" smooth="yes"/>
			<point x="186" y="378" type="line"/>
			<point x="186" y="358" type="line"/>
			<point x="260" y="358" type="line" smooth="yes"/>
			<point x="414" y="358"/>
			<point x="468" y="282"/>
			<point x="468" y="190" type="curve" smooth="yes"/>
			<point x="468" y="71"/>
			<point x="377" y="14"/>
			<point x="266" y="14" type="curve" smooth="yes"/>
			<point x="206" y="14"/>
			<point x="140" y="31"/>
			<point x="79" y="62" type="curve"/>
		</contour>
	</outline>
</glyph>
<glyph name="enghe-cy" format="2">
	<advance width="801"/>
	<unicode hex="04A5"/>
	<anchor x="606" y="0" name="bottomright"/>
	<outline>
		<contour>
			<point x="516" y="522" type="line"/>
			<point x="406" y="520" type="line"/>
			<point x="406" y="506" type="line"/>
			<point x="502" y="495" type="line"/>
			<point x="496" y="502" type="line"/>
			<point x="496" y="278" type="line"/>
			<point x="505" y="284" type="line"/>
			<point x="147" y="284" type="line"/>
			<point x="155" y="278" type="line"/>
			<point x="155" y="502" type="line"/>
			<point x="147" y="495" type="line"/>
			<point x="245" y="511" type="line"/>
			<point x="245" y="525" type="line"/>
			<point x="45" y="520" type="line"/>
			<point x="45" y="506" type="line"/>
			<point x="141" y="495" type="line"/>
			<point x="135" y="502" type="line"/>
			<point x="135" y="21" type="line"/>
			<point x="142" y="29" type="line"/>
			<point x="45" y="15" type="line"/>
			<point x="45" y="0" type="line"/>
			<point x="245" y="0" type="line"/>
			<point x="245" y="15" type="line"/>
			<point x="148" y="29" type="line"/>
			<point x="155" y="21" type="line"/>
			<point x="155" y="272" type="line"/>
			<point x="147" y="265" type="line"/>
			<point x="505" y="265" type="line"/>
			<point x="496" y="272" type="line"/>
			<point x="496" y="21" type="line"/>
			<point x="503" y="29" type="line"/>
			<point x="406" y="15" type="line"/>
			<point x="406" y="0" type="line"/>
			<point x="606" y="0" type="line"/>
			<point x="606" y="15" type="line"/>
			<point x="509" y="29" type="line"/>
			<point x="516" y="21" type="line"/>
			<point x="516" y="514" type="line"/>
			<point x="512" y="503" type="line"/>
			<point x="760" y="503" type="line"/>
			<point x="755" y="512" type="line"/>
			<point x="768" y="388" type="line"/>
			<point x="783" y="388" type="line"/>
			<point x="784" y="522" type="line"/>
		</contour>
	</outline>
</glyph>
<glyph name="pemiddlehook-cy" format="2">
	<advance width="899"/>
	<unicode hex="04A7"/>
	<guideline x="632" y="287" angle="0"/>
	<guideline x="632" y="461" angle="0"/>
	<guideline x="632" y="377" angle="0"/>
	<outline>
		<contour>
			<point x="492" y="236" type="line"/>
			<point x="488" y="225" type="line"/>
			<point x="557" y="298"/>
			<point x="633" y="331"/>
			<point x="698" y="331" type="curve" smooth="yes"/>
			<point x="774" y="331"/>
			<point x="825" y="285"/>
			<point x="825" y="185" type="curve" smooth="yes"/>
			<point x="825" y="-48" type="line" smooth="yes"/>
			<point x="825" y="-167"/>
			<point x="801" y="-211"/>
			<point x="724" y="-220" type="curve"/>
			<point x="727" y="-237" type="line"/>
			<point x="831" y="-228"/>
			<point x="845" y="-160"/>
			<point x="845" y="-39" type="curve" smooth="yes"/>
			<point x="845" y="190" type="line" smooth="yes"/>
			<point x="845" y="299"/>
			<point x="784" y="350"/>
			<point x="698" y="350" type="curve" smooth="yes"/>
			<point x="631" y="350"/>
			<point x="555" y="319"/>
			<point x="488" y="249" type="curve"/>
			<point x="492" y="246" type="line"/>
			<point x="492" y="499" type="line"/>
			<point x="484" y="492" type="line"/>
			<point x="582" y="508" type="line"/>
			<point x="582" y="522" type="line"/>
			<point x="147" y="522" type="line"/>
			<point x="45" y="520" type="line"/>
			<point x="45" y="506" type="line"/>
			<point x="141" y="495" type="line"/>
			<point x="135" y="502" type="line"/>
			<point x="135" y="21" type="line"/>
			<point x="142" y="29" type="line"/>
			<point x="45" y="15" type="line"/>
			<point x="45" y="0" type="line"/>
			<point x="245" y="0" type="line"/>
			<point x="245" y="15" type="line"/>
			<point x="148" y="29" type="line"/>
			<point x="155" y="21" type="line"/>
			<point x="155" y="512" type="line"/>
			<point x="147" y="504" type="line"/>
			<point x="481" y="503" type="line"/>
			<point x="472" y="512" type="line"/>
			<point x="472" y="21" type="line"/>
			<point x="479" y="29" type="line"/>
			<point x="382" y="15" type="line"/>
			<point x="382" y="0" type="line"/>
			<point x="582" y="0" type="line"/>
			<point x="582" y="15" type="line"/>
			<point x="485" y="29" type="line"/>
			<point x="492" y="21" type="line"/>
		</contour>
	</outline>
</glyph>
<glyph name="haabkhasian-cy" format="2">
	<advance width="677"/>
	<unicode hex="04A9"/>
	<guideline x="608" y="575" angle="90"/>
	<outline>
		<contour>
			<point x="324" y="-6" type="curve" smooth="yes"/>
			<point x="477" y="-6"/>
			<point x="606" y="87"/>
			<point x="606" y="256" type="curve" smooth="yes"/>
			<point x="606" y="384"/>
			<point x="535" y="453"/>
			<point x="434" y="453" type="curve" smooth="yes"/>
			<point x="327" y="453"/>
			<point x="250" y="377"/>
			<point x="250" y="252" type="curve" smooth="yes"/>
			<point x="250" y="101"/>
			<point x="369" y="-6"/>
			<point x="494" y="-6" type="curve" smooth="yes"/>
			<point x="539" y="-6"/>
			<point x="584" y="8"/>
			<point x="624" y="39" type="curve"/>
			<point x="612" y="53" type="line"/>
			<point x="576" y="25"/>
			<point x="535" y="13"/>
			<point x="495" y="13" type="curve" smooth="yes"/>
			<point x="380" y="13"/>
			<point x="271" y="112"/>
			<point x="271" y="253" type="curve" smooth="yes"/>
			<point x="271" y="367"/>
			<point x="335" y="434"/>
			<point x="431" y="434" type="curve" smooth="yes"/>
			<point x="523" y="434"/>
			<point x="585" y="372"/>
			<point x="585" y="253" type="curve" smooth="yes"/>
			<point x="585" y="95"/>
			<point x="464" y="13"/>
			<point x="326" y="13" type="curve" smooth="yes"/>
			<point x="194" y="13"/>
			<point x="78" y="88"/>
			<point x="78" y="265" type="curve" smooth="yes"/>
			<point x="78" y="435"/>
			<point x="193" y="510"/>
			<point x="324" y="510" type="curve"/>
			<point x="324" y="528" type="line"/>
			<point x="180" y="528"/>
			<point x="57" y="443"/>
			<point x="57" y="262" type="curve" smooth="yes"/>
			<point x="57" y="76"/>
			<point x="181" y="-6"/>
		</contour>
	</outline>
</glyph>
<glyph name="Esdescender-cy" format="2">
	<advance width="660"/>
	<unicode hex="04AA"/>
	<anchor x="361" y="692" name="top"/>
	<outline>
		<contour>
			<point x="354" y="-163" type="line"/>
			<point x="369" y="-163" type="line"/>
			<point x="377" y="5" type="line"/>
			<point x="346" y="4" type="line"/>
		</contour>
		<contour>
			<point x="359" y="-6" type="curve" smooth="yes"/>
			<point x="437" y="-6"/>
			<point x="523" y="26"/>
			<point x="596" y="93" type="curve"/>
			<point x="583" y="109" type="line"/>
			<point x="515" y="45"/>
			<point x="436" y="15"/>
			<point x="365" y="15" type="curve" smooth="yes"/>
			<point x="218" y="15"/>
			<point x="102" y="138"/>
			<point x="102" y="347" type="curve" smooth="yes"/>
			<point x="102" y="551"/>
			<point x="215" y="678"/>
			<point x="377" y="678" type="curve" smooth="yes"/>
			<point x="431" y="678"/>
			<point x="500" y="664"/>
			<point x="562" y="637" type="curve"/>
			<point x="557" y="646" type="line"/>
			<point x="568" y="516" type="line"/>
			<point x="582" y="516" type="line"/>
			<point x="587" y="650" type="line"/>
			<point x="513" y="683"/>
			<point x="441" y="698"/>
			<point x="380" y="698" type="curve" smooth="yes"/>
			<point x="203" y="698"/>
			<point x="80" y="566"/>
			<point x="80" y="343" type="curve" smooth="yes"/>
			<point x="80" y="122"/>
			<point x="202" y="-6"/>
		</contour>
	</outline>
</glyph>
<glyph name="ustrait-cy" format="2">
	<advance width="516"/>
	<unicode hex="04AF"/>
	<outline>
		<contour>
			<point x="263" y="-2" type="line"/>
			<point x="448" y="504" type="line"/>
			<point x="439" y="497" type="line"/>
			<point x="521" y="510" type="line"/>
			<point x="521" y="525" type="line"/>
			<point x="326" y="520" type="line"/>
			<point x="326" y="505" type="line"/>
			<point x="433" y="498" type="line"/>
			<point x="428" y="504" type="line"/>
			<point x="253" y="19" type="line"/>
			<point x="257" y="19" type="line"/>
			<point x="90" y="504" type="line"/>
			<point x="85" y="497" type="line"/>
			<point x="192" y="510" type="line"/>
			<point x="192" y="525" type="line"/>
			<point x="-5" y="520" type="line"/>
			<point x="-5" y="505" type="line"/>
			<point x="77" y="497" type="line"/>
			<point x="68" y="504" type="line"/>
			<point x="245" y="-2" type="line"/>
			<point x="244" y="4" type="line"/>
			<point x="244" y="-209" type="line"/>
			<point x="251" y="-201" type="line"/>
			<point x="154" y="-215" type="line"/>
			<point x="154" y="-230" type="line"/>
			<point x="354" y="-230" type="line"/>
			<point x="354" y="-215" type="line"/>
			<point x="257" y="-201" type="line"/>
			<point x="264" y="-209" type="line"/>
			<point x="264" y="4" type="line"/>
		</contour>
	</outline>
</glyph>
<glyph name="ustraitstroke-cy" format="2">
	<advance width="516"/>
	<unicode hex="04B1"/>
	<outline>
		<contour>
			<point x="130" y="0" type="line"/>
			<point x="401" y="0" type="line"/>
			<point x="401" y="19" type="line"/>
			<point x="130" y="19" type="line"/>
		</contour>
		<contour>
			<point x="263" y="-2" type="line"/>
			<point x="448" y="504" type="line"/>
			<point x="439" y="497" type="line"/>
			<point x="521" y="510" type="line"/>
			<point x="521" y="525" type="line"/>
			<point x="326" y="520" type="line"/>
			<point x="326" y="505" type="line"/>
			<point x="433" y="498" type="line"/>
			<point x="428" y="504" type="line"/>
			<point x="253" y="19" type="line"/>
			<point x="257" y="19" type="line"/>
			<point x="90" y="504" type="line"/>
			<point x="85" y="497" type="line"/>
			<point x="192" y="510" type="line"/>
			<point x="192" y="525" type="line"/>
			<point x="-5" y="520" type="line"/>
			<point x="-5" y="505" type="line"/>
			<point x="77" y="497" type="line"/>
			<point x="68" y="504" type="line"/>
			<point x="245" y="-2" type="line"/>
			<point x="244" y="4" type="line"/>
			<point x="244" y="-209" type="line"/>
			<point x="251" y="-201" type="line"/>
			<point x="154" y="-215" type="line"/>
			<point x="154" y="-230" type="line"/>
			<point x="354" y="-230" type="line"/>
			<point x="354" y="-215" type="line"/>
			<point x="257" y="-201" type="line"/>
			<point x="264" y="-209" type="line"/>
			<point x="264" y="4" type="line"/>
		</contour>
	</outline>
</glyph>
<glyph name="cheverticalstroke-cy" format="2">
	<advance width="565"/>
	<unicode hex="04B9"/>
	<outline>
		<contour>
			<point x="295" y="0" type="line"/>
			<point x="520" y="0" type="line"/>
			<point x="520" y="15" type="line"/>
			<point x="423" y="29" type="line"/>
			<point x="430" y="21" type="line"/>
			<point x="430" y="502" type="line"/>
			<point x="422" y="495" type="line"/>
			<point x="520" y="511" type="line"/>
			<point x="520" y="525" type="line"/>
			<point x="320" y="520" type="line"/>
			<point x="320" y="506" type="line"/>
			<point x="416" y="495" type="line"/>
			<point x="410" y="502" type="line"/>
			<point x="410" y="248" type="line"/>
			<point x="419" y="254" type="line"/>
			<point x="354" y="238"/>
			<point x="297" y="227"/>
			<point x="250" y="227" type="curve" smooth="yes"/>
			<point x="161" y="227"/>
			<point x="109" y="266"/>
			<point x="109" y="377" type="curve" smooth="yes"/>
			<point x="109" y="502" type="line"/>
			<point x="101" y="495" type="line"/>
			<point x="199" y="511" type="line"/>
			<point x="199" y="525" type="line"/>
			<point x="-1" y="520" type="line"/>
			<point x="-1" y="506" type="line"/>
			<point x="95" y="495" type="line"/>
			<point x="89" y="502" type="line"/>
			<point x="89" y="374" type="line" smooth="yes"/>
			<point x="89" y="253"/>
			<point x="147" y="207"/>
			<point x="246" y="207" type="curve" smooth="yes"/>
			<point x="294" y="207"/>
			<point x="353" y="218"/>
			<point x="419" y="236" type="curve"/>
			<point x="410" y="242" type="line"/>
			<point x="410" y="21" type="line"/>
			<point x="417" y="29" type="line"/>
			<point x="295" y="15" type="line"/>
		</contour>
		<contour>
			<point x="252" y="114" type="line"/>
			<point x="272" y="114" type="line"/>
			<point x="272" y="383" type="line"/>
			<point x="252" y="383" type="line"/>
		</contour>
	</outline>
</glyph>
<glyph name="cheabkhasian-cy" format="2">
	<advance width="612"/>
	<unicode hex="04BD"/>
	<outline>
		<contour>
			<point x="342" y="-6" type="curve" smooth="yes"/>
			<point x="404" y="-6"/>
			<point x="474" y="17"/>
			<point x="546" y="67" type="curve"/>
			<point x="535" y="82" type="line"/>
			<point x="469" y="36"/>
			<point x="403" y="13"/>
			<point x="345" y="13" type="curve" smooth="yes"/>
			<point x="233" y="13"/>
			<point x="151" y="98"/>
			<point x="151" y="256" type="curve" smooth="yes"/>
			<point x="151" y="408"/>
			<point x="227" y="509"/>
			<point x="354" y="509" type="curve" smooth="yes"/>
			<point x="481" y="509"/>
			<point x="524" y="407"/>
			<point x="524" y="296" type="curve"/>
			<point x="137" y="296" type="line" smooth="yes"/>
			<point x="77" y="296"/>
			<point x="50" y="314"/>
			<point x="50" y="355" type="curve" smooth="yes"/>
			<point x="50" y="375"/>
			<point x="56" y="399"/>
			<point x="67" y="430" type="curve"/>
			<point x="48" y="436" type="line"/>
			<point x="33" y="403"/>
			<point x="25" y="374"/>
			<point x="25" y="350" type="curve" smooth="yes"/>
			<point x="25" y="304"/>
			<point x="55" y="277"/>
			<point x="128" y="277" type="curve" smooth="yes"/>
			<point x="544" y="277" type="line"/>
			<point x="545" y="291"/>
			<point x="545" y="298"/>
			<point x="545" y="305" type="curve" smooth="yes"/>
			<point x="545" y="436"/>
			<point x="480" y="528"/>
			<point x="354" y="528" type="curve" smooth="yes"/>
			<point x="218" y="528"/>
			<point x="130" y="420"/>
			<point x="130" y="254" type="curve" smooth="yes"/>
			<point x="130" y="87"/>
			<point x="219" y="-6"/>
		</contour>
	</outline>
</glyph>
<glyph name="Chedescenderabkhasian-cy" format="2">
	<advance width="804"/>
	<unicode hex="04BE"/>
	<outline>
		<contour>
			<point x="440" y="-163" type="line"/>
			<point x="455" y="-163" type="line"/>
			<point x="463" y="5" type="line"/>
			<point x="432" y="4" type="line"/>
		</contour>
		<contour>
			<point x="448" y="-6" type="curve" smooth="yes"/>
			<point x="537" y="-6"/>
			<point x="638" y="32"/>
			<point x="698" y="101" type="curve"/>
			<point x="684" y="116" type="line"/>
			<point x="629" y="55"/>
			<point x="536" y="14"/>
			<point x="450" y="14" type="curve" smooth="yes"/>
			<point x="311" y="14"/>
			<point x="181" y="121"/>
			<point x="181" y="342" type="curve" smooth="yes"/>
			<point x="181" y="566"/>
			<point x="316" y="678"/>
			<point x="450" y="678" type="curve" smooth="yes"/>
			<point x="583" y="678"/>
			<point x="716" y="567"/>
			<point x="713" y="344" type="curve"/>
			<point x="722" y="352" type="line"/>
			<point x="144" y="352" type="line" smooth="yes"/>
			<point x="95" y="352"/>
			<point x="55" y="367"/>
			<point x="55" y="412" type="curve" smooth="yes"/>
			<point x="55" y="432"/>
			<point x="63" y="458"/>
			<point x="81" y="491" type="curve"/>
			<point x="62" y="497" type="line"/>
			<point x="41" y="460"/>
			<point x="32" y="431"/>
			<point x="32" y="407" type="curve" smooth="yes"/>
			<point x="32" y="353"/>
			<point x="81" y="333"/>
			<point x="140" y="333" type="curve" smooth="yes"/>
			<point x="735" y="333" type="line"/>
			<point x="735" y="361" type="line" smooth="yes"/>
			<point x="735" y="585"/>
			<point x="594" y="698"/>
			<point x="451" y="698" type="curve" smooth="yes"/>
			<point x="306" y="698"/>
			<point x="159" y="581"/>
			<point x="159" y="339" type="curve" smooth="yes"/>
			<point x="159" y="107"/>
			<point x="294" y="-6"/>
		</contour>
	</outline>
</glyph>
<glyph name="chedescenderabkhasian-cy" format="2">
	<advance width="612"/>
	<unicode hex="04BF"/>
	<outline>
		<contour>
			<point x="354" y="9" type="line"/>
			<point x="321" y="9" type="line"/>
			<point x="329" y="-145" type="line"/>
			<point x="346" y="-145" type="line"/>
		</contour>
		<contour>
			<point x="336" y="-6" type="curve" smooth="yes"/>
			<point x="398" y="-6"/>
			<point x="468" y="17"/>
			<point x="540" y="67" type="curve"/>
			<point x="529" y="82" type="line"/>
			<point x="463" y="36"/>
			<point x="397" y="13"/>
			<point x="339" y="13" type="curve" smooth="yes"/>
			<point x="227" y="13"/>
			<point x="145" y="98"/>
			<point x="145" y="256" type="curve" smooth="yes"/>
			<point x="145" y="408"/>
			<point x="221" y="509"/>
			<point x="348" y="509" type="curve" smooth="yes"/>
			<point x="475" y="509"/>
			<point x="518" y="407"/>
			<point x="518" y="296" type="curve"/>
			<point x="131" y="296" type="line" smooth="yes"/>
			<point x="71" y="296"/>
			<point x="44" y="314"/>
			<point x="44" y="355" type="curve" smooth="yes"/>
			<point x="44" y="375"/>
			<point x="50" y="399"/>
			<point x="61" y="430" type="curve"/>
			<point x="42" y="436" type="line"/>
			<point x="27" y="403"/>
			<point x="19" y="374"/>
			<point x="19" y="350" type="curve" smooth="yes"/>
			<point x="19" y="304"/>
			<point x="50" y="277"/>
			<point x="125" y="277" type="curve" smooth="yes"/>
			<point x="538" y="277" type="line"/>
			<point x="539" y="291"/>
			<point x="539" y="298"/>
			<point x="539" y="305" type="curve" smooth="yes"/>
			<point x="539" y="436"/>
			<point x="474" y="528"/>
			<point x="348" y="528" type="curve" smooth="yes"/>
			<point x="212" y="528"/>
			<point x="124" y="420"/>
			<point x="124" y="254" type="curve" smooth="yes"/>
			<point x="124" y="87"/>
			<point x="213" y="-6"/>
		</contour>
	</outline>
</glyph>
<glyph name="Kahook-cy" format="2">
	<advance width="665"/>
	<unicode hex="04C3"/>
	<guideline x="623" y="427" angle="90"/>
	<outline>
		<contour>
			<point x="333" y="365" type="curve"/>
			<point x="333" y="353" type="line"/>
			<point x="534" y="670" type="line"/>
			<point x="523" y="663" type="line"/>
			<point x="630" y="677" type="line"/>
			<point x="630" y="692" type="line"/>
			<point x="410" y="687" type="line"/>
			<point x="410" y="672" type="line"/>
			<point x="517" y="664" type="line"/>
			<point x="513" y="670" type="line"/>
			<point x="315" y="358" type="line"/>
			<point x="326" y="364" type="line"/>
			<point x="174" y="364" type="line"/>
			<point x="181" y="357" type="line"/>
			<point x="181" y="671" type="line"/>
			<point x="174" y="663" type="line"/>
			<point x="281" y="677" type="line"/>
			<point x="281" y="692" type="line"/>
			<point x="61" y="687" type="line"/>
			<point x="61" y="672" type="line"/>
			<point x="168" y="663" type="line"/>
			<point x="161" y="671" type="line"/>
			<point x="161" y="21" type="line"/>
			<point x="168" y="29" type="line"/>
			<point x="61" y="15" type="line"/>
			<point x="61" y="0" type="line"/>
			<point x="281" y="0" type="line"/>
			<point x="281" y="15" type="line"/>
			<point x="174" y="29" type="line"/>
			<point x="181" y="21" type="line"/>
			<point x="181" y="352" type="line"/>
			<point x="174" y="345" type="line"/>
			<point x="332" y="345" type="line"/>
			<point x="318" y="350" type="line"/>
			<point x="452" y="246"/>
			<point x="597" y="83"/>
			<point x="597" y="-58" type="curve" smooth="yes"/>
			<point x="597" y="-118"/>
			<point x="571" y="-174"/>
			<point x="505" y="-219" type="curve"/>
			<point x="516" y="-236" type="line"/>
			<point x="588" y="-185"/>
			<point x="618" y="-124"/>
			<point x="618" y="-57" type="curve" smooth="yes"/>
			<point x="618" y="82"/>
			<point x="485" y="242"/>
		</contour>
	</outline>
</glyph>
<glyph name="Dzeabkhasian-cy" format="2">
	<advance width="545"/>
	<unicode hex="04E0"/>
	<guideline x="472" y="453" angle="90"/>
	<guideline x="39" y="522" angle="0"/>
	<outline>
		<contour>
			<point x="247" y="-6" type="curve" smooth="yes"/>
			<point x="374" y="-6"/>
			<point x="472" y="60"/>
			<point x="472" y="193" type="curve" smooth="yes"/>
			<point x="472" y="292"/>
			<point x="416" y="377"/>
			<point x="246" y="377" type="curve"/>
			<point x="248" y="365" type="line"/>
			<point x="455" y="674" type="line"/>
			<point x="455" y="692" type="line"/>
			<point x="79" y="692" type="line"/>
			<point x="79" y="551" type="line"/>
			<point x="94" y="551" type="line"/>
			<point x="112" y="679" type="line"/>
			<point x="104" y="672" type="line"/>
			<point x="441" y="672" type="line"/>
			<point x="434" y="678" type="line"/>
			<point x="230" y="370" type="line"/>
			<point x="243" y="377" type="line"/>
			<point x="171" y="374" type="line"/>
			<point x="171" y="358" type="line"/>
			<point x="238" y="358" type="line" smooth="yes"/>
			<point x="405" y="358"/>
			<point x="451" y="282"/>
			<point x="451" y="194" type="curve" smooth="yes"/>
			<point x="451" y="72"/>
			<point x="363" y="14"/>
			<point x="252" y="14" type="curve" smooth="yes"/>
			<point x="192" y="14"/>
			<point x="126" y="31"/>
			<point x="62" y="63" type="curve"/>
			<point x="52" y="43" type="line"/>
			<point x="116" y="11"/>
			<point x="184" y="-6"/>
		</contour>
	</outline>
</glyph>
<glyph name="elhook-cy" format="2">
	<advance width="535"/>
	<unicode hex="0513"/>
	<outline>
		<contour>
			<point x="285" y="-236" type="curve" smooth="yes"/>
			<point x="378" y="-236"/>
			<point x="413" y="-187"/>
			<point x="413" y="-68" type="curve" smooth="yes"/>
			<point x="413" y="502" type="line"/>
			<point x="405" y="495" type="line"/>
			<point x="503" y="508" type="line"/>
			<point x="503" y="522" type="line"/>
			<point x="80" y="522" type="line"/>
			<point x="80" y="508" type="line"/>
			<point x="186" y="497" type="line"/>
			<point x="180" y="504" type="line"/>
			<point x="176" y="205"/>
			<point x="161" y="17"/>
			<point x="35" y="17" type="curve" smooth="yes"/>
			<point x="26" y="17"/>
			<point x="17" y="18"/>
			<point x="8" y="20" type="curve"/>
			<point x="5" y="-1" type="line"/>
			<point x="19" y="-4"/>
			<point x="31" y="-6"/>
			<point x="44" y="-6" type="curve" smooth="yes"/>
			<point x="170" y="-6"/>
			<point x="196" y="186"/>
			<point x="198" y="511" type="curve"/>
			<point x="190" y="503" type="line"/>
			<point x="399" y="503" type="line"/>
			<point x="393" y="510" type="line"/>
			<point x="393" y="-77" type="line" smooth="yes"/>
			<point x="393" y="-178"/>
			<point x="363" y="-217"/>
			<point x="285" y="-217" type="curve" smooth="yes"/>
			<point x="272" y="-217"/>
			<point x="263" y="-216"/>
			<point x="251" y="-215" type="curve"/>
			<point x="249" y="-234" type="line"/>
			<point x="262" y="-235"/>
			<point x="272" y="-236"/>
		</contour>
	</outline>
</glyph>
<glyph name="EnLeftHook-cy" format="2">
	<advance width="792"/>
	<unicode hex="0528"/>
	<outline>
		<contour>
			<point x="169" y="-109" type="curve" smooth="yes"/>
			<point x="169" y="349" type="line"/>
			<point x="162" y="342" type="line"/>
			<point x="619" y="342" type="line"/>
			<point x="612" y="349" type="line"/>
			<point x="612" y="21" type="line"/>
			<point x="619" y="29" type="line"/>
			<point x="512" y="15" type="line"/>
			<point x="512" y="0" type="line"/>
			<point x="732" y="0" type="line"/>
			<point x="732" y="15" type="line"/>
			<point x="625" y="29" type="line"/>
			<point x="632" y="21" type="line"/>
			<point x="632" y="671" type="line"/>
			<point x="625" y="663" type="line"/>
			<point x="732" y="677" type="line"/>
			<point x="732" y="692" type="line"/>
			<point x="512" y="687" type="line"/>
			<point x="512" y="672" type="line"/>
			<point x="619" y="664" type="line"/>
			<point x="612" y="671" type="line"/>
			<point x="612" y="354" type="line"/>
			<point x="619" y="361" type="line"/>
			<point x="162" y="361" type="line"/>
			<point x="169" y="354" type="line"/>
			<point x="169" y="671" type="line"/>
			<point x="162" y="663" type="line"/>
			<point x="269" y="677" type="line"/>
			<point x="269" y="692" type="line"/>
			<point x="49" y="687" type="line"/>
			<point x="49" y="672" type="line"/>
			<point x="156" y="663" type="line"/>
			<point x="149" y="671" type="line"/>
			<point x="149" y="-109" type="line" smooth="yes"/>
			<point x="149" y="-185"/>
			<point x="114" y="-217"/>
			<point x="37" y="-217" type="curve" smooth="yes"/>
			<point x="23" y="-217"/>
			<point x="13" y="-216"/>
			<point x="1" y="-215" type="curve"/>
			<point x="-1" y="-234" type="line"/>
			<point x="12" y="-235"/>
			<point x="24" y="-236"/>
			<point x="38" y="-236" type="curve" smooth="yes"/>
			<point x="120" y="-236"/>
			<point x="169" y="-202"/>
		</contour>
	</outline>
</glyph>
<glyph name="Germandbls" format="2">
	<advance width="715"/>
	<unicode hex="1E9E"/>
	<outline>
		<contour>
			<point x="440" y="-6" type="curve" smooth="yes"/>
			<point x="563" y="-6"/>
			<point x="655" y="61"/>
			<point x="655" y="196" type="curve" smooth="yes"/>
			<point x="655" y="345"/>
			<point x="542" y="386"/>
			<point x="376" y="396" type="curve"/>
			<point x="378" y="387" type="line"/>
			<point x="584" y="671" type="line"/>
			<point x="584" y="692" type="line"/>
			<point x="181" y="692" type="line"/>
			<point x="60" y="687" type="line"/>
			<point x="60" y="672" type="line"/>
			<point x="167" y="662" type="line"/>
			<point x="160" y="670" type="line"/>
			<point x="160" y="21" type="line"/>
			<point x="167" y="29" type="line"/>
			<point x="60" y="15" type="line"/>
			<point x="60" y="0" type="line"/>
			<point x="180" y="0" type="line"/>
			<point x="180" y="680" type="line"/>
			<point x="173" y="672" type="line"/>
			<point x="571" y="673" type="line"/>
			<point x="570" y="685" type="line"/>
			<point x="360" y="397" type="line"/>
			<point x="360" y="378" type="line"/>
			<point x="530" y="369"/>
			<point x="633" y="333"/>
			<point x="633" y="196" type="curve" smooth="yes"/>
			<point x="633" y="75"/>
			<point x="552" y="14"/>
			<point x="442" y="14" type="curve" smooth="yes"/>
			<point x="404" y="14"/>
			<point x="360" y="20"/>
			<point x="314" y="32" type="curve"/>
			<point x="319" y="24" type="line"/>
			<point x="307" y="137" type="line"/>
			<point x="292" y="137" type="line"/>
			<point x="286" y="19" type="line"/>
			<point x="340" y="3"/>
			<point x="395" y="-6"/>
		</contour>
	</outline>
</glyph>
<glyph name="figuredash" format="2">
	<advance width="680"/>
	<unicode hex="2012"/>
	<outline>
		<contour>
			<point x="590" y="367" type="line"/>
			<point x="90" y="367" type="line"/>
			<point x="90" y="348" type="line"/>
			<point x="590" y="348" type="line"/>
		</contour>
	</outline>
</glyph>
<glyph name="dagger" format="2">
	<advance width="465"/>
	<unicode hex="2020"/>
	<outline>
		<contour>
			<point x="232" y="496" type="line"/>
			<point x="424" y="509" type="line"/>
			<point x="424" y="522" type="line"/>
			<point x="233" y="522" type="line"/>
			<point x="241" y="513" type="line"/>
			<point x="243" y="696" type="line"/>
			<point x="223" y="696" type="line"/>
			<point x="224" y="513" type="line"/>
			<point x="232" y="522" type="line"/>
			<point x="41" y="522" type="line"/>
			<point x="41" y="509" type="line"/>
		</contour>
		<contour>
			<point x="232" y="-51" type="line"/>
			<point x="241" y="-40" type="line"/>
			<point x="243" y="424" type="line"/>
			<point x="233" y="421" type="line"/>
			<point x="223" y="424" type="line"/>
			<point x="223" y="-40" type="line"/>
		</contour>
	</outline>
</glyph>
<glyph name="bullet" format="2">
	<advance width="333"/>
	<unicode hex="2022"/>
	<outline>
		<contour>
			<point x="98" y="320" type="curve" smooth="yes"/>
			<point x="98" y="277"/>
			<point x="125" y="249"/>
			<point x="167" y="249" type="curve" smooth="yes"/>
			<point x="203" y="249"/>
			<point x="235" y="277"/>
			<point x="235" y="320" type="curve" smooth="yes"/>
			<point x="235" y="363"/>
			<point x="208" y="391"/>
			<point x="167" y="391" type="curve" smooth="yes"/>
			<point x="132" y="391"/>
			<point x="98" y="363"/>
		</contour>
	</outline>
</glyph>
<glyph name="minute" format="2">
	<advance width="272"/>
	<unicode hex="2032"/>
	<outline>
		<contour>
			<point x="90" y="539" type="line"/>
			<point x="104" y="539" type="line"/>
			<point x="182" y="762" type="line"/>
			<point x="152" y="762" type="line"/>
		</contour>
	</outline>
</glyph>
<glyph name="guilsinglleft" format="2">
	<advance width="302"/>
	<unicode hex="2039"/>
	<guideline x="100" y="81" angle="0"/>
	<guideline x="100" y="460" angle="0"/>
	<outline>
		<contour>
			<point x="209" y="81" type="line"/>
			<point x="221" y="91" type="line"/>
			<point x="82" y="278" type="line"/>
			<point x="82" y="264" type="line"/>
			<point x="221" y="450" type="line"/>
			<point x="209" y="460" type="line"/>
			<point x="67" y="281" type="line"/>
			<point x="67" y="260" type="line"/>
		</contour>
	</outline>
</glyph>
<glyph name="overline" format="2">
	<advance width="380"/>
	<unicode hex="203E"/>
	<outline>
		<contour>
			<point x="360" y="652" type="line"/>
			<point x="20" y="652" type="line"/>
			<point x="20" y="637" type="line"/>
			<point x="360" y="637" type="line"/>
		</contour>
	</outline>
</glyph>
<glyph name="fraction" format="2">
	<advance width="113"/>
	<unicode hex="2044"/>
	<guideline x="38" y="-4" angle="0"/>
	<guideline x="38" y="696" angle="0"/>
	<outline>
		<contour>
			<point x="-180" y="-4" type="line"/>
			<point x="-158" y="-4" type="line"/>
			<point x="293" y="696" type="line"/>
			<point x="271" y="696" type="line"/>
		</contour>
	</outline>
</glyph>
<glyph name="nmod" format="2">
	<advance width="481"/>
	<unicode hex="207F"/>
	<guideline x="131" y="321" angle="0"/>
	<outline>
		<contour>
			<point x="43" y="321" type="line"/>
			<point x="202" y="321" type="line"/>
			<point x="202" y="336" type="line"/>
			<point x="126" y="346" type="line"/>
			<point x="132" y="340" type="line"/>
			<point x="132" y="610" type="line"/>
			<point x="125" y="598" type="line"/>
			<point x="178" y="654"/>
			<point x="237" y="679"/>
			<point x="286" y="679" type="curve" smooth="yes"/>
			<point x="345" y="679"/>
			<point x="379" y="643"/>
			<point x="379" y="571" type="curve" smooth="yes"/>
			<point x="379" y="340" type="line"/>
			<point x="384" y="346" type="line"/>
			<point x="310" y="336" type="line"/>
			<point x="310" y="321" type="line"/>
			<point x="468" y="321" type="line"/>
			<point x="468" y="336" type="line"/>
			<point x="394" y="346" type="line"/>
			<point x="399" y="340" type="line"/>
			<point x="399" y="575" type="line" smooth="yes"/>
			<point x="399" y="659"/>
			<point x="352" y="698"/>
			<point x="286" y="698" type="curve" smooth="yes"/>
			<point x="234" y="698"/>
			<point x="176" y="674"/>
			<point x="125" y="620" type="curve"/>
			<point x="132" y="618" type="line"/>
			<point x="128" y="696" type="line"/>
			<point x="43" y="692" type="line"/>
			<point x="43" y="677" type="line"/>
			<point x="118" y="667" type="line"/>
			<point x="112" y="676" type="line"/>
			<point x="112" y="340" type="line"/>
			<point x="118" y="346" type="line"/>
			<point x="43" y="336" type="line"/>
		</contour>
	</outline>
</glyph>
<glyph name="peseta" format="2">
	<advance width="682"/>
	<unicode hex="20A7"/>
	<guideline x="61" y="426" angle="90"/>
	<outline>
		<contour>
			<point x="61" y="0" type="line"/>
			<point x="306" y="0" type="line"/>
			<point x="306" y="15" type="line"/>
			<point x="172" y="29" type="line"/>
			<point x="181" y="19" type="line"/>
			<point x="181" y="294" type="line"/>
			<point x="172" y="285" type="line"/>
			<point x="280" y="285" type="line" smooth="yes"/>
			<point x="434" y="285"/>
			<point x="525" y="359"/>
			<point x="531" y="486" type="curve"/>
			<point x="522" y="480" type="line"/>
			<point x="627" y="480" type="line"/>
			<point x="627" y="499" type="line"/>
			<point x="523" y="499" type="line"/>
			<point x="532" y="490" type="line"/>
			<point x="532" y="500" type="line" smooth="yes"/>
			<point x="532" y="619"/>
			<point x="458" y="692"/>
			<point x="317" y="692" type="curve" smooth="yes"/>
			<point x="182" y="692" type="line"/>
			<point x="61" y="687" type="line"/>
			<point x="61" y="672" type="line"/>
			<point x="170" y="663" type="line"/>
			<point x="161" y="673" type="line"/>
			<point x="161" y="490" type="line"/>
			<point x="170" y="499" type="line"/>
			<point x="61" y="499" type="line"/>
			<point x="61" y="480" type="line"/>
			<point x="170" y="480" type="line"/>
			<point x="161" y="489" type="line"/>
			<point x="161" y="19" type="line"/>
			<point x="170" y="29" type="line"/>
			<point x="61" y="15" type="line"/>
		</contour>
		<contour>
			<point x="181" y="295" type="line"/>
			<point x="181" y="489" type="line"/>
			<point x="172" y="480" type="line"/>
			<point x="518" y="480" type="line"/>
			<point x="509" y="486" type="line"/>
			<point x="504" y="371"/>
			<point x="421" y="304"/>
			<point x="281" y="304" type="curve" smooth="yes"/>
			<point x="172" y="304" type="line"/>
		</contour>
		<contour>
			<point x="315" y="673" type="line" smooth="yes"/>
			<point x="446" y="673"/>
			<point x="513" y="604"/>
			<point x="510" y="492" type="curve"/>
			<point x="519" y="499" type="line"/>
			<point x="172" y="499" type="line"/>
			<point x="181" y="490" type="line"/>
			<point x="181" y="682" type="line"/>
			<point x="172" y="673" type="line"/>
		</contour>
	</outline>
</glyph>
<glyph name="won" format="2">
	<advance width="1027"/>
	<unicode hex="20A9"/>
	<outline>
		<contour>
			<point x="281" y="-2" type="line"/>
			<point x="304" y="-2" type="line"/>
			<point x="407" y="321" type="line"/>
			<point x="387" y="319" type="line"/>
			<point x="292" y="22" type="line"/>
			<point x="296" y="21" type="line"/>
			<point x="217" y="317" type="line"/>
			<point x="196" y="318" type="line"/>
		</contour>
		<contour>
			<point x="169" y="418" type="line"/>
			<point x="191" y="416" type="line"/>
			<point x="123" y="671" type="line"/>
			<point x="118" y="663" type="line"/>
			<point x="241" y="677" type="line"/>
			<point x="241" y="692" type="line"/>
			<point x="7" y="687" type="line"/>
			<point x="7" y="672" type="line"/>
			<point x="111" y="663" type="line"/>
			<point x="102" y="671" type="line"/>
		</contour>
		<contour>
			<point x="50" y="310" type="line"/>
			<point x="973" y="310" type="line"/>
			<point x="973" y="329" type="line"/>
			<point x="50" y="329" type="line"/>
		</contour>
		<contour>
			<point x="857" y="421" type="line"/>
			<point x="928" y="670" type="line"/>
			<point x="919" y="663" type="line"/>
			<point x="1020" y="677" type="line"/>
			<point x="1020" y="692" type="line"/>
			<point x="791" y="687" type="line"/>
			<point x="791" y="672" type="line"/>
			<point x="913" y="664" type="line"/>
			<point x="908" y="670" type="line"/>
			<point x="836" y="417" type="line"/>
		</contour>
		<contour>
			<point x="50" y="410" type="line"/>
			<point x="973" y="410" type="line"/>
			<point x="973" y="429" type="line"/>
			<point x="50" y="429" type="line"/>
		</contour>
		<contour>
			<point x="608" y="419" type="line"/>
			<point x="525" y="692" type="line"/>
			<point x="506" y="689" type="line"/>
			<point x="420" y="421" type="line"/>
			<point x="439" y="420" type="line"/>
			<point x="517" y="662" type="line"/>
			<point x="513" y="662" type="line"/>
			<point x="588" y="417" type="line"/>
		</contour>
		<contour>
			<point x="715" y="-2" type="line"/>
			<point x="736" y="-2" type="line"/>
			<point x="828" y="320" type="line"/>
			<point x="808" y="319" type="line"/>
			<point x="724" y="24" type="line"/>
			<point x="728" y="24" type="line"/>
			<point x="638" y="321" type="line"/>
			<point x="617" y="320" type="line"/>
		</contour>
	</outline>
</glyph>
<glyph name="ruble" format="2">
	<advance width="644"/>
	<unicode hex="20BD"/>
	<outline>
		<contour>
			<point x="132" y="285" type="line"/>
			<point x="343" y="285" type="line" smooth="yes"/>
			<point x="502" y="285"/>
			<point x="595" y="365"/>
			<point x="595" y="500" type="curve" smooth="yes"/>
			<point x="595" y="619"/>
			<point x="521" y="692"/>
			<point x="380" y="692" type="curve" smooth="yes"/>
			<point x="245" y="692" type="line"/>
			<point x="124" y="687" type="line"/>
			<point x="124" y="672" type="line"/>
			<point x="233" y="663" type="line"/>
			<point x="224" y="673" type="line"/>
			<point x="224" y="295" type="line"/>
			<point x="233" y="304" type="line"/>
			<point x="132" y="304" type="line"/>
		</contour>
		<contour>
			<point x="124" y="0" type="line"/>
			<point x="369" y="0" type="line"/>
			<point x="369" y="15" type="line"/>
			<point x="235" y="29" type="line"/>
			<point x="244" y="19" type="line"/>
			<point x="244" y="195" type="line"/>
			<point x="235" y="186" type="line"/>
			<point x="445" y="186" type="line"/>
			<point x="445" y="205" type="line"/>
			<point x="132" y="205" type="line"/>
			<point x="132" y="186" type="line"/>
			<point x="233" y="186" type="line"/>
			<point x="224" y="195" type="line"/>
			<point x="224" y="19" type="line"/>
			<point x="233" y="29" type="line"/>
			<point x="124" y="15" type="line"/>
		</contour>
		<contour>
			<point x="244" y="295" type="line"/>
			<point x="244" y="682" type="line"/>
			<point x="235" y="673" type="line"/>
			<point x="378" y="673" type="line" smooth="yes"/>
			<point x="506" y="673"/>
			<point x="573" y="607"/>
			<point x="573" y="499" type="curve" smooth="yes"/>
			<point x="573" y="377"/>
			<point x="489" y="304"/>
			<point x="344" y="304" type="curve" smooth="yes"/>
			<point x="235" y="304" type="line"/>
		</contour>
	</outline>
</glyph>
<glyph name="numero" format="2">
	<advance width="1280"/>
	<unicode hex="2116"/>
	<outline>
		<contour>
			<point x="1009" y="698" type="curve" smooth="yes"/>
			<point x="900" y="698"/>
			<point x="832" y="614"/>
			<point x="832" y="494" type="curve" smooth="yes"/>
			<point x="832" y="377"/>
			<point x="896" y="307"/>
			<point x="997" y="307" type="curve" smooth="yes"/>
			<point x="1110" y="307"/>
			<point x="1178" y="394"/>
			<point x="1178" y="510" type="curve" smooth="yes"/>
			<point x="1178" y="624"/>
			<point x="1111" y="698"/>
		</contour>
		<contour>
			<point x="1007" y="679" type="curve" smooth="yes"/>
			<point x="1100" y="679"/>
			<point x="1157" y="612"/>
			<point x="1157" y="507" type="curve" smooth="yes"/>
			<point x="1157" y="403"/>
			<point x="1099" y="326"/>
			<point x="998" y="326" type="curve" smooth="yes"/>
			<point x="907" y="326"/>
			<point x="853" y="389"/>
			<point x="853" y="495" type="curve" smooth="yes"/>
			<point x="853" y="603"/>
			<point x="909" y="679"/>
		</contour>
		<contour>
			<point x="1162" y="225" type="line"/>
			<point x="848" y="225" type="line"/>
			<point x="848" y="206" type="line"/>
			<point x="1162" y="206" type="line"/>
		</contour>
		<contour>
			<point x="544" y="687" type="line"/>
			<point x="544" y="672" type="line"/>
			<point x="651" y="665" type="line"/>
			<point x="644" y="672" type="line"/>
			<point x="644" y="30" type="line"/>
			<point x="648" y="31" type="line"/>
			<point x="186" y="692" type="line"/>
			<point x="61" y="687" type="line"/>
			<point x="61" y="672" type="line"/>
			<point x="168" y="663" type="line"/>
			<point x="161" y="671" type="line"/>
			<point x="161" y="21" type="line"/>
			<point x="168" y="29" type="line"/>
			<point x="61" y="15" type="line"/>
			<point x="61" y="0" type="line"/>
			<point x="281" y="0" type="line"/>
			<point x="281" y="15" type="line"/>
			<point x="174" y="29" type="line"/>
			<point x="181" y="21" type="line"/>
			<point x="181" y="670" type="line"/>
			<point x="177" y="669" type="line"/>
			<point x="644" y="0" type="line"/>
			<point x="664" y="0" type="line"/>
			<point x="664" y="671" type="line"/>
			<point x="657" y="663" type="line"/>
			<point x="764" y="677" type="line"/>
			<point x="764" y="692" type="line"/>
		</contour>
	</outline>
</glyph>
<glyph name="upArrow" format="2">
	<advance width="704"/>
	<unicode hex="2191"/>
	<outline>
		<contour>
			<point x="342" y="672" type="line"/>
			<point x="342" y="0" type="line"/>
			<point x="362" y="0" type="line"/>
			<point x="362" y="672" type="line"/>
			<point x="350" y="672" type="line"/>
			<point x="641" y="398" type="line"/>
			<point x="654" y="412" type="line"/>
			<point x="359" y="692" type="line"/>
			<point x="345" y="692" type="line"/>
			<point x="50" y="412" type="line"/>
			<point x="63" y="398" type="line"/>
			<point x="354" y="672" type="line"/>
		</contour>
	</outline>
</glyph>
<glyph name="upDownArrow" format="2">
	<advance width="704"/>
	<unicode hex="2195"/>
	<outline>
		<contour>
			<point x="343" y="802" type="line"/>
			<point x="343" y="-106" type="line"/>
			<point x="355" y="-106" type="line"/>
			<point x="64" y="168" type="line"/>
			<point x="51" y="154" type="line"/>
			<point x="346" y="-126" type="line"/>
			<point x="360" y="-126" type="line"/>
			<point x="655" y="154" type="line"/>
			<point x="642" y="168" type="line"/>
			<point x="351" y="-106" type="line"/>
			<point x="363" y="-106" type="line"/>
			<point x="363" y="802" type="line"/>
			<point x="351" y="802" type="line"/>
			<point x="642" y="528" type="line"/>
			<point x="655" y="542" type="line"/>
			<point x="360" y="822" type="line"/>
			<point x="346" y="822" type="line"/>
			<point x="51" y="542" type="line"/>
			<point x="64" y="528" type="line"/>
			<point x="355" y="802" type="line"/>
		</contour>
	</outline>
</glyph>
<glyph name="upDownbaseArrow" format="2">
	<advance width="704"/>
	<unicode hex="21A8"/>
	<outline>
		<contour>
			<point x="346" y="-126" type="line"/>
			<point x="360" y="-126" type="line"/>
			<point x="655" y="154" type="line"/>
			<point x="642" y="168" type="line"/>
			<point x="351" y="-106" type="line"/>
			<point x="363" y="-106" type="line"/>
			<point x="363" y="802" type="line"/>
			<point x="351" y="802" type="line"/>
			<point x="642" y="528" type="line"/>
			<point x="655" y="542" type="line"/>
			<point x="360" y="822" type="line"/>
			<point x="346" y="822" type="line"/>
			<point x="51" y="542" type="line"/>
			<point x="64" y="528" type="line"/>
			<point x="355" y="802" type="line"/>
			<point x="343" y="802" type="line"/>
			<point x="343" y="-106" type="line"/>
			<point x="355" y="-106" type="line"/>
			<point x="64" y="168" type="line"/>
			<point x="51" y="154" type="line"/>
		</contour>
		<contour>
			<point x="71" y="-180" type="line"/>
			<point x="635" y="-180" type="line"/>
			<point x="635" y="-161" type="line"/>
			<point x="71" y="-161" type="line"/>
		</contour>
	</outline>
</glyph>
<glyph name="minus" format="2">
	<advance width="570"/>
	<unicode hex="2212"/>
	<outline>
		<contour>
			<point x="502" y="358" type="line"/>
			<point x="68" y="358" type="line"/>
			<point x="68" y="339" type="line"/>
			<point x="502" y="339" type="line"/>
		</contour>
	</outline>
</glyph>
<glyph name="orthogonal" format="2">
	<advance width="655"/>
	<unicode hex="221F"/>
	<outline>
		<contour>
			<point x="622" y="19" type="line"/>
			<point x="110" y="19" type="line"/>
			<point x="120" y="10" type="line"/>
			<point x="120" y="522" type="line"/>
			<point x="100" y="522" type="line"/>
			<point x="100" y="0" type="line"/>
			<point x="622" y="0" type="line"/>
		</contour>
	</outline>
</glyph>
<glyph name="intersection" format="2">
	<advance width="744"/>
	<unicode hex="2229"/>
	<outline>
		<contour>
			<point x="158" y="0" type="line"/>
			<point x="178" y="0" type="line"/>
			<point x="178" y="439" type="line" smooth="yes"/>
			<point x="178" y="592"/>
			<point x="225" y="679"/>
			<point x="376" y="679" type="curve" smooth="yes"/>
			<point x="512" y="679"/>
			<point x="566" y="605"/>
			<point x="566" y="448" type="curve" smooth="yes"/>
			<point x="566" y="0" type="line"/>
			<point x="586" y="0" type="line"/>
			<point x="586" y="448" type="line" smooth="yes"/>
			<point x="586" y="615"/>
			<point x="524" y="698"/>
			<point x="375" y="698" type="curve" smooth="yes"/>
			<point x="213" y="698"/>
			<point x="158" y="603"/>
			<point x="158" y="439" type="curve" smooth="yes"/>
		</contour>
	</outline>
</glyph>
<glyph name="integraltp" format="2">
	<advance width="354"/>
	<unicode hex="2320"/>
	<outline>
		<contour>
			<point x="168" y="-230" type="line"/>
			<point x="188" y="-230" type="line"/>
			<point x="188" y="673" type="line" smooth="yes"/>
			<point x="188" y="771"/>
			<point x="227" y="805"/>
			<point x="289" y="805" type="curve" smooth="yes"/>
			<point x="314" y="805"/>
			<point x="342" y="799"/>
			<point x="374" y="790" type="curve"/>
			<point x="379" y="809" type="line"/>
			<point x="347" y="818"/>
			<point x="317" y="824"/>
			<point x="290" y="824" type="curve" smooth="yes"/>
			<point x="217" y="824"/>
			<point x="168" y="783"/>
			<point x="168" y="673" type="curve" smooth="yes"/>
		</contour>
	</outline>
</glyph>
<glyph name="fl" format="2">
	<advance width="602"/>
	<unicode hex="FB02"/>
	<anchor x="469" y="0" name="caret_1"/>
	<outline>
		<contour>
			<point x="46" y="0" type="line"/>
			<point x="266" y="0" type="line"/>
			<point x="266" y="15" type="line"/>
			<point x="149" y="29" type="line"/>
			<point x="156" y="21" type="line"/>
			<point x="156" y="506" type="line"/>
			<point x="149" y="499" type="line"/>
			<point x="308" y="499" type="line"/>
			<point x="310" y="518" type="line"/>
			<point x="149" y="518" type="line"/>
			<point x="156" y="510" type="line"/>
			<point x="156" y="610" type="line" smooth="yes"/>
			<point x="156" y="646"/>
			<point x="156" y="749"/>
			<point x="327" y="749" type="curve" smooth="yes"/>
			<point x="365" y="749"/>
			<point x="414" y="744"/>
			<point x="464" y="733" type="curve"/>
			<point x="459" y="742" type="line"/>
			<point x="459" y="21" type="line"/>
			<point x="466" y="29" type="line"/>
			<point x="369" y="15" type="line"/>
			<point x="369" y="0" type="line"/>
			<point x="569" y="0" type="line"/>
			<point x="569" y="15" type="line"/>
			<point x="472" y="29" type="line"/>
			<point x="479" y="21" type="line"/>
			<point x="479" y="755" type="line"/>
			<point x="450" y="752" type="line"/>
			<point x="465" y="752" type="line"/>
			<point x="417" y="763"/>
			<point x="370" y="768"/>
			<point x="331" y="768" type="curve" smooth="yes"/>
			<point x="215" y="768"/>
			<point x="136" y="727"/>
			<point x="136" y="607" type="curve" smooth="yes"/>
			<point x="136" y="510" type="line"/>
			<point x="143" y="518" type="line"/>
			<point x="46" y="513" type="line"/>
			<point x="46" y="499" type="line"/>
			<point x="143" y="499" type="line"/>
			<point x="136" y="506" type="line"/>
			<point x="136" y="21" type="line"/>
			<point x="143" y="29" type="line"/>
			<point x="46" y="15" type="line"/>
		</contour>
	</outline>
</glyph>
<glyph name="Ef-cy.loclBGR" format="2">
	<advance width="776"/>
	<outline>
		<contour>
			<point x="498" y="697" type="line"/>
			<point x="498" y="712" type="line"/>
			<point x="278" y="707" type="line"/>
			<point x="278" y="692" type="line"/>
			<point x="385" y="683" type="line"/>
			<point x="378" y="691" type="line"/>
			<point x="378" y="-35" type="line"/>
			<point x="385" y="-27" type="line"/>
			<point x="278" y="-41" type="line"/>
			<point x="278" y="-56" type="line"/>
			<point x="498" y="-56" type="line"/>
			<point x="498" y="-41" type="line"/>
			<point x="391" y="-27" type="line"/>
			<point x="398" y="-35" type="line"/>
			<point x="398" y="691" type="line"/>
			<point x="391" y="683" type="line"/>
		</contour>
		<contour>
			<point x="378" y="69" type="curve" smooth="yes"/>
			<point x="575" y="69"/>
			<point x="718" y="155"/>
			<point x="718" y="344" type="curve" smooth="yes"/>
			<point x="718" y="534"/>
			<point x="573" y="604"/>
			<point x="393" y="604" type="curve" smooth="yes"/>
			<point x="204" y="604"/>
			<point x="58" y="527"/>
			<point x="58" y="332" type="curve" smooth="yes"/>
			<point x="58" y="143"/>
			<point x="196" y="69"/>
		</contour>
		<contour>
			<point x="380" y="89" type="curve" smooth="yes"/>
			<point x="208" y="89"/>
			<point x="80" y="154"/>
			<point x="80" y="333" type="curve" smooth="yes"/>
			<point x="80" y="517"/>
			<point x="214" y="584"/>
			<point x="391" y="584" type="curve" smooth="yes"/>
			<point x="566" y="584"/>
			<point x="696" y="518"/>
			<point x="696" y="341" type="curve" smooth="yes"/>
			<point x="696" y="160"/>
			<point x="560" y="89"/>
		</contour>
	</outline>
</glyph>
<glyph name="a.sc" format="2">
	<advance width="617"/>
	<anchor x="310" y="0" name="bottom"/>
	<anchor x="617" y="0" name="ogonek"/>
	<anchor x="314" y="568" name="top"/>
	<outline>
		<contour>
			<point x="533" y="20" type="line"/>
			<point x="324" y="570" type="line"/>
			<point x="306" y="568" type="line"/>
			<point x="83" y="20" type="line"/>
			<point x="92" y="26" type="line"/>
			<point x="0" y="14" type="line"/>
			<point x="0" y="0" type="line"/>
			<point x="206" y="0" type="line"/>
			<point x="206" y="14" type="line"/>
			<point x="100" y="26" type="line"/>
			<point x="102" y="20" type="line"/>
			<point x="164" y="174" type="line"/>
			<point x="155" y="168" type="line"/>
			<point x="461" y="168" type="line"/>
			<point x="453" y="177" type="line"/>
			<point x="512" y="20" type="line"/>
			<point x="514" y="26" type="line"/>
			<point x="406" y="14" type="line"/>
			<point x="406" y="0" type="line"/>
			<point x="617" y="0" type="line"/>
			<point x="617" y="14" type="line"/>
			<point x="524" y="26" type="line"/>
		</contour>
		<contour>
			<point x="167" y="181" type="line"/>
			<point x="318" y="557" type="line"/>
			<point x="311" y="556" type="line"/>
			<point x="452" y="180" type="line"/>
			<point x="453" y="186" type="line"/>
			<point x="163" y="186" type="line"/>
		</contour>
	</outline>
</glyph>
<glyph name="ampersand.sc" format="2">
	<advance width="697"/>
	<guideline x="502" y="492" angle="90"/>
	<outline>
		<contour>
			<point x="327" y="-6" type="curve" smooth="yes"/>
			<point x="448" y="-6"/>
			<point x="541" y="51"/>
			<point x="541" y="172" type="curve" smooth="yes"/>
			<point x="541" y="298" type="line"/>
			<point x="534" y="291" type="line"/>
			<point x="627" y="303" type="line"/>
			<point x="627" y="317" type="line"/>
			<point x="357" y="317" type="line" smooth="yes"/>
			<point x="223" y="317"/>
			<point x="148" y="360"/>
			<point x="148" y="440" type="curve" smooth="yes"/>
			<point x="148" y="525"/>
			<point x="235" y="555"/>
			<point x="340" y="555" type="curve" smooth="yes"/>
			<point x="389" y="555"/>
			<point x="442" y="549"/>
			<point x="492" y="538" type="curve"/>
			<point x="486" y="544" type="line"/>
			<point x="496" y="442" type="line"/>
			<point x="511" y="442" type="line"/>
			<point x="516" y="549" type="line"/>
			<point x="458" y="565"/>
			<point x="396" y="574"/>
			<point x="339" y="574" type="curve" smooth="yes"/>
			<point x="222" y="574"/>
			<point x="127" y="536"/>
			<point x="127" y="438" type="curve" smooth="yes"/>
			<point x="127" y="374"/>
			<point x="169" y="319"/>
			<point x="284" y="307" type="curve"/>
			<point x="284" y="308" type="line"/>
			<point x="175" y="299"/>
			<point x="109" y="241"/>
			<point x="109" y="155" type="curve" smooth="yes"/>
			<point x="109" y="53"/>
			<point x="199" y="-6"/>
		</contour>
		<contour>
			<point x="330" y="13" type="curve" smooth="yes"/>
			<point x="211" y="13"/>
			<point x="130" y="69"/>
			<point x="130" y="157" type="curve" smooth="yes"/>
			<point x="130" y="234"/>
			<point x="194" y="298"/>
			<point x="352" y="298" type="curve" smooth="yes"/>
			<point x="528" y="298" type="line"/>
			<point x="521" y="304" type="line"/>
			<point x="521" y="169" type="line" smooth="yes"/>
			<point x="521" y="63"/>
			<point x="439" y="13"/>
		</contour>
	</outline>
</glyph>
<glyph name="asterisk.alt" format="2">
	<advance width="516"/>
	<outline>
		<contour>
			<point x="258" y="620" type="line"/>
			<point x="267" y="631" type="line"/>
			<point x="272" y="762" type="line"/>
			<point x="244" y="762" type="line"/>
			<point x="249" y="631" type="line"/>
		</contour>
		<contour>
			<point x="255" y="617" type="line"/>
			<point x="249" y="631" type="line"/>
			<point x="135" y="703" type="line"/>
			<point x="122" y="678" type="line"/>
			<point x="240" y="616" type="line"/>
		</contour>
		<contour>
			<point x="255" y="613" type="line"/>
			<point x="240" y="616" type="line"/>
			<point x="122" y="553" type="line"/>
			<point x="135" y="529" type="line"/>
			<point x="249" y="601" type="line"/>
		</contour>
		<contour>
			<point x="258" y="611" type="line"/>
			<point x="249" y="601" type="line"/>
			<point x="244" y="470" type="line"/>
			<point x="272" y="470" type="line"/>
			<point x="267" y="601" type="line"/>
		</contour>
		<contour>
			<point x="262" y="613" type="line"/>
			<point x="267" y="601" type="line"/>
			<point x="381" y="529" type="line"/>
			<point x="394" y="553" type="line"/>
			<point x="275" y="616" type="line"/>
		</contour>
		<contour>
			<point x="261" y="617" type="line"/>
			<point x="275" y="616" type="line"/>
			<point x="394" y="678" type="line"/>
			<point x="381" y="703" type="line"/>
			<point x="267" y="631" type="line"/>
		</contour>
	</outline>
</glyph>
<glyph name="backslash.case" format="2">
	<advance width="288"/>
	<outline>
		<contour>
			<point x="9" y="792" type="line"/>
			<point x="261" y="-79" type="line"/>
			<point x="282" y="-79" type="line"/>
			<point x="30" y="792" type="line"/>
		</contour>
	</outline>
</glyph>
<glyph name="be-cy.loclSRB" format="2">
	<advance width="556"/>
	<guideline x="502" y="692" angle="90"/>
	<outline>
		<contour>
			<point x="270" y="-6" type="curve" smooth="yes"/>
			<point x="387" y="-6"/>
			<point x="502" y="80"/>
			<point x="502" y="249" type="curve" smooth="yes"/>
			<point x="502" y="556"/>
			<point x="124" y="499"/>
			<point x="124" y="655" type="curve" smooth="yes"/>
			<point x="124" y="706"/>
			<point x="164" y="723"/>
			<point x="219" y="723" type="curve" smooth="yes"/>
			<point x="452" y="723" type="line"/>
			<point x="450" y="819" type="line"/>
			<point x="433" y="819" type="line"/>
			<point x="421" y="733" type="line"/>
			<point x="430" y="742" type="line"/>
			<point x="224" y="742" type="line" smooth="yes"/>
			<point x="150" y="742"/>
			<point x="103" y="714"/>
			<point x="103" y="653" type="curve" smooth="yes"/>
			<point x="103" y="554"/>
			<point x="229" y="535"/>
			<point x="343" y="470" type="curve"/>
			<point x="346" y="478" type="line"/>
			<point x="327" y="483"/>
			<point x="306" y="486"/>
			<point x="283" y="486" type="curve" smooth="yes"/>
			<point x="143" y="486"/>
			<point x="55" y="379"/>
			<point x="55" y="231" type="curve" smooth="yes"/>
			<point x="55" y="71"/>
			<point x="159" y="-6"/>
		</contour>
		<contour>
			<point x="271" y="13" type="curve" smooth="yes"/>
			<point x="171" y="13"/>
			<point x="76" y="83"/>
			<point x="76" y="232" type="curve" smooth="yes"/>
			<point x="76" y="367"/>
			<point x="153" y="469"/>
			<point x="281" y="469" type="curve" smooth="yes"/>
			<point x="402" y="469"/>
			<point x="481" y="379"/>
			<point x="481" y="245" type="curve" smooth="yes"/>
			<point x="481" y="92"/>
			<point x="377" y="13"/>
		</contour>
	</outline>
</glyph>
<glyph name="bracketleft.case" format="2">
	<advance width="341"/>
	<guideline x="120" y="-94" angle="0"/>
	<guideline x="120" y="798" angle="0"/>
	<outline>
		<contour>
			<point x="138" y="-94" type="line"/>
			<point x="322" y="-89" type="line"/>
			<point x="322" y="-73" type="line"/>
			<point x="158" y="-71" type="line"/>
			<point x="158" y="775" type="line"/>
			<point x="322" y="777" type="line"/>
			<point x="322" y="793" type="line"/>
			<point x="138" y="798" type="line"/>
		</contour>
	</outline>
</glyph>
<glyph name="brevecomb-cy" format="2">
	<advance width="395"/>
	<anchor x="198" y="522" name="_top"/>
	<outline>
		<contour>
			<point x="200" y="649" type="curve" smooth="yes"/>
			<point x="260" y="649"/>
			<point x="307" y="676"/>
			<point x="309" y="738" type="curve"/>
			<point x="286" y="737" type="line"/>
			<point x="284" y="686"/>
			<point x="250" y="667"/>
			<point x="203" y="667" type="curve" smooth="yes"/>
			<point x="154" y="667"/>
			<point x="115" y="689"/>
			<point x="111" y="738" type="curve"/>
			<point x="86" y="736" type="line"/>
			<point x="92" y="675"/>
			<point x="140" y="649"/>
		</contour>
	</outline>
</glyph>
<glyph name="caroncomb.alt" format="2">
	<advance width="141"/>
	<anchor x="120" y="762" name="_topright"/>
	<outline>
		<contour>
			<point x="93" y="586" type="line"/>
			<point x="118" y="664"/>
			<point x="135" y="724"/>
			<point x="141" y="763" type="curve"/>
			<point x="111" y="766" type="line"/>
			<point x="108" y="724"/>
			<point x="95" y="664"/>
			<point x="79" y="590" type="curve"/>
		</contour>
	</outline>
</glyph>
<glyph name="dieresiscaroncomb.case" format="2">
	<advance width="481"/>
	<anchor x="242" y="692" name="_top"/>
	<outline>
		<contour>
			<point x="347" y="744" type="curve" smooth="yes"/>
			<point x="360" y="744"/>
			<point x="372" y="755"/>
			<point x="372" y="773" type="curve" smooth="yes"/>
			<point x="372" y="792"/>
			<point x="362" y="803"/>
			<point x="347" y="803" type="curve" smooth="yes"/>
			<point x="333" y="803"/>
			<point x="322" y="792"/>
			<point x="322" y="773" type="curve" smooth="yes"/>
			<point x="322" y="755"/>
			<point x="332" y="744"/>
		</contour>
		<contour>
			<point x="137" y="744" type="curve" smooth="yes"/>
			<point x="150" y="744"/>
			<point x="162" y="755"/>
			<point x="162" y="773" type="curve" smooth="yes"/>
			<point x="162" y="792"/>
			<point x="152" y="803"/>
			<point x="137" y="803" type="curve" smooth="yes"/>
			<point x="123" y="803"/>
			<point x="112" y="792"/>
			<point x="112" y="773" type="curve" smooth="yes"/>
			<point x="112" y="755"/>
			<point x="122" y="744"/>
		</contour>
		<contour>
			<point x="370" y="906" type="line"/>
			<point x="238" y="811" type="line"/>
			<point x="247" y="811" type="line"/>
			<point x="113" y="906" type="line"/>
			<point x="102" y="893" type="line"/>
			<point x="235" y="786" type="line"/>
			<point x="250" y="786" type="line"/>
			<point x="381" y="893" type="line"/>
		</contour>
	</outline>
</glyph>
<glyph name="dieresiscaroncomb" format="2">
	<advance width="481"/>
	<anchor x="241" y="522" name="_top"/>
	<outline>
		<contour>
			<point x="333" y="624" type="curve" smooth="yes"/>
			<point x="346" y="624"/>
			<point x="358" y="635"/>
			<point x="358" y="653" type="curve" smooth="yes"/>
			<point x="358" y="672"/>
			<point x="348" y="683"/>
			<point x="333" y="683" type="curve" smooth="yes"/>
			<point x="319" y="683"/>
			<point x="308" y="672"/>
			<point x="308" y="653" type="curve" smooth="yes"/>
			<point x="308" y="635"/>
			<point x="318" y="624"/>
		</contour>
		<contour>
			<point x="149" y="624" type="curve" smooth="yes"/>
			<point x="162" y="624"/>
			<point x="174" y="635"/>
			<point x="174" y="653" type="curve" smooth="yes"/>
			<point x="174" y="672"/>
			<point x="164" y="683"/>
			<point x="149" y="683" type="curve" smooth="yes"/>
			<point x="135" y="683"/>
			<point x="124" y="672"/>
			<point x="124" y="653" type="curve" smooth="yes"/>
			<point x="124" y="635"/>
			<point x="134" y="624"/>
		</contour>
		<contour>
			<point x="369" y="795" type="line"/>
			<point x="237" y="700" type="line"/>
			<point x="246" y="700" type="line"/>
			<point x="110" y="795" type="line"/>
			<point x="99" y="782" type="line"/>
			<point x="234" y="675" type="line"/>
			<point x="249" y="675" type="line"/>
			<point x="380" y="782" type="line"/>
		</contour>
	</outline>
</glyph>
<glyph name="dieresisgravecomb" format="2">
	<advance width="441"/>
	<anchor x="219" y="522" name="_top"/>
	<outline>
		<contour>
			<point x="307" y="624" type="curve" smooth="yes"/>
			<point x="320" y="624"/>
			<point x="332" y="635"/>
			<point x="332" y="653" type="curve" smooth="yes"/>
			<point x="332" y="672"/>
			<point x="322" y="683"/>
			<point x="307" y="683" type="curve" smooth="yes"/>
			<point x="293" y="683"/>
			<point x="282" y="672"/>
			<point x="282" y="653" type="curve" smooth="yes"/>
			<point x="282" y="635"/>
			<point x="292" y="624"/>
		</contour>
		<contour>
			<point x="130" y="624" type="curve" smooth="yes"/>
			<point x="143" y="624"/>
			<point x="155" y="635"/>
			<point x="155" y="653" type="curve" smooth="yes"/>
			<point x="155" y="672"/>
			<point x="145" y="683"/>
			<point x="130" y="683" type="curve" smooth="yes"/>
			<point x="116" y="683"/>
			<point x="105" y="672"/>
			<point x="105" y="653" type="curve" smooth="yes"/>
			<point x="105" y="635"/>
			<point x="115" y="624"/>
		</contour>
		<contour>
			<point x="224" y="671" type="line"/>
			<point x="237" y="683" type="line"/>
			<point x="136" y="794" type="line"/>
			<point x="114" y="772" type="line"/>
		</contour>
	</outline>
</glyph>
<glyph name="eight.osf" format="2">
	<advance width="601"/>
	<outline>
		<contour>
			<point x="294" y="-5" type="curve" smooth="yes"/>
			<point x="405" y="-5"/>
			<point x="508" y="66"/>
			<point x="508" y="187" type="curve" smooth="yes"/>
			<point x="508" y="421"/>
			<point x="125" y="322"/>
			<point x="125" y="530" type="curve" smooth="yes"/>
			<point x="125" y="629"/>
			<point x="212" y="679"/>
			<point x="308" y="679" type="curve" smooth="yes"/>
			<point x="400" y="679"/>
			<point x="485" y="632"/>
			<point x="485" y="534" type="curve" smooth="yes"/>
			<point x="485" y="426"/>
			<point x="384" y="393"/>
			<point x="309" y="369" type="curve"/>
			<point x="322" y="357" type="line"/>
			<point x="386" y="374"/>
			<point x="506" y="412"/>
			<point x="506" y="535" type="curve" smooth="yes"/>
			<point x="506" y="643"/>
			<point x="414" y="698"/>
			<point x="309" y="698" type="curve" smooth="yes"/>
			<point x="203" y="698"/>
			<point x="104" y="642"/>
			<point x="104" y="529" type="curve" smooth="yes"/>
			<point x="104" y="306"/>
			<point x="486" y="406"/>
			<point x="486" y="185" type="curve" smooth="yes"/>
			<point x="486" y="80"/>
			<point x="398" y="14"/>
			<point x="296" y="14" type="curve" smooth="yes"/>
			<point x="200" y="14"/>
			<point x="112" y="73"/>
			<point x="112" y="180" type="curve" smooth="yes"/>
			<point x="112" y="306"/>
			<point x="235" y="347"/>
			<point x="289" y="367" type="curve"/>
			<point x="269" y="377" type="line"/>
			<point x="214" y="359"/>
			<point x="90" y="313"/>
			<point x="90" y="179" type="curve" smooth="yes"/>
			<point x="90" y="60"/>
			<point x="187" y="-5"/>
		</contour>
	</outline>
</glyph>
<glyph name="eng.sc" format="2">
	<advance width="732"/>
	<outline>
		<contour>
			<point x="474" y="-236" type="curve" smooth="yes"/>
			<point x="568" y="-236"/>
			<point x="600" y="-188"/>
			<point x="600" y="-69" type="curve" smooth="yes"/>
			<point x="600" y="549" type="line"/>
			<point x="593" y="542" type="line"/>
			<point x="689" y="554" type="line"/>
			<point x="689" y="568" type="line"/>
			<point x="476" y="564" type="line"/>
			<point x="476" y="550" type="line"/>
			<point x="586" y="543" type="line"/>
			<point x="580" y="550" type="line"/>
			<point x="580" y="23" type="line"/>
			<point x="588" y="23" type="line"/>
			<point x="169" y="568" type="line"/>
			<point x="54" y="564" type="line"/>
			<point x="54" y="550" type="line"/>
			<point x="150" y="542" type="line"/>
			<point x="143" y="549" type="line"/>
			<point x="143" y="19" type="line"/>
			<point x="150" y="26" type="line"/>
			<point x="54" y="14" type="line"/>
			<point x="54" y="0" type="line"/>
			<point x="267" y="0" type="line"/>
			<point x="267" y="14" type="line"/>
			<point x="157" y="26" type="line"/>
			<point x="163" y="19" type="line"/>
			<point x="163" y="551" type="line"/>
			<point x="155" y="551" type="line"/>
			<point x="584" y="-8" type="line"/>
			<point x="580" y="4" type="line"/>
			<point x="580" y="-78" type="line" smooth="yes"/>
			<point x="580" y="-179"/>
			<point x="550" y="-217"/>
			<point x="472" y="-217" type="curve" smooth="yes"/>
			<point x="459" y="-217"/>
			<point x="450" y="-216"/>
			<point x="438" y="-215" type="curve"/>
			<point x="436" y="-234" type="line"/>
			<point x="449" y="-235"/>
			<point x="460" y="-236"/>
		</contour>
	</outline>
</glyph>
<glyph name="esdescender-cy.loclBSH" format="2">
	<advance width="511"/>
	<anchor x="287" y="522" name="top"/>
	<outline>
		<contour>
			<point x="310" y="-167" type="curve" smooth="yes"/>
			<point x="326" y="-167"/>
			<point x="343" y="-154"/>
			<point x="343" y="-126" type="curve" smooth="yes"/>
			<point x="343" y="-85"/>
			<point x="307" y="-32"/>
			<point x="275" y="0" type="curve"/>
			<point x="248" y="2" type="line"/>
			<point x="283" y="-29"/>
			<point x="309" y="-69"/>
			<point x="318" y="-111" type="curve"/>
			<point x="319" y="-96" type="line"/>
			<point x="280" y="-138" type="line"/>
			<point x="282" y="-157"/>
			<point x="296" y="-167"/>
		</contour>
		<contour>
			<point x="273" y="-6" type="curve" smooth="yes"/>
			<point x="330" y="-6"/>
			<point x="395" y="17"/>
			<point x="460" y="66" type="curve"/>
			<point x="449" y="82" type="line"/>
			<point x="390" y="36"/>
			<point x="330" y="14"/>
			<point x="277" y="14" type="curve" smooth="yes"/>
			<point x="168" y="14"/>
			<point x="85" y="103"/>
			<point x="85" y="255" type="curve" smooth="yes"/>
			<point x="85" y="412"/>
			<point x="170" y="509"/>
			<point x="292" y="509" type="curve" smooth="yes"/>
			<point x="324" y="509"/>
			<point x="375" y="502"/>
			<point x="420" y="479" type="curve"/>
			<point x="415" y="488" type="line"/>
			<point x="427" y="382" type="line"/>
			<point x="446" y="382" type="line"/>
			<point x="449" y="486" type="line"/>
			<point x="399" y="516"/>
			<point x="337" y="528"/>
			<point x="296" y="528" type="curve" smooth="yes"/>
			<point x="167" y="528"/>
			<point x="64" y="431"/>
			<point x="64" y="253" type="curve" smooth="yes"/>
			<point x="64" y="91"/>
			<point x="155" y="-6"/>
		</contour>
	</outline>
</glyph>
<glyph name="f_b" format="2">
	<advance width="921"/>
	<anchor x="156" y="0" name="bottom"/>
	<anchor x="626" y="0" name="caret_1"/>
	<outline>
		<contour>
			<point x="604" y="-6" type="curve" smooth="yes"/>
			<point x="760" y="-6"/>
			<point x="857" y="84"/>
			<point x="857" y="263" type="curve" smooth="yes"/>
			<point x="857" y="433"/>
			<point x="769" y="528"/>
			<point x="660" y="528" type="curve" smooth="yes"/>
			<point x="602" y="528"/>
			<point x="538" y="500"/>
			<point x="477" y="441" type="curve"/>
			<point x="481" y="437" type="line"/>
			<point x="481" y="755" type="line"/>
			<point x="452" y="752" type="line"/>
			<point x="467" y="752" type="line"/>
			<point x="419" y="763"/>
			<point x="372" y="768"/>
			<point x="333" y="768" type="curve" smooth="yes"/>
			<point x="217" y="768"/>
			<point x="136" y="727"/>
			<point x="136" y="607" type="curve" smooth="yes"/>
			<point x="136" y="510" type="line"/>
			<point x="143" y="518" type="line"/>
			<point x="46" y="513" type="line"/>
			<point x="46" y="499" type="line"/>
			<point x="143" y="499" type="line"/>
			<point x="136" y="506" type="line"/>
			<point x="136" y="21" type="line"/>
			<point x="143" y="29" type="line"/>
			<point x="46" y="15" type="line"/>
			<point x="46" y="0" type="line"/>
			<point x="266" y="0" type="line"/>
			<point x="266" y="15" type="line"/>
			<point x="149" y="29" type="line"/>
			<point x="156" y="21" type="line"/>
			<point x="156" y="506" type="line"/>
			<point x="149" y="499" type="line"/>
			<point x="308" y="499" type="line"/>
			<point x="310" y="518" type="line"/>
			<point x="149" y="518" type="line"/>
			<point x="156" y="510" type="line"/>
			<point x="156" y="610" type="line" smooth="yes"/>
			<point x="156" y="714"/>
			<point x="225" y="749"/>
			<point x="328" y="749" type="curve" smooth="yes"/>
			<point x="367" y="749"/>
			<point x="416" y="744"/>
			<point x="466" y="733" type="curve"/>
			<point x="461" y="741" type="line"/>
			<point x="461" y="15" type="line"/>
			<point x="513" y="1"/>
			<point x="561" y="-6"/>
		</contour>
		<contour>
			<point x="610" y="13" type="curve" smooth="yes"/>
			<point x="569" y="13"/>
			<point x="524" y="20"/>
			<point x="476" y="33" type="curve"/>
			<point x="481" y="22" type="line"/>
			<point x="481" y="432" type="line"/>
			<point x="477" y="417" type="line"/>
			<point x="537" y="480"/>
			<point x="601" y="509"/>
			<point x="658" y="509" type="curve" smooth="yes"/>
			<point x="757" y="509"/>
			<point x="836" y="420"/>
			<point x="836" y="262" type="curve" smooth="yes"/>
			<point x="836" y="101"/>
			<point x="754" y="13"/>
		</contour>
	</outline>
</glyph>
<glyph name="f_f" format="2">
	<advance width="641"/>
	<anchor x="146" y="0" name="caret_1"/>
	<outline>
		<contour>
			<point x="46" y="0" type="line"/>
			<point x="256" y="0" type="line"/>
			<point x="256" y="15" type="line"/>
			<point x="149" y="29" type="line"/>
			<point x="156" y="21" type="line"/>
			<point x="156" y="506" type="line"/>
			<point x="149" y="499" type="line"/>
			<point x="465" y="499" type="line"/>
			<point x="465" y="518" type="line"/>
			<point x="149" y="517" type="line"/>
			<point x="156" y="509" type="line"/>
			<point x="156" y="600" type="line" smooth="yes"/>
			<point x="156" y="689"/>
			<point x="219" y="733"/>
			<point x="297" y="733" type="curve" smooth="yes"/>
			<point x="354" y="733"/>
			<point x="418" y="712"/>
			<point x="475" y="674" type="curve"/>
			<point x="483" y="692" type="line"/>
			<point x="423" y="730"/>
			<point x="356" y="751"/>
			<point x="296" y="751" type="curve" smooth="yes"/>
			<point x="207" y="751"/>
			<point x="136" y="703"/>
			<point x="136" y="597" type="curve" smooth="yes"/>
			<point x="136" y="509" type="line"/>
			<point x="143" y="517" type="line"/>
			<point x="46" y="513" type="line"/>
			<point x="46" y="499" type="line"/>
			<point x="143" y="499" type="line"/>
			<point x="136" y="506" type="line"/>
			<point x="136" y="21" type="line"/>
			<point x="143" y="29" type="line"/>
			<point x="46" y="15" type="line"/>
		</contour>
		<contour>
			<point x="365" y="0" type="line"/>
			<point x="585" y="0" type="line"/>
			<point x="585" y="15" type="line"/>
			<point x="468" y="29" type="line"/>
			<point x="475" y="21" type="line"/>
			<point x="475" y="506" type="line"/>
			<point x="468" y="499" type="line"/>
			<point x="628" y="499" type="line"/>
			<point x="630" y="518" type="line"/>
			<point x="468" y="518" type="line"/>
			<point x="475" y="509" type="line"/>
			<point x="475" y="615" type="line" smooth="yes"/>
			<point x="475" y="705"/>
			<point x="520" y="749"/>
			<point x="597" y="749" type="curve" smooth="yes"/>
			<point x="625" y="749"/>
			<point x="655" y="743"/>
			<point x="690" y="733" type="curve"/>
			<point x="696" y="750" type="line"/>
			<point x="660" y="762"/>
			<point x="627" y="768"/>
			<point x="598" y="768" type="curve" smooth="yes"/>
			<point x="512" y="768"/>
			<point x="455" y="719"/>
			<point x="455" y="612" type="curve" smooth="yes"/>
			<point x="455" y="21" type="line"/>
			<point x="462" y="29" type="line"/>
			<point x="365" y="15" type="line"/>
		</contour>
	</outline>
</glyph>
<glyph name="f_f_j" format="2">
	<advance width="905"/>
	<outline>
		<contour>
			<point x="46" y="0" type="line"/>
			<point x="256" y="0" type="line"/>
			<point x="256" y="15" type="line"/>
			<point x="149" y="29" type="line"/>
			<point x="156" y="21" type="line"/>
			<point x="156" y="511" type="line"/>
			<point x="149" y="503" type="line"/>
			<point x="464" y="503" type="line"/>
			<point x="464" y="522" type="line"/>
			<point x="149" y="522" type="line"/>
			<point x="156" y="514" type="line"/>
			<point x="156" y="600" type="line" smooth="yes"/>
			<point x="156" y="690"/>
			<point x="219" y="733"/>
			<point x="297" y="733" type="curve" smooth="yes"/>
			<point x="354" y="733"/>
			<point x="418" y="712"/>
			<point x="474" y="674" type="curve"/>
			<point x="485" y="691" type="line"/>
			<point x="425" y="729"/>
			<point x="356" y="751"/>
			<point x="296" y="751" type="curve" smooth="yes"/>
			<point x="207" y="751"/>
			<point x="136" y="703"/>
			<point x="136" y="597" type="curve" smooth="yes"/>
			<point x="136" y="514" type="line"/>
			<point x="143" y="522" type="line"/>
			<point x="46" y="518" type="line"/>
			<point x="46" y="504" type="line"/>
			<point x="143" y="504" type="line"/>
			<point x="136" y="511" type="line"/>
			<point x="136" y="21" type="line"/>
			<point x="143" y="29" type="line"/>
			<point x="46" y="15" type="line"/>
		</contour>
		<contour>
			<point x="783" y="503" type="line"/>
			<point x="776" y="511" type="line"/>
			<point x="776" y="-77" type="line" smooth="yes"/>
			<point x="776" y="-179"/>
			<point x="746" y="-217"/>
			<point x="666" y="-217" type="curve" smooth="yes"/>
			<point x="656" y="-217"/>
			<point x="646" y="-216"/>
			<point x="634" y="-215" type="curve"/>
			<point x="632" y="-234" type="line"/>
			<point x="644" y="-235"/>
			<point x="656" y="-236"/>
			<point x="664" y="-236" type="curve" smooth="yes"/>
			<point x="781" y="-236"/>
			<point x="796" y="-163"/>
			<point x="796" y="-68" type="curve" smooth="yes"/>
			<point x="796" y="525" type="line"/>
			<point x="468" y="522" type="line"/>
			<point x="475" y="513" type="line"/>
			<point x="475" y="615" type="line" smooth="yes"/>
			<point x="475" y="705"/>
			<point x="520" y="749"/>
			<point x="597" y="749" type="curve" smooth="yes"/>
			<point x="627" y="749"/>
			<point x="661" y="742"/>
			<point x="699" y="730" type="curve"/>
			<point x="705" y="747" type="line"/>
			<point x="666" y="761"/>
			<point x="630" y="768"/>
			<point x="598" y="768" type="curve" smooth="yes"/>
			<point x="512" y="768"/>
			<point x="455" y="719"/>
			<point x="455" y="612" type="curve" smooth="yes"/>
			<point x="455" y="21" type="line"/>
			<point x="462" y="29" type="line"/>
			<point x="365" y="15" type="line"/>
			<point x="365" y="0" type="line"/>
			<point x="585" y="0" type="line"/>
			<point x="585" y="15" type="line"/>
			<point x="468" y="29" type="line"/>
			<point x="475" y="21" type="line"/>
			<point x="475" y="510" type="line"/>
			<point x="468" y="503" type="line"/>
		</contour>
		<contour>
			<point x="778" y="665" type="curve" smooth="yes"/>
			<point x="793" y="665"/>
			<point x="805" y="675"/>
			<point x="805" y="694" type="curve" smooth="yes"/>
			<point x="805" y="712"/>
			<point x="795" y="724"/>
			<point x="779" y="724" type="curve" smooth="yes"/>
			<point x="764" y="724"/>
			<point x="753" y="713"/>
			<point x="753" y="694" type="curve" smooth="yes"/>
			<point x="753" y="676"/>
			<point x="763" y="665"/>
		</contour>
	</outline>
</glyph>
<glyph name="five.dnom" format="2">
	<advance width="350"/>
	<outline>
		<contour>
			<point x="163" y="-4" type="curve" smooth="yes"/>
			<point x="247" y="-4"/>
			<point x="302" y="46"/>
			<point x="302" y="126" type="curve" smooth="yes"/>
			<point x="302" y="243"/>
			<point x="184" y="243"/>
			<point x="132" y="243" type="curve" smooth="yes"/>
			<point x="90" y="243" type="line"/>
			<point x="96" y="237" type="line"/>
			<point x="102" y="403" type="line"/>
			<point x="97" y="398" type="line"/>
			<point x="285" y="398" type="line"/>
			<point x="285" y="416" type="line"/>
			<point x="83" y="416" type="line"/>
			<point x="75" y="226" type="line"/>
			<point x="119" y="226" type="line" smooth="yes"/>
			<point x="176" y="226"/>
			<point x="282" y="226"/>
			<point x="282" y="122" type="curve" smooth="yes"/>
			<point x="282" y="50"/>
			<point x="232" y="14"/>
			<point x="164" y="14" type="curve" smooth="yes"/>
			<point x="132" y="14"/>
			<point x="96" y="22"/>
			<point x="61" y="37" type="curve"/>
			<point x="54" y="22" type="line"/>
			<point x="91" y="5"/>
			<point x="128" y="-4"/>
		</contour>
	</outline>
</glyph>
<glyph name="g.sc" format="2">
	<advance width="677"/>
	<anchor x="344" y="0" name="bottom"/>
	<anchor x="349" y="568" name="top"/>
	<outline>
		<contour>
			<point x="340" y="-6" type="curve" smooth="yes"/>
			<point x="406" y="-6"/>
			<point x="477" y="9"/>
			<point x="556" y="37" type="curve"/>
			<point x="556" y="241" type="line"/>
			<point x="548" y="234" type="line"/>
			<point x="632" y="245" type="line"/>
			<point x="632" y="260" type="line"/>
			<point x="438" y="255" type="line"/>
			<point x="438" y="241" type="line"/>
			<point x="541" y="234" type="line"/>
			<point x="536" y="241" type="line"/>
			<point x="536" y="43" type="line"/>
			<point x="539" y="51" type="line"/>
			<point x="467" y="27"/>
			<point x="401" y="13"/>
			<point x="342" y="13" type="curve" smooth="yes"/>
			<point x="189" y="13"/>
			<point x="89" y="106"/>
			<point x="89" y="275" type="curve" smooth="yes"/>
			<point x="89" y="453"/>
			<point x="199" y="555"/>
			<point x="348" y="555" type="curve" smooth="yes"/>
			<point x="405" y="555"/>
			<point x="474" y="540"/>
			<point x="531" y="521" type="curve"/>
			<point x="526" y="528" type="line"/>
			<point x="535" y="418" type="line"/>
			<point x="552" y="418" type="line"/>
			<point x="556" y="533" type="line"/>
			<point x="486" y="561"/>
			<point x="416" y="574"/>
			<point x="356" y="574" type="curve" smooth="yes"/>
			<point x="188" y="574"/>
			<point x="67" y="471"/>
			<point x="67" y="275" type="curve" smooth="yes"/>
			<point x="67" y="92"/>
			<point x="173" y="-6"/>
		</contour>
	</outline>
</glyph>
<glyph name="h.sc" format="2">
	<advance width="724"/>
	<anchor x="363" y="0" name="bottom"/>
	<anchor x="363" y="288" name="center"/>
	<anchor x="363" y="568" name="top"/>
	<anchor x="20" y="568" name="topleft"/>
	<outline>
		<contour>
			<point x="54" y="0" type="line"/>
			<point x="268" y="0" type="line"/>
			<point x="268" y="14" type="line"/>
			<point x="157" y="26" type="line"/>
			<point x="164" y="19" type="line"/>
			<point x="164" y="286" type="line"/>
			<point x="157" y="279" type="line"/>
			<point x="567" y="279" type="line"/>
			<point x="561" y="286" type="line"/>
			<point x="561" y="19" type="line"/>
			<point x="567" y="26" type="line"/>
			<point x="458" y="14" type="line"/>
			<point x="458" y="0" type="line"/>
			<point x="671" y="0" type="line"/>
			<point x="671" y="14" type="line"/>
			<point x="575" y="26" type="line"/>
			<point x="581" y="19" type="line"/>
			<point x="581" y="549" type="line"/>
			<point x="575" y="542" type="line"/>
			<point x="671" y="554" type="line"/>
			<point x="671" y="568" type="line"/>
			<point x="458" y="564" type="line"/>
			<point x="458" y="550" type="line"/>
			<point x="567" y="543" type="line"/>
			<point x="561" y="549" type="line"/>
			<point x="561" y="291" type="line"/>
			<point x="567" y="298" type="line"/>
			<point x="157" y="298" type="line"/>
			<point x="164" y="291" type="line"/>
			<point x="164" y="549" type="line"/>
			<point x="157" y="542" type="line"/>
			<point x="268" y="554" type="line"/>
			<point x="268" y="568" type="line"/>
			<point x="54" y="564" type="line"/>
			<point x="54" y="550" type="line"/>
			<point x="150" y="542" type="line"/>
			<point x="144" y="549" type="line"/>
			<point x="144" y="19" type="line"/>
			<point x="150" y="26" type="line"/>
			<point x="54" y="14" type="line"/>
		</contour>
	</outline>
</glyph>
<glyph name="hbar.bolder" format="2">
	<advance width="610"/>
	<guideline x="33" y="702" angle="90"/>
	<outline>
		<contour>
			<point x="33" y="0" type="line"/>
			<point x="233" y="0" type="line"/>
			<point x="233" y="15" type="line"/>
			<point x="136" y="29" type="line"/>
			<point x="143" y="21" type="line"/>
			<point x="143" y="414" type="line"/>
			<point x="139" y="403" type="line"/>
			<point x="208" y="476"/>
			<point x="285" y="509"/>
			<point x="347" y="509" type="curve" smooth="yes"/>
			<point x="426" y="509"/>
			<point x="478" y="463"/>
			<point x="476" y="363" type="curve" smooth="yes"/>
			<point x="476" y="0" type="line"/>
			<point x="586" y="0" type="line"/>
			<point x="586" y="15" type="line"/>
			<point x="489" y="29" type="line"/>
			<point x="496" y="21" type="line"/>
			<point x="496" y="368" type="line" smooth="yes"/>
			<point x="498" y="477"/>
			<point x="436" y="528"/>
			<point x="348" y="528" type="curve" smooth="yes"/>
			<point x="283" y="528"/>
			<point x="206" y="497"/>
			<point x="139" y="427" type="curve"/>
			<point x="143" y="424" type="line"/>
			<point x="143" y="762" type="line"/>
			<point x="123" y="762" type="line"/>
			<point x="123" y="21" type="line"/>
			<point x="130" y="29" type="line"/>
			<point x="33" y="15" type="line"/>
		</contour>
		<contour>
			<point x="33" y="622" type="line"/>
			<point x="348" y="622" type="line"/>
			<point x="348" y="641" type="line"/>
			<point x="33" y="641" type="line"/>
		</contour>
	</outline>
</glyph>
<glyph name="j.sc" format="2">
	<advance width="287"/>
	<anchor x="145" y="0" name="bottom"/>
	<anchor x="145" y="568" name="top"/>
	<outline>
		<contour>
			<point x="36" y="564" type="line"/>
			<point x="36" y="550" type="line"/>
			<point x="141" y="543" type="line"/>
			<point x="135" y="549" type="line"/>
			<point x="135" y="4" type="line" smooth="yes"/>
			<point x="135" y="-57"/>
			<point x="102" y="-84"/>
			<point x="37" y="-84" type="curve" smooth="yes"/>
			<point x="25" y="-84"/>
			<point x="13" y="-83"/>
			<point x="1" y="-82" type="curve"/>
			<point x="-1" y="-101" type="line"/>
			<point x="10" y="-102"/>
			<point x="24" y="-103"/>
			<point x="37" y="-103" type="curve" smooth="yes"/>
			<point x="107" y="-103"/>
			<point x="155" y="-73"/>
			<point x="155" y="6" type="curve" smooth="yes"/>
			<point x="155" y="549" type="line"/>
			<point x="149" y="542" type="line"/>
			<point x="246" y="554" type="line"/>
			<point x="246" y="568" type="line"/>
		</contour>
	</outline>
</glyph>
<glyph name="k.sc" format="2">
	<advance width="632"/>
	<anchor x="312" y="0" name="bottom"/>
	<anchor x="312" y="568" name="top"/>
	<outline>
		<contour>
			<point x="538" y="20" type="line"/>
			<point x="313" y="299" type="line"/>
			<point x="313" y="289" type="line"/>
			<point x="495" y="549" type="line"/>
			<point x="484" y="543" type="line"/>
			<point x="579" y="555" type="line"/>
			<point x="579" y="569" type="line"/>
			<point x="371" y="565" type="line"/>
			<point x="371" y="551" type="line"/>
			<point x="476" y="544" type="line"/>
			<point x="473" y="549" type="line"/>
			<point x="295" y="294" type="line"/>
			<point x="305" y="300" type="line"/>
			<point x="157" y="300" type="line"/>
			<point x="164" y="294" type="line"/>
			<point x="164" y="550" type="line"/>
			<point x="157" y="543" type="line"/>
			<point x="262" y="555" type="line"/>
			<point x="262" y="569" type="line"/>
			<point x="53" y="565" type="line"/>
			<point x="53" y="551" type="line"/>
			<point x="150" y="543" type="line"/>
			<point x="144" y="550" type="line"/>
			<point x="144" y="19" type="line"/>
			<point x="150" y="26" type="line"/>
			<point x="53" y="14" type="line"/>
			<point x="53" y="0" type="line"/>
			<point x="262" y="0" type="line"/>
			<point x="262" y="14" type="line"/>
			<point x="157" y="26" type="line"/>
			<point x="164" y="19" type="line"/>
			<point x="164" y="288" type="line"/>
			<point x="157" y="281" type="line"/>
			<point x="311" y="281" type="line"/>
			<point x="300" y="286" type="line"/>
			<point x="513" y="20" type="line"/>
			<point x="515" y="26" type="line"/>
			<point x="416" y="14" type="line"/>
			<point x="416" y="0" type="line"/>
			<point x="623" y="0" type="line"/>
			<point x="623" y="14" type="line"/>
			<point x="527" y="26" type="line"/>
		</contour>
	</outline>
</glyph>
<glyph name="lslash.sc" format="2">
	<advance width="506"/>
	<outline>
		<contour>
			<point x="63" y="205" type="line"/>
			<point x="72" y="190" type="line"/>
			<point x="361" y="365" type="line"/>
			<point x="353" y="380" type="line"/>
		</contour>
		<contour>
			<point x="469" y="121" type="line"/>
			<point x="455" y="12" type="line"/>
			<point x="463" y="18" type="line"/>
			<point x="178" y="18" type="line"/>
			<point x="185" y="12" type="line"/>
			<point x="185" y="548" type="line"/>
			<point x="178" y="541" type="line"/>
			<point x="288" y="554" type="line"/>
			<point x="288" y="568" type="line"/>
			<point x="74" y="564" type="line"/>
			<point x="74" y="550" type="line"/>
			<point x="171" y="541" type="line"/>
			<point x="165" y="548" type="line"/>
			<point x="165" y="19" type="line"/>
			<point x="171" y="26" type="line"/>
			<point x="74" y="14" type="line"/>
			<point x="74" y="0" type="line"/>
			<point x="485" y="0" type="line"/>
			<point x="485" y="121" type="line"/>
		</contour>
	</outline>
</glyph>
<glyph name="nine.dnom" format="2">
	<advance width="373"/>
	<outline>
		<contour>
			<point x="299" y="240" type="line"/>
			<point x="261" y="208"/>
			<point x="214" y="191"/>
			<point x="170" y="191" type="curve" smooth="yes"/>
			<point x="112" y="191"/>
			<point x="67" y="221"/>
			<point x="67" y="292" type="curve" smooth="yes"/>
			<point x="67" y="359"/>
			<point x="107" y="403"/>
			<point x="178" y="403" type="curve" smooth="yes"/>
			<point x="257" y="403"/>
			<point x="296" y="348"/>
			<point x="296" y="235" type="curve" smooth="yes"/>
			<point x="296" y="99"/>
			<point x="240" y="14"/>
			<point x="131" y="14" type="curve" smooth="yes"/>
			<point x="114" y="14"/>
			<point x="94" y="16"/>
			<point x="73" y="21" type="curve"/>
			<point x="69" y="4" type="line"/>
			<point x="91" y="-1"/>
			<point x="112" y="-3"/>
			<point x="130" y="-3" type="curve" smooth="yes"/>
			<point x="250" y="-3"/>
			<point x="316" y="88"/>
			<point x="316" y="236" type="curve" smooth="yes"/>
			<point x="316" y="360"/>
			<point x="269" y="420"/>
			<point x="179" y="420" type="curve" smooth="yes"/>
			<point x="96" y="420"/>
			<point x="46" y="370"/>
			<point x="46" y="293" type="curve" smooth="yes"/>
			<point x="46" y="212"/>
			<point x="100" y="175"/>
			<point x="167" y="175" type="curve" smooth="yes"/>
			<point x="212" y="175"/>
			<point x="260" y="192"/>
			<point x="299" y="225" type="curve"/>
		</contour>
	</outline>
</glyph>
<glyph name="o.sc" format="2">
	<advance width="680"/>
	<anchor x="340" y="0" name="bottom"/>
	<anchor x="340" y="284" name="center"/>
	<anchor x="388" y="0" name="ogonek"/>
	<anchor x="340" y="568" name="top"/>
	<anchor x="14" y="568" name="topleft"/>
	<anchor x="503" y="568" name="topright"/>
	<outline>
		<contour>
			<point x="333" y="-5" type="curve" smooth="yes"/>
			<point x="486" y="-5"/>
			<point x="614" y="101"/>
			<point x="614" y="293" type="curve" smooth="yes"/>
			<point x="614" y="486"/>
			<point x="484" y="574"/>
			<point x="344" y="574" type="curve" smooth="yes"/>
			<point x="197" y="574"/>
			<point x="66" y="478"/>
			<point x="66" y="280" type="curve" smooth="yes"/>
			<point x="66" y="88"/>
			<point x="190" y="-5"/>
		</contour>
		<contour>
			<point x="334" y="14" type="curve" smooth="yes"/>
			<point x="204" y="14"/>
			<point x="88" y="101"/>
			<point x="88" y="281" type="curve" smooth="yes"/>
			<point x="88" y="466"/>
			<point x="209" y="555"/>
			<point x="343" y="555" type="curve" smooth="yes"/>
			<point x="475" y="555"/>
			<point x="592" y="467"/>
			<point x="592" y="290" type="curve" smooth="yes"/>
			<point x="592" y="107"/>
			<point x="469" y="14"/>
		</contour>
	</outline>
</glyph>
<glyph name="oe.sc" format="2">
	<advance width="840"/>
	<outline>
		<contour>
			<point x="335" y="-2" type="curve" smooth="yes"/>
			<point x="358" y="-2"/>
			<point x="398" y="0"/>
			<point x="421" y="0" type="curve" smooth="yes"/>
			<point x="764" y="0" type="line"/>
			<point x="764" y="117" type="line"/>
			<point x="748" y="117" type="line"/>
			<point x="734" y="12" type="line"/>
			<point x="742" y="19" type="line"/>
			<point x="430" y="19" type="line"/>
			<point x="436" y="12" type="line"/>
			<point x="436" y="299" type="line"/>
			<point x="430" y="292" type="line"/>
			<point x="690" y="292" type="line"/>
			<point x="690" y="311" type="line"/>
			<point x="430" y="311" type="line"/>
			<point x="436" y="305" type="line"/>
			<point x="436" y="556" type="line"/>
			<point x="430" y="549" type="line"/>
			<point x="730" y="549" type="line"/>
			<point x="723" y="556" type="line"/>
			<point x="736" y="455" type="line"/>
			<point x="752" y="455" type="line"/>
			<point x="752" y="568" type="line"/>
			<point x="437" y="568" type="line" smooth="yes"/>
			<point x="423" y="568"/>
			<point x="363" y="569"/>
			<point x="347" y="569" type="curve" smooth="yes"/>
			<point x="188" y="569"/>
			<point x="66" y="476"/>
			<point x="66" y="279" type="curve" smooth="yes"/>
			<point x="66" y="88"/>
			<point x="181" y="-2"/>
		</contour>
		<contour>
			<point x="415" y="13" type="line"/>
			<point x="418" y="21" type="line"/>
			<point x="403" y="19"/>
			<point x="360" y="17"/>
			<point x="338" y="17" type="curve" smooth="yes"/>
			<point x="194" y="17"/>
			<point x="88" y="100"/>
			<point x="88" y="280" type="curve" smooth="yes"/>
			<point x="88" y="464"/>
			<point x="199" y="550"/>
			<point x="342" y="550" type="curve" smooth="yes"/>
			<point x="364" y="550"/>
			<point x="407" y="548"/>
			<point x="419" y="548" type="curve"/>
			<point x="415" y="555" type="line"/>
		</contour>
	</outline>
</glyph>
<glyph name="ogonekcomb.case.alt" format="2">
	<advance width="350"/>
	<guideline x="234" y="158" angle="90"/>
	<anchor x="234" y="0" name="_ogonek"/>
	<outline>
		<contour>
			<point x="198" y="-216" type="curve" smooth="yes"/>
			<point x="212" y="-216"/>
			<point x="228" y="-214"/>
			<point x="245" y="-211" type="curve"/>
			<point x="241" y="-193" type="line"/>
			<point x="227" y="-196"/>
			<point x="215" y="-197"/>
			<point x="203" y="-197" type="curve" smooth="yes"/>
			<point x="141" y="-197"/>
			<point x="109" y="-166"/>
			<point x="109" y="-128" type="curve" smooth="yes"/>
			<point x="109" y="-84"/>
			<point x="150" y="-33"/>
			<point x="234" y="0" type="curve"/>
			<point x="227" y="14" type="line"/>
			<point x="135" y="-19"/>
			<point x="88" y="-78"/>
			<point x="88" y="-130" type="curve" smooth="yes"/>
			<point x="88" y="-177"/>
			<point x="126" y="-216"/>
		</contour>
	</outline>
</glyph>
<glyph name="p.sc" format="2">
	<advance width="508"/>
	<anchor x="154" y="0" name="bottom"/>
	<anchor x="254" y="568" name="top"/>
	<outline>
		<contour>
			<point x="244" y="233" type="line" smooth="yes"/>
			<point x="389" y="233"/>
			<point x="472" y="299"/>
			<point x="472" y="409" type="curve" smooth="yes"/>
			<point x="472" y="507"/>
			<point x="406" y="568"/>
			<point x="278" y="568" type="curve" smooth="yes"/>
			<point x="166" y="568" type="line"/>
			<point x="54" y="564" type="line"/>
			<point x="54" y="550" type="line"/>
			<point x="151" y="542" type="line"/>
			<point x="144" y="549" type="line"/>
			<point x="144" y="19" type="line"/>
			<point x="151" y="26" type="line"/>
			<point x="54" y="14" type="line"/>
			<point x="54" y="0" type="line"/>
			<point x="278" y="0" type="line"/>
			<point x="278" y="14" type="line"/>
			<point x="158" y="26" type="line"/>
			<point x="164" y="19" type="line"/>
			<point x="164" y="239" type="line"/>
			<point x="158" y="233" type="line"/>
		</contour>
		<contour>
			<point x="276" y="549" type="line" smooth="yes"/>
			<point x="390" y="549"/>
			<point x="450" y="496"/>
			<point x="450" y="409" type="curve" smooth="yes"/>
			<point x="450" y="310"/>
			<point x="374" y="252"/>
			<point x="245" y="252" type="curve" smooth="yes"/>
			<point x="158" y="252" type="line"/>
			<point x="164" y="245" type="line"/>
			<point x="164" y="556" type="line"/>
			<point x="158" y="549" type="line"/>
		</contour>
	</outline>
</glyph>
